<?xml version="1.0" encoding="UTF-8" standalone="no"?>
<!-- Created with Inkscape (http://www.inkscape.org/) -->

<svg
   version="1.1"
   id="svg1"
   width="438.70401"
   height="131.25732"
   viewBox="0 0 438.70401 131.25732"
   sodipodi:docname="costs.svg"
   inkscape:version="1.4 (86a8ad7, 2024-10-11)"
   xmlns:inkscape="http://www.inkscape.org/namespaces/inkscape"
   xmlns:sodipodi="http://sodipodi.sourceforge.net/DTD/sodipodi-0.dtd"
   xmlns="http://www.w3.org/2000/svg"
   xmlns:svg="http://www.w3.org/2000/svg">
  <defs
     id="defs1">
    <clipPath
       clipPathUnits="userSpaceOnUse"
       id="clipPath15">
      <path
         d="m -24.90811,0 h 298.8824 v 82.7246 h -298.8824 z"
         id="path15" />
    </clipPath>
    <clipPath
       clipPathUnits="userSpaceOnUse"
       id="clipPath17">
      <path
         d="m -24.90811,0 h 298.8824 v 82.7246 h -298.8824 z"
         id="path17" />
    </clipPath>
  </defs>
  <sodipodi:namedview
     id="namedview1"
     pagecolor="#505050"
     bordercolor="#eeeeee"
     borderopacity="1"
     inkscape:showpageshadow="0"
     inkscape:pageopacity="0"
     inkscape:pagecheckerboard="0"
     inkscape:deskcolor="#505050"
     inkscape:zoom="4.0984353"
     inkscape:cx="219.35201"
     inkscape:cy="65.512807"
     inkscape:window-width="1920"
     inkscape:window-height="1009"
     inkscape:window-x="1912"
     inkscape:window-y="586"
     inkscape:window-maximized="1"
     inkscape:current-layer="g1">
    <inkscape:page
       x="0"
       y="0"
       inkscape:label="1"
       id="page1"
       width="438.70401"
       height="131.25732"
       margin="0"
       bleed="0" />
  </sodipodi:namedview>
  <g
     id="g1"
     inkscape:groupmode="layer"
     inkscape:label="1">
    <path
       id="path1"
       d="m -24.90811,0 h 298.8824 m -298.8824,15.04083 h 298.8824 m -298.8824,15.04084 h 298.8824 M -24.90811,45.1225 h 298.8824 m -298.8824,15.04085 h 298.8824 m -298.8824,15.04083 h 298.8824"
       style="fill:none;stroke:#bfbfbf;stroke-width:0.3985;stroke-linecap:butt;stroke-linejoin:miter;stroke-miterlimit:10;stroke-dasharray:none;stroke-opacity:1"
       transform="matrix(1.3333333,0,0,-1.3333333,62.613333,110.564)" />
    <path
       id="path2"
       d="M 0,-4.2519 V 0 M 124.53308,-4.2519 V 0 M 249.06616,-4.2519 V 0"
       style="fill:none;stroke:#808080;stroke-width:0.19925;stroke-linecap:butt;stroke-linejoin:miter;stroke-miterlimit:10;stroke-dasharray:none;stroke-opacity:1"
       transform="matrix(1.3333333,0,0,-1.3333333,62.613333,110.564)" />
    <path
       id="path3"
       d="m -24.90811,0 h 4.25276 m -4.25276,15.04083 h 4.25276 m -4.25276,15.04084 h 4.25276 m -4.25276,15.04083 h 4.25276 m -4.25276,15.04085 h 4.25276 m -4.25276,15.04083 h 4.25276"
       style="fill:none;stroke:#808080;stroke-width:0.19925;stroke-linecap:butt;stroke-linejoin:miter;stroke-miterlimit:10;stroke-dasharray:none;stroke-opacity:1"
       transform="matrix(1.3333333,0,0,-1.3333333,62.613333,110.564)" />
    <path
       id="path4"
       d="m -24.90811,0 v 82.7246 h 298.8824 V 0 Z"
       style="fill:none;stroke:#000000;stroke-width:0.3985;stroke-linecap:butt;stroke-linejoin:miter;stroke-miterlimit:10;stroke-dasharray:none;stroke-opacity:1"
       transform="matrix(1.3333333,0,0,-1.3333333,62.613333,110.564)" />
    <path
       id="path5"
       d="m 0.9726875,-0.43329688 c 0,0.12890625 0,0.1875 -0.17578125,0.19921875 -0.10546875,0.0117188 -0.26953125,0.0117188 -0.375,0.0117188 V 2.96875e-4 H 2.6133125 c 1.0546875,0 1.8984375,-0.750000005 1.8984375,-1.675781275 0,-0.9257812 -0.8320313,-1.7226562 -1.8984375,-1.7226562 H 0.42190625 v 0.2109375 c 0.1171875,0 0.26953125,0 0.375,0.011719 0.17578125,0.023437 0.17578125,0.082031 0.17578125,0.2109375 z m 0.7617187,0.2109375 c -0.2460937,0 -0.2460937,-0.0234375 -0.2460937,-0.19921875 V -2.9879844 c 0,-0.1640625 0,-0.1992187 0.2460937,-0.1992187 h 0.7382813 c 0.5859375,0 0.9492187,0.2578125 1.078125,0.3867187 0.1875,0.1757813 0.3984375,0.4804688 0.3984375,1.125 0,0.4453125 -0.09375,0.80859377 -0.3867188,1.07812502 -0.1640625,0.1640625 -0.515625,0.375 -1.0898437,0.375 z M 7.5791328,-1.1247031 c 0.1054688,0 0.140625,0 0.140625,-0.1171875 0,-0.328125 -0.1757812,-0.984375 -1.1015625,-0.984375 -0.7617187,0 -1.2890625,0.5390625 -1.2890625,1.125 0,0.63281247 0.5976563,1.16015622 1.359375,1.16015622 0.796875,0 1.03125,-0.5625 1.03125,-0.65625 0,-0.0820313 -0.070312,-0.0820313 -0.09375,-0.0820313 -0.082031,0 -0.09375,0.0234375 -0.1171875,0.09375 -0.140625,0.33984375 -0.515625,0.45703125 -0.7851562,0.45703125 -0.4101563,0 -0.6328125,-0.22265625 -0.703125,-0.3046875 C 5.8213203,-0.66767188 5.8213203,-0.98407813 5.8213203,-1.1247031 Z M 5.8330391,-1.2770469 c 0.058594,-0.65625 0.5390625,-0.7851562 0.7734375,-0.7851562 0.6914062,0 0.7265625,0.6445312 0.7382812,0.7851562 z M 9.2988594,-1.9215781 H 10.001984 V -2.1442344 H 9.2754219 v -0.5390625 c 0,-0.46875 0.3164062,-0.6679687 0.5390625,-0.6679687 0.035156,0 0.140625,0.011719 0.140625,0.035156 h -0.011719 c -0.035156,0.035156 -0.082031,0.09375 -0.082031,0.1992188 0,0.140625 0.1054687,0.2578125 0.2578126,0.2578125 0.164062,0 0.257812,-0.1171875 0.257812,-0.2578125 0,-0.2226563 -0.210937,-0.3984375 -0.5507809,-0.3984375 -0.4335937,0 -0.9492187,0.28125 -0.9492187,0.8203125 v 0.5507812 H 8.3965156 v 0.2226563 h 0.4804688 v 1.49999997 c 0,0.15234375 0,0.19921875 -0.328125,0.19921875 H 8.4668281 V 2.96875e-4 C 8.6777656,-0.01142188 8.9004219,-0.02314063 9.1113594,-0.02314063 c 0.2578125,0 0.4921875,0.01171875 0.703125,0.023437505 V -0.22235938 H 9.6855781 c -0.3867187,0 -0.3867187,-0.046875 -0.3867187,-0.19921875 z m 3.5039066,0.796875 c 0.105468,0 0.140625,0 0.140625,-0.1171875 0,-0.328125 -0.175782,-0.984375 -1.101563,-0.984375 -0.761719,0 -1.289062,0.5390625 -1.289062,1.125 0,0.63281247 0.597656,1.16015622 1.359375,1.16015622 0.796875,0 1.03125,-0.5625 1.03125,-0.65625 0,-0.0820313 -0.07031,-0.0820313 -0.09375,-0.0820313 -0.08203,0 -0.09375,0.0234375 -0.117188,0.09375 -0.140625,0.33984375 -0.515625,0.45703125 -0.785156,0.45703125 -0.410156,0 -0.632813,-0.22265625 -0.703125,-0.3046875 -0.199219,-0.234375 -0.199219,-0.55078125 -0.199219,-0.69140627 z m -1.746094,-0.1523438 c 0.05859,-0.65625 0.539062,-0.7851562 0.773437,-0.7851562 0.691407,0 0.726563,0.6445312 0.738282,0.7851562 z m 3.430664,0.1640625 c 0,-0.46875 0.257812,-0.9140625 0.738281,-0.9257812 -0.01172,0.011719 -0.07031,0.070312 -0.07031,0.1757812 0,0.1875 0.140625,0.2578125 0.246093,0.2578125 0.128907,0 0.257813,-0.082031 0.257813,-0.2578125 0,-0.1875 -0.1875,-0.3398437 -0.445313,-0.3398437 -0.246093,0 -0.574218,0.1289062 -0.761718,0.5507812 h -0.01172 v -0.5507812 l -0.796875,0.058594 v 0.2226563 c 0.375,0 0.421875,0.023437 0.421875,0.2695312 v 1.23046877 c 0,0.15234375 0,0.19921875 -0.328125,0.19921875 h -0.09375 V 2.96875e-4 c 0.210937,-0.011718755 0.433594,-0.023437505 0.644531,-0.023437505 0.257813,0 0.503906,0.01171875 0.714844,0.023437505 V -0.22235938 h -0.140625 c -0.375,0 -0.375,-0.046875 -0.375,-0.19921875 z m 2.698242,0 c 0,-0.46875 0.257813,-0.9140625 0.738281,-0.9257812 -0.01172,0.011719 -0.07031,0.070312 -0.07031,0.1757812 0,0.1875 0.140625,0.2578125 0.246094,0.2578125 0.128906,0 0.257812,-0.082031 0.257812,-0.2578125 0,-0.1875 -0.1875,-0.3398437 -0.445312,-0.3398437 -0.246094,0 -0.574219,0.1289062 -0.761719,0.5507812 h -0.01172 v -0.5507812 l -0.796875,0.058594 v 0.2226563 c 0.375,0 0.421875,0.023437 0.421875,0.2695312 v 1.23046877 c 0,0.15234375 0,0.19921875 -0.328125,0.19921875 h -0.09375 V 2.96875e-4 c 0.210938,-0.011718755 0.433594,-0.023437505 0.644531,-0.023437505 0.257813,0 0.503907,0.01171875 0.714844,0.023437505 V -0.22235938 h -0.140625 c -0.375,0 -0.375,-0.046875 -0.375,-0.19921875 z m 4.057617,-0.011719 c 0.105469,0 0.140625,0 0.140625,-0.1171875 0,-0.328125 -0.175781,-0.984375 -1.101562,-0.984375 -0.761719,0 -1.289063,0.5390625 -1.289063,1.125 0,0.63281247 0.597657,1.16015622 1.359375,1.16015622 0.796875,0 1.03125,-0.5625 1.03125,-0.65625 0,-0.0820313 -0.07031,-0.0820313 -0.09375,-0.0820313 -0.08203,0 -0.09375,0.0234375 -0.117187,0.09375 -0.140625,0.33984375 -0.515625,0.45703125 -0.785156,0.45703125 -0.410157,0 -0.632813,-0.22265625 -0.703125,-0.3046875 -0.199219,-0.234375 -0.199219,-0.55078125 -0.199219,-0.69140627 z m -1.746093,-0.1523438 c 0.05859,-0.65625 0.539062,-0.7851562 0.773437,-0.7851562 0.691406,0 0.726563,0.6445312 0.738281,0.7851562 z m 4.3125,-2.1210937 v 0.2109375 c 0.375,0 0.421875,0.035156 0.421875,0.28125 v 0.9726562 c -0.117188,-0.09375 -0.386719,-0.2695312 -0.796875,-0.2695312 -0.75,0 -1.359375,0.5039062 -1.359375,1.1367187 0,0.59765627 0.5625,1.12500002 1.300781,1.12500002 0.410156,0 0.691406,-0.1875 0.832031,-0.3046875 v 0.3046875 L 25.063508,2.96875e-4 V -0.22235938 c -0.363281,0 -0.410156,-0.0351563 -0.410156,-0.28125 V -3.4567344 Z m 0.398437,2.85937497 c -0.234375,0.36328125 -0.609375,0.43359375 -0.796875,0.43359375 -0.257812,0 -0.503906,-0.10546875 -0.667969,-0.328125 -0.164062,-0.19921875 -0.175781,-0.48046875 -0.175781,-0.63281252 0,-0.140625 0.01172,-0.46875 0.222656,-0.6914062 0.175782,-0.1875 0.433594,-0.28125 0.679688,-0.28125 0.140625,0 0.503906,0.035156 0.738281,0.375 z m 4.854492,-2.53124997 c 0,-0.1640625 -0.140625,-0.3046875 -0.304687,-0.3046875 -0.164063,0 -0.304688,0.1171875 -0.304688,0.3046875 0,0.1757812 0.140625,0.3046875 0.304688,0.3046875 0.164062,0 0.304687,-0.140625 0.304687,-0.3046875 z M 28.2305,-2.1442344 v 0.2226563 c 0.351562,0 0.398437,0.023437 0.398437,0.2695312 v 1.23046877 c 0,0.15234375 0,0.19921875 -0.328125,0.19921875 h -0.09375 V 2.96875e-4 C 28.418,-0.01142188 28.628937,-0.02314063 28.828156,-0.02314063 c 0.1875,0 0.410156,0.01171875 0.597656,0.023437505 V -0.22235938 c -0.339843,0 -0.375,0 -0.375,-0.19921875 V -2.2028281 Z m 4.561523,0.6445313 c 0,-0.5507813 -0.375,-0.703125 -0.832031,-0.703125 -0.539062,0 -0.820312,0.2929687 -0.925781,0.4921875 v -0.4921875 l -0.820313,0.058594 v 0.2226563 c 0.363282,0 0.410157,0.023437 0.410157,0.2695312 v 1.23046877 c 0,0.15234375 0,0.19921875 -0.316407,0.19921875 h -0.09375 V 2.96875e-4 c 0.210938,-0.011718755 0.421875,-0.023437505 0.632813,-0.023437505 0.210937,0 0.421875,0.01171875 0.632812,0.023437505 V -0.22235938 h -0.08203 c -0.328125,0 -0.328125,-0.046875 -0.328125,-0.19921875 V -1.2887656 c 0,-0.5625 0.515625,-0.75 0.832031,-0.75 0.363282,0 0.445313,0.2109375 0.445313,0.5273437 v 1.08984377 c 0,0.15234375 0,0.19921875 -0.316406,0.19921875 h -0.09375 V 2.96875e-4 c 0.210937,-0.011718755 0.421875,-0.023437505 0.632812,-0.023437505 0.210938,0 0.421875,0.01171875 0.632813,0.023437505 V -0.22235938 h -0.08203 c -0.328125,0 -0.328125,-0.046875 -0.328125,-0.19921875 z m 3.333985,-0.1289063 c 0.08203,-0.1640625 0.210937,-0.2929687 0.527344,-0.2929687 v -0.2226563 c -0.128907,0.011719 -0.257813,0.023437 -0.433594,0.023437 -0.01172,0 -0.328125,-0.011719 -0.515625,-0.023437 v 0.2226563 c 0.140625,0 0.222656,0.058594 0.222656,0.1757812 0,0.046875 -0.02344,0.09375 -0.02344,0.09375 l -0.632813,1.24218752 -0.679687,-1.33593752 c -0.01172,-0.011719 -0.02344,-0.046875 -0.02344,-0.082031 0,-0.09375 0.164063,-0.09375 0.269531,-0.09375 v -0.2226563 c -0.234375,0.011719 -0.597656,0.023437 -0.632812,0.023437 -0.199219,0 -0.339844,0 -0.550781,-0.023437 v 0.2226563 c 0.292968,0 0.363281,0 0.445312,0.140625 l 0.878906,1.72265622 c 0.03516,0.0703125 0.05859,0.1171875 0.175782,0.1171875 0.117187,0 0.140625,-0.058593745 0.175781,-0.1171875 z m 3.210937,0.5039063 c 0.105469,0 0.140625,0 0.140625,-0.1171875 0,-0.328125 -0.175781,-0.984375 -1.101562,-0.984375 -0.761719,0 -1.289063,0.5390625 -1.289063,1.125 0,0.63281247 0.597657,1.16015622 1.359375,1.16015622 0.796875,0 1.03125,-0.5625 1.03125,-0.65625 0,-0.0820313 -0.07031,-0.0820313 -0.09375,-0.0820313 -0.08203,0 -0.09375,0.0234375 -0.117187,0.09375 -0.140625,0.33984375 -0.515625,0.45703125 -0.785156,0.45703125 -0.410157,0 -0.632813,-0.22265625 -0.703125,-0.3046875 -0.199219,-0.234375 -0.199219,-0.55078125 -0.199219,-0.69140627 z m -1.746093,-0.1523438 c 0.05859,-0.65625 0.539062,-0.7851562 0.773437,-0.7851562 0.691406,0 0.726563,0.6445312 0.738281,0.7851562 z m 4.438476,-0.8203125 c 0,-0.082031 0,-0.1289062 -0.08203,-0.1289062 -0.02344,0 -0.04687,0 -0.08203,0.035156 -0.02344,0.011719 -0.105469,0.09375 -0.128907,0.09375 -0.01172,0 -0.01172,0 -0.04687,-0.023437 -0.117187,-0.058594 -0.292968,-0.1054687 -0.550781,-0.1054687 -0.820312,0 -0.984375,0.375 -0.984375,0.5976562 0,0.46875 0.574219,0.5625 1.03125,0.63281252 0.292969,0.046875 0.75,0.1171875 0.75,0.45703125 0,0.17578125 -0.140625,0.43359375 -0.75,0.43359375 -0.339844,0 -0.667969,-0.12890625 -0.820312,-0.65625 -0.02344,-0.09375 -0.02344,-0.10546875 -0.105469,-0.10546875 -0.105469,0 -0.105469,0.0351563 -0.105469,0.140625 v 0.64453125 c 0,0.082031255 0,0.140625 0.08203,0.140625 0.03516,0 0.03516,-0.01171875 0.128907,-0.10546875 l 0.140625,-0.1171875 c 0.246093,0.2109375 0.5625,0.22265625 0.679687,0.22265625 0.832031,0 0.996094,-0.43359375 0.996094,-0.69140625 0,-0.22265625 -0.117188,-0.38671877 -0.316406,-0.50390627 -0.199219,-0.1289062 -0.339844,-0.140625 -0.761719,-0.2109375 -0.316406,-0.046875 -0.703125,-0.1054687 -0.703125,-0.375 0,-0.1757812 0.199219,-0.3632812 0.738281,-0.3632812 0.410156,0 0.65625,0.1640625 0.679688,0.515625 0.01172,0.070312 0.01172,0.1054687 0.105468,0.1054687 0.105469,0 0.105469,-0.035156 0.105469,-0.140625 z m 1.737305,0.1757813 h 0.878906 v -0.2226563 h -0.878906 v -0.9140625 h -0.210938 c -0.01172,0.46875 -0.257812,0.9492188 -0.761718,0.9609375 v 0.1757813 h 0.527343 v 1.28906247 c 0,0.57421875 0.46875,0.69140625 0.773438,0.69140625 0.375,0 0.65625,-0.28125 0.65625,-0.69140625 V -0.90204688 H 44.54007 v 0.2578125 c 0,0.375 -0.222656,0.515625 -0.398437,0.515625 -0.375,0 -0.375,-0.3984375 -0.375,-0.50390625 z m 6.190429,0.421875 c 0,-0.6210938 -0.46875,-0.703125 -0.84375,-0.703125 -0.492187,0 -0.773437,0.2460937 -0.914062,0.46875 -0.117188,-0.4570313 -0.632813,-0.46875 -0.808594,-0.46875 -0.515625,0 -0.808594,0.28125 -0.925781,0.4921875 v -0.4921875 l -0.820313,0.058594 v 0.2226563 c 0.363282,0 0.410157,0.023437 0.410157,0.2695312 v 1.23046877 c 0,0.15234375 0,0.19921875 -0.316407,0.19921875 h -0.09375 V 2.96875e-4 c 0.210938,-0.011718755 0.421875,-0.023437505 0.632813,-0.023437505 0.210937,0 0.421875,0.01171875 0.632812,0.023437505 V -0.22235938 h -0.08203 c -0.328125,0 -0.328125,-0.046875 -0.328125,-0.19921875 V -1.2887656 c 0,-0.5507813 0.503906,-0.75 0.832031,-0.75 0.363282,0 0.457032,0.2109375 0.457032,0.5273437 v 1.08984377 c 0,0.15234375 0,0.19921875 -0.328125,0.19921875 H 47.36722 V 2.96875e-4 c 0.222656,-0.011718755 0.421875,-0.023437505 0.644531,-0.023437505 0.210937,0 0.421875,0.01171875 0.632812,0.023437505 V -0.22235938 h -0.09375 c -0.328125,0 -0.328125,-0.046875 -0.328125,-0.19921875 V -1.2887656 c 0,-0.5507813 0.515625,-0.75 0.832032,-0.75 0.363281,0 0.457031,0.2109375 0.457031,0.5273437 v 1.08984377 c 0,0.15234375 0,0.19921875 -0.328125,0.19921875 h -0.08203 V 2.96875e-4 c 0.210937,-0.011718755 0.421875,-0.023437505 0.632812,-0.023437505 0.210938,0 0.421875,0.01171875 0.632813,0.023437505 V -0.22235938 h -0.08203 c -0.328125,0 -0.328125,-0.046875 -0.328125,-0.19921875 z m 3.322266,0.375 c 0.105469,0 0.140625,0 0.140625,-0.1171875 0,-0.328125 -0.175781,-0.984375 -1.101562,-0.984375 -0.761719,0 -1.289063,0.5390625 -1.289063,1.125 0,0.63281247 0.597656,1.16015622 1.359375,1.16015622 0.796875,0 1.03125,-0.5625 1.03125,-0.65625 0,-0.0820313 -0.07031,-0.0820313 -0.09375,-0.0820313 -0.08203,0 -0.09375,0.0234375 -0.117187,0.09375 -0.140625,0.33984375 -0.515625,0.45703125 -0.785157,0.45703125 -0.410156,0 -0.632812,-0.22265625 -0.703125,-0.3046875 -0.199218,-0.234375 -0.199218,-0.55078125 -0.199218,-0.69140627 z m -1.746094,-0.1523438 c 0.05859,-0.65625 0.539063,-0.7851562 0.773438,-0.7851562 0.691406,0 0.726562,0.6445312 0.738281,0.7851562 z m 5.200196,-0.2226562 c 0,-0.5507813 -0.375,-0.703125 -0.832032,-0.703125 -0.539062,0 -0.820312,0.2929687 -0.925781,0.4921875 v -0.4921875 l -0.820312,0.058594 v 0.2226563 c 0.363281,0 0.410156,0.023437 0.410156,0.2695312 v 1.23046877 c 0,0.15234375 0,0.19921875 -0.316406,0.19921875 h -0.09375 V 2.96875e-4 c 0.210937,-0.011718755 0.421875,-0.023437505 0.632812,-0.023437505 0.210938,0 0.421875,0.01171875 0.632813,0.023437505 V -0.22235938 H 55.3389 c -0.328125,0 -0.328125,-0.046875 -0.328125,-0.19921875 V -1.2887656 c 0,-0.5625 0.515625,-0.75 0.832032,-0.75 0.363281,0 0.445312,0.2109375 0.445312,0.5273437 v 1.08984377 c 0,0.15234375 0,0.19921875 -0.316406,0.19921875 h -0.09375 V 2.96875e-4 c 0.210937,-0.011718755 0.421875,-0.023437505 0.632812,-0.023437505 0.210938,0 0.421875,0.01171875 0.632813,0.023437505 V -0.22235938 h -0.08203 c -0.328125,0 -0.328125,-0.046875 -0.328125,-0.19921875 z m 1.801757,-0.421875 h 0.878907 V -2.1442344 H 58.535187 V -3.0582969 H 58.32425 c -0.01172,0.46875 -0.257813,0.9492188 -0.761719,0.9609375 v 0.1757813 h 0.527344 v 1.28906247 c 0,0.57421875 0.46875,0.69140625 0.773437,0.69140625 0.375,0 0.65625,-0.28125 0.65625,-0.69140625 v -0.26953125 h -0.210937 v 0.2578125 c 0,0.375 -0.222656,0.515625 -0.398438,0.515625 -0.375,0 -0.375,-0.3984375 -0.375,-0.50390625 z m 0,0"
       style="fill:#000000;fill-opacity:1;fill-rule:nonzero;stroke:none"
       aria-label="Deferredinvestment"
       transform="matrix(1.3333333,0,0,1.3333333,22.609333,125.53867)" />
    <path
       id="path6"
       d="m 4.2888984,-3.3747031 c 0,-0.082031 0,-0.140625 -0.082031,-0.140625 -0.058594,0 -0.070312,0.023437 -0.09375,0.058594 l -0.292969,0.3867185 C 3.5154609,-3.3278281 3.1287422,-3.5153281 2.6365547,-3.5153281 c -1.2070313,0 -2.15625001,0.8320312 -2.15625001,1.8164062 0,0.98437502 0.94921871,1.80468752 2.15625001,1.80468752 0.9609375,0 1.6523437,-0.609375 1.6523437,-1.26562502 0,-0.082031 -0.023437,-0.1054687 -0.1054687,-0.1054687 -0.058594,0 -0.1054688,0 -0.1054688,0.082031 -0.046875,0.75000002 -0.7617187,1.07812502 -1.3476562,1.07812502 -0.703125,0 -1.6640625,-0.3984375 -1.6640625,-1.59375002 0,-1.1953125 0.9375,-1.59375 1.6523437,-1.59375 0.4570313,0 1.1835938,0.234375 1.3476563,1.171875 0.011719,0.058594 0.070312,0.058594 0.1054687,0.058594 0.1171875,0 0.1171875,-0.035156 0.1171875,-0.140625 z m 3.084961,1.8984375 c 0,-0.4804688 -0.5039063,-0.75 -1.1132813,-0.75 -0.3046875,0 -0.890625,0.011719 -0.890625,0.4335937 0,0.1875 0.140625,0.2695313 0.2695313,0.2695313 0.1289062,0 0.2578125,-0.09375 0.2578125,-0.2695313 0,-0.1171875 -0.058594,-0.1875 -0.1054688,-0.2226562 0.1640625,-0.046875 0.3984375,-0.046875 0.4570313,-0.046875 0.421875,0 0.6796875,0.234375 0.6796875,0.5859375 v 0.1289062 c -0.4804688,0.023437 -0.75,0.046875 -1.125,0.1757813 -0.328125,0.1171875 -0.6210938,0.32812497 -0.6210938,0.64453122 0,0.46875 0.5742188,0.5859375 0.9726563,0.5859375 0.3867187,0 0.6796875,-0.1640625 0.84375,-0.41015625 0.011719,0.17578125 0.1289062,0.38671875 0.3867187,0.38671875 0.035156,0 0.5976563,0 0.5976563,-0.48046875 v -0.28125 H 7.7722969 v 0.26953125 c 0,0.046875 0,0.26953125 -0.1992188,0.26953125 -0.1992187,0 -0.1992187,-0.22265625 -0.1992187,-0.26953125 z m -0.4453125,0.77343747 c 0,0.5390625 -0.5976563,0.59765625 -0.7148438,0.59765625 -0.2929687,0 -0.5742187,-0.1640625 -0.5742187,-0.421875 0,-0.1640625 0.1054687,-0.62109372 1.2890625,-0.66796872 z m 2.8886718,1.453125 h -0.09375 c -0.328125,0 -0.328125,-0.046875 -0.328125,-0.19921875 V -0.23407813 C 9.618,-0.03485938 9.8875312,0.05889062 10.168781,0.05889062 c 0.75,0 1.371094,-0.515625 1.371094,-1.13671872 0,-0.5976563 -0.550781,-1.125 -1.289063,-1.125 -0.3867183,0 -0.7031245,0.140625 -0.867187,0.28125 v -0.28125 l -0.84375,0.058594 v 0.2226563 c 0.3632812,0 0.421875,0 0.421875,0.2109375 v 2.26171872 c 0,0.15234375 0,0.19921875 -0.328125,0.19921875 h -0.09375 v 0.2109375 c 0.2226562,-0.0117188 0.421875,-0.0117188 0.6445312,-0.0117188 0.2109375,0 0.421875,0 0.6328125,0.0117188 z M 9.3953437,-1.6520469 c 0.2226563,-0.3046875 0.5976563,-0.375 0.7968753,-0.375 0.492187,0 0.84375,0.4453125 0.84375,0.9492188 0,0.55078122 -0.410157,0.97265622 -0.902344,0.97265622 -0.2226563,0 -0.4921875,-0.09375 -0.6679688,-0.328125 -0.070312,-0.0820313 -0.070312,-0.09375 -0.070312,-0.1875 z m 5.1064453,0.1757813 c 0,-0.4804688 -0.503906,-0.75 -1.113281,-0.75 -0.304688,0 -0.890625,0.011719 -0.890625,0.4335937 0,0.1875 0.140625,0.2695313 0.269531,0.2695313 0.128906,0 0.257813,-0.09375 0.257813,-0.2695313 0,-0.1171875 -0.05859,-0.1875 -0.105469,-0.2226562 0.164062,-0.046875 0.398437,-0.046875 0.457031,-0.046875 0.421875,0 0.679688,0.234375 0.679688,0.5859375 v 0.1289062 c -0.480469,0.023437 -0.75,0.046875 -1.125,0.1757813 -0.328125,0.1171875 -0.621094,0.32812497 -0.621094,0.64453122 0,0.46875 0.574219,0.5859375 0.972656,0.5859375 0.386719,0 0.679688,-0.1640625 0.84375,-0.41015625 0.01172,0.17578125 0.128906,0.38671875 0.386719,0.38671875 0.03516,0 0.597656,0 0.597656,-0.48046875 v -0.28125 h -0.210937 v 0.26953125 c 0,0.046875 0,0.26953125 -0.199219,0.26953125 -0.199219,0 -0.199219,-0.22265625 -0.199219,-0.26953125 z m -0.445312,0.77343747 c 0,0.5390625 -0.597657,0.59765625 -0.714844,0.59765625 -0.292969,0 -0.574219,-0.1640625 -0.574219,-0.421875 0,-0.1640625 0.105469,-0.62109372 1.289063,-0.66796872 z m 3.471679,-1.30078127 c -0.07031,0.046875 -0.117187,0.1289063 -0.117187,0.2109375 0,0.1640625 0.128906,0.2695313 0.269531,0.2695313 0.117187,0 0.269531,-0.082031 0.269531,-0.2695313 0,-0.421875 -0.5625,-0.4335937 -0.902344,-0.4335937 -0.984375,0 -1.394531,0.65625 -1.394531,1.1484375 0,0.62109372 0.574219,1.13671872 1.335938,1.13671872 0.855468,0 1.019531,-0.609375 1.019531,-0.65625 0,-0.0703125 -0.07031,-0.0703125 -0.09375,-0.0703125 -0.08203,0 -0.09375,0.0117188 -0.117188,0.0703125 -0.164062,0.421875 -0.527343,0.46875 -0.75,0.46875 -0.433593,0 -0.902343,-0.28125 -0.902343,-0.94921872 0,-0.2226563 0.04687,-0.4921875 0.234375,-0.703125 0.234375,-0.2695313 0.527343,-0.2695313 0.679687,-0.2695313 0.152344,0 0.292969,0 0.46875,0.046875 z m 2.071289,-1.0664062 c 0,-0.1640625 -0.140625,-0.3046875 -0.304687,-0.3046875 -0.164063,0 -0.304688,0.1171875 -0.304688,0.3046875 0,0.1757812 0.140625,0.3046875 0.304688,0.3046875 0.164062,0 0.304687,-0.140625 0.304687,-0.3046875 z m -0.832031,0.9257812 v 0.2226563 c 0.351563,0 0.398438,0.023437 0.398438,0.2695312 v 1.23046877 c 0,0.15234375 0,0.19921875 -0.328125,0.19921875 h -0.09375 V 2.96875e-4 c 0.210937,-0.011718755 0.421875,-0.023437505 0.621093,-0.023437505 0.1875,0 0.410157,0.01171875 0.597657,0.023437505 V -0.22235938 c -0.339844,0 -0.375,0 -0.375,-0.19921875 V -2.2028281 Z m 2.803711,0.2226563 h 0.878906 v -0.2226563 h -0.878906 v -0.9140625 h -0.210938 c -0.01172,0.46875 -0.257812,0.9492188 -0.761718,0.9609375 v 0.1757813 h 0.527343 v 1.28906247 c 0,0.57421875 0.46875,0.69140625 0.773438,0.69140625 0.375,0 0.65625,-0.28125 0.65625,-0.69140625 v -0.26953125 h -0.210938 v 0.2578125 c 0,0.375 -0.222656,0.515625 -0.398437,0.515625 -0.375,0 -0.375,-0.3984375 -0.375,-0.50390625 z m 4.037109,0.3046875 c 0.05859,-0.1171875 0.164063,-0.3046875 0.539063,-0.3046875 v -0.2226563 c -0.105469,0.011719 -0.257813,0.023437 -0.445313,0.023437 -0.152343,0 -0.339843,-0.011719 -0.503906,-0.023437 v 0.2226563 c 0.140625,0 0.222656,0.070312 0.222656,0.1640625 0,0.046875 -0.02344,0.082031 -0.03516,0.1171875 L 24.76448,-0.45673438 24.096512,-1.7457969 c -0.03516,-0.046875 -0.03516,-0.070312 -0.03516,-0.082031 0,-0.09375 0.128907,-0.09375 0.269532,-0.09375 v -0.2226563 c -0.210938,0.011719 -0.421875,0.023437 -0.632813,0.023437 -0.199219,0 -0.328125,0 -0.550781,-0.023437 v 0.2226563 c 0.351562,0 0.375,0.011719 0.445312,0.1523437 l 0.9375,1.769531275 c -0.21093,0.433593545 -0.421868,0.855468545 -0.832024,0.855468545 -0.128906,0 -0.164062,-0.0234375 -0.222656,-0.0585938 0.03516,-0.0117188 0.140625,-0.0703125 0.140625,-0.22265625 0,-0.15234375 -0.117188,-0.24609375 -0.246094,-0.24609375 -0.117187,0 -0.246094,0.0703125 -0.246094,0.2578125 0,0.24609375 0.257813,0.43359378 0.574219,0.43359378 0.292969,0 0.621094,-0.18750003 0.855469,-0.62109378 z m 7.898438,0.1171875 c 0,-0.6210938 -0.46875,-0.703125 -0.84375,-0.703125 -0.492188,0 -0.773438,0.2460937 -0.914063,0.46875 -0.117187,-0.4570313 -0.632812,-0.46875 -0.808593,-0.46875 -0.515625,0 -0.808594,0.28125 -0.925782,0.4921875 v -0.4921875 l -0.820312,0.058594 v 0.2226563 c 0.363281,0 0.410156,0.023437 0.410156,0.2695312 v 1.23046877 c 0,0.15234375 0,0.19921875 -0.316406,0.19921875 h -0.09375 V 2.96875e-4 c 0.210937,-0.011718755 0.421875,-0.023437505 0.632812,-0.023437505 0.210938,0 0.421875,0.01171875 0.632813,0.023437505 V -0.22235938 h -0.08203 c -0.328125,0 -0.328125,-0.046875 -0.328125,-0.19921875 V -1.2887656 c 0,-0.5507813 0.503906,-0.75 0.832031,-0.75 0.363281,0 0.457031,0.2109375 0.457031,0.5273437 v 1.08984377 c 0,0.15234375 0,0.19921875 -0.328125,0.19921875 h -0.09375 V 2.96875e-4 c 0.222656,-0.011718755 0.421875,-0.023437505 0.644531,-0.023437505 0.210938,0 0.421875,0.01171875 0.632813,0.023437505 V -0.22235938 h -0.09375 c -0.328125,0 -0.328125,-0.046875 -0.328125,-0.19921875 V -1.2887656 c 0,-0.5507813 0.515625,-0.75 0.832031,-0.75 0.363281,0 0.457031,0.2109375 0.457031,0.5273437 v 1.08984377 c 0,0.15234375 0,0.19921875 -0.328125,0.19921875 h -0.08203 V 2.96875e-4 c 0.210938,-0.011718755 0.421875,-0.023437505 0.632813,-0.023437505 0.210937,0 0.421875,0.01171875 0.632812,0.023437505 V -0.22235938 H 33.8348 c -0.328125,0 -0.328125,-0.046875 -0.328125,-0.19921875 z m 3.345703,0.023437 c 0,-0.4804688 -0.503906,-0.75 -1.113281,-0.75 -0.304688,0 -0.890625,0.011719 -0.890625,0.4335937 0,0.1875 0.140625,0.2695313 0.269531,0.2695313 0.128906,0 0.257812,-0.09375 0.257812,-0.2695313 0,-0.1171875 -0.05859,-0.1875 -0.105468,-0.2226562 0.164062,-0.046875 0.398437,-0.046875 0.457031,-0.046875 0.421875,0 0.679687,0.234375 0.679687,0.5859375 v 0.1289062 c -0.480468,0.023437 -0.75,0.046875 -1.125,0.1757813 -0.328125,0.1171875 -0.621093,0.32812497 -0.621093,0.64453122 0,0.46875 0.574218,0.5859375 0.972656,0.5859375 0.386719,0 0.679687,-0.1640625 0.84375,-0.41015625 0.01172,0.17578125 0.128906,0.38671875 0.386719,0.38671875 0.03516,0 0.597656,0 0.597656,-0.48046875 v -0.28125 h -0.210938 v 0.26953125 c 0,0.046875 0,0.26953125 -0.199218,0.26953125 -0.199219,0 -0.199219,-0.22265625 -0.199219,-0.26953125 z m -0.445313,0.77343747 c 0,0.5390625 -0.597656,0.59765625 -0.714843,0.59765625 -0.292969,0 -0.574219,-0.1640625 -0.574219,-0.421875 0,-0.1640625 0.105469,-0.62109372 1.289062,-0.66796872 z m 2.452149,-0.41015627 c 0,-0.46875 0.257812,-0.9140625 0.738281,-0.9257812 -0.01172,0.011719 -0.07031,0.070312 -0.07031,0.1757812 0,0.1875 0.140625,0.2578125 0.246093,0.2578125 0.128907,0 0.257813,-0.082031 0.257813,-0.2578125 0,-0.1875 -0.1875,-0.3398437 -0.445313,-0.3398437 -0.246093,0 -0.574218,0.1289062 -0.761718,0.5507812 h -0.01172 v -0.5507812 l -0.796875,0.058594 v 0.2226563 c 0.375,0 0.421875,0.023437 0.421875,0.2695312 v 1.23046877 c 0,0.15234375 0,0.19921875 -0.328125,0.19921875 h -0.09375 V 2.96875e-4 c 0.210937,-0.011718755 0.433594,-0.023437505 0.644531,-0.023437505 0.257813,0 0.503906,0.01171875 0.714844,0.023437505 V -0.22235938 h -0.140625 c -0.375,0 -0.375,-0.046875 -0.375,-0.19921875 z m 3.413086,-0.234375 c 0.08203,-0.046875 0.527344,-0.3632812 0.5625,-0.375 0.328125,-0.1992187 0.585937,-0.1992187 0.679687,-0.1992187 v -0.2226563 c -0.1875,0.023437 -0.363281,0.023437 -0.421875,0.023437 -0.199218,0 -0.492187,-0.011719 -0.65625,-0.023437 v 0.2226563 c 0.07031,0 0.07031,0.058594 0.07031,0.058594 0,0.023437 0,0.09375 -0.140625,0.1992188 l -0.808594,0.5507812 v -2.34375 l -0.84375,0.058594 v 0.2109375 c 0.375,0 0.421875,0.035156 0.421875,0.28125 v 2.48437497 c 0,0.15234375 0,0.19921875 -0.328125,0.19921875 H 40.7137 V 2.96875e-4 c 0.199219,-0.011718755 0.421875,-0.023437505 0.621094,-0.023437505 0.199219,0 0.421875,0.01171875 0.609375,0.023437505 V -0.22235938 h -0.08203 c -0.328125,0 -0.328125,-0.046875 -0.328125,-0.19921875 v -0.421875 l 0.410156,-0.28124997 0.5625,0.60937497 c 0.09375,0.09375 0.152344,0.15234375 0.152344,0.22265625 0,0.0703125 -0.105469,0.0703125 -0.128907,0.0703125 V 2.96875e-4 c 0.199219,-0.011718755 0.539063,-0.023437505 0.609375,-0.023437505 0.1875,0 0.328125,0.01171875 0.515625,0.023437505 V -0.22235938 c -0.222656,0 -0.351562,0 -0.5625,-0.234375 z m 4.03125,0.2226563 c 0.105469,0 0.140625,0 0.140625,-0.1171875 0,-0.328125 -0.175781,-0.984375 -1.101563,-0.984375 -0.761718,0 -1.289062,0.5390625 -1.289062,1.125 0,0.63281247 0.597656,1.16015622 1.359375,1.16015622 0.796875,0 1.03125,-0.5625 1.03125,-0.65625 0,-0.0820313 -0.07031,-0.0820313 -0.09375,-0.0820313 -0.08203,0 -0.09375,0.0234375 -0.117188,0.09375 -0.140625,0.33984375 -0.515625,0.45703125 -0.785156,0.45703125 -0.410156,0 -0.632812,-0.22265625 -0.703125,-0.3046875 -0.199219,-0.234375 -0.199219,-0.55078125 -0.199219,-0.69140627 z m -1.746094,-0.1523438 c 0.05859,-0.65625 0.539063,-0.7851562 0.773438,-0.7851562 0.691406,0 0.726562,0.6445312 0.738281,0.7851562 z m 3.445313,-0.6445312 h 0.878906 v -0.2226563 h -0.878906 v -0.9140625 h -0.210938 c -0.01172,0.46875 -0.257812,0.9492188 -0.761719,0.9609375 v 0.1757813 h 0.527344 v 1.28906247 c 0,0.57421875 0.46875,0.69140625 0.773438,0.69140625 0.375,0 0.65625,-0.28125 0.65625,-0.69140625 v -0.26953125 h -0.210938 v 0.2578125 c 0,0.375 -0.222656,0.515625 -0.398437,0.515625 -0.375,0 -0.375,-0.3984375 -0.375,-0.50390625 z m 0,0"
       style="fill:#000000;fill-opacity:1;fill-rule:nonzero;stroke:none"
       aria-label="Capacitymarket"
       transform="matrix(1.3333333,0,0,1.3333333,195.676,125.53867)" />
    <path
       id="path7"
       d="m 5.7879531,-2.8707969 c 0.046875,-0.1171875 0.1171875,-0.3164062 0.5507813,-0.3164062 v -0.2109375 c -0.234375,0.011719 -0.515625,0.011719 -0.5273438,0.011719 -0.2226562,0 -0.5273437,0 -0.6796875,-0.011719 v 0.2109375 c 0.2578125,0 0.4453125,0.09375 0.4453125,0.234375 0,0.035156 -0.023437,0.09375 -0.023437,0.09375 L 4.6395156,-0.57392188 3.6785781,-2.9762656 c -0.023437,-0.058594 -0.023437,-0.070312 -0.023437,-0.082031 0,-0.1289062 0.2929688,-0.1289062 0.4335938,-0.1289062 v -0.2109375 c -0.1875,0 -0.5742188,0.011719 -0.796875,0.011719 -0.2226563,0 -0.4453125,0 -0.6796875,-0.011719 v 0.2109375 h 0.1054687 c 0.2695313,0 0.3046875,0.035156 0.3398438,0.070312 0.035156,0.023437 0.09375,0.1992187 0.1289062,0.2929687 l -0.023437,0.070312 -0.8671875,2.17968752 -0.9726562,-2.41406252 c -0.011719,-0.046875 -0.023437,-0.058594 -0.023437,-0.070312 0,-0.1289062 0.3046875,-0.1289062 0.4453125,-0.1289062 v -0.2109375 c -0.1875,0 -0.5742188,0.011719 -0.79687502,0.011719 -0.234375,0 -0.45703125,0 -0.6796875,-0.011719 v 0.2109375 h 0.09375 c 0.33984375,0 0.36328125,0.058594 0.41015625,0.1875 l 1.19531247,2.97656247 c 0.035156,0.08203125 0.046875,0.12890625 0.1640625,0.12890625 0.1054688,0 0.1289063,-0.03515625 0.1640625,-0.1171875 l 1.0078125,-2.53125002 1.0078125,2.53125002 c 0.035156,0.08203125 0.058594,0.1171875 0.1640625,0.1171875 0.1171875,0 0.1289063,-0.046875 0.1640625,-0.12890625 z m 3.8144532,1.3710938 c 0,-0.5507813 -0.375,-0.703125 -0.8320313,-0.703125 -0.5742187,0 -0.8320312,0.3398437 -0.9140625,0.4570312 v -1.7109375 l -0.8320312,0.058594 v 0.2109375 c 0.3632812,0 0.4101562,0.035156 0.4101562,0.28125 v 2.48437497 c 0,0.15234375 0,0.19921875 -0.3164062,0.19921875 h -0.09375 V 2.96875e-4 c 0.2109375,-0.011718755 0.421875,-0.023437505 0.6328125,-0.023437505 0.2109375,0 0.421875,0.01171875 0.6328125,0.023437505 V -0.22235938 H 8.207875 c -0.328125,0 -0.328125,-0.046875 -0.328125,-0.19921875 V -1.2887656 c 0,-0.5625 0.515625,-0.75 0.8320313,-0.75 0.3632812,0 0.4453125,0.2109375 0.4453125,0.5273437 v 1.08984377 c 0,0.15234375 0,0.19921875 -0.3164063,0.19921875 h -0.09375 V 2.96875e-4 C 8.957875,-0.01142188 9.1688125,-0.02314063 9.37975,-0.02314063 c 0.2109375,0 0.421875,0.01171875 0.632813,0.023437505 V -0.22235938 H 9.930531 c -0.328125,0 -0.328125,-0.046875 -0.328125,-0.19921875 z m 3.8056637,0.4335937 c 0,-0.6210937 -0.585937,-1.1601562 -1.359375,-1.1601562 -0.785156,0 -1.371093,0.5390625 -1.371093,1.1601562 0,0.59765627 0.585937,1.12500002 1.371093,1.12500002 0.773438,0 1.359375,-0.52734375 1.359375,-1.12500002 z m -1.359375,0.93750002 c -0.878906,0 -0.878906,-0.73828125 -0.878906,-0.98437502 0,-0.2226562 0,-0.9492187 0.878906,-0.9492187 0.867188,0 0.867188,0.7265625 0.867188,0.9492187 0,0.24609377 0,0.98437502 -0.867188,0.98437502 z m 2.944336,-3.32812502 -0.84375,0.058594 v 0.2109375 c 0.375,0 0.421875,0.035156 0.421875,0.28125 v 2.48437497 c 0,0.15234375 0,0.19921875 -0.328125,0.19921875 h -0.09375 V 2.96875e-4 c 0.210938,-0.011718755 0.421875,-0.023437505 0.621094,-0.023437505 0.210938,0 0.421875,0.01171875 0.632813,0.023437505 V -0.22235938 h -0.09375 c -0.316407,0 -0.316407,-0.046875 -0.316407,-0.19921875 z m 3.331055,2.3320313 c 0.105469,0 0.140625,0 0.140625,-0.1171875 0,-0.328125 -0.175781,-0.984375 -1.101563,-0.984375 -0.761718,0 -1.289062,0.5390625 -1.289062,1.125 0,0.63281247 0.597656,1.16015622 1.359375,1.16015622 0.796875,0 1.03125,-0.5625 1.03125,-0.65625 0,-0.0820313 -0.07031,-0.0820313 -0.09375,-0.0820313 -0.08203,0 -0.09375,0.0234375 -0.117188,0.09375 -0.140625,0.33984375 -0.515625,0.45703125 -0.785156,0.45703125 -0.410156,0 -0.632812,-0.22265625 -0.703125,-0.3046875 -0.199219,-0.234375 -0.199219,-0.55078125 -0.199219,-0.69140627 z m -1.746094,-0.1523438 c 0.05859,-0.65625 0.539063,-0.7851562 0.773438,-0.7851562 0.691406,0 0.726562,0.6445312 0.738281,0.7851562 z m 4.438477,-0.8203125 c 0,-0.082031 0,-0.1289062 -0.08203,-0.1289062 -0.02344,0 -0.04687,0 -0.08203,0.035156 -0.02344,0.011719 -0.105468,0.09375 -0.128906,0.09375 -0.01172,0 -0.01172,0 -0.04687,-0.023437 -0.117187,-0.058594 -0.292969,-0.1054687 -0.550781,-0.1054687 -0.820313,0 -0.984375,0.375 -0.984375,0.5976562 0,0.46875 0.574219,0.5625 1.03125,0.63281252 0.292969,0.046875 0.75,0.1171875 0.75,0.45703125 0,0.17578125 -0.140625,0.43359375 -0.75,0.43359375 -0.339844,0 -0.667969,-0.12890625 -0.820313,-0.65625 -0.02344,-0.09375 -0.02344,-0.10546875 -0.105468,-0.10546875 -0.105469,0 -0.105469,0.0351563 -0.105469,0.140625 v 0.64453125 c 0,0.082031255 0,0.140625 0.08203,0.140625 0.03516,0 0.03516,-0.01171875 0.128906,-0.10546875 l 0.140625,-0.1171875 c 0.246094,0.2109375 0.5625,0.22265625 0.679688,0.22265625 0.832031,0 0.996094,-0.43359375 0.996094,-0.69140625 0,-0.22265625 -0.117188,-0.38671877 -0.316407,-0.50390627 -0.199218,-0.1289062 -0.339843,-0.140625 -0.761718,-0.2109375 -0.316407,-0.046875 -0.703125,-0.1054687 -0.703125,-0.375 0,-0.1757812 0.199218,-0.3632812 0.738281,-0.3632812 0.410156,0 0.65625,0.1640625 0.679687,0.515625 0.01172,0.070312 0.01172,0.1054687 0.105469,0.1054687 0.105469,0 0.105469,-0.035156 0.105469,-0.140625 z m 3.108398,0.6210938 c 0,-0.4804688 -0.503906,-0.75 -1.113281,-0.75 -0.304688,0 -0.890625,0.011719 -0.890625,0.4335937 0,0.1875 0.140625,0.2695313 0.269531,0.2695313 0.128906,0 0.257813,-0.09375 0.257813,-0.2695313 0,-0.1171875 -0.05859,-0.1875 -0.105469,-0.2226562 0.164062,-0.046875 0.398437,-0.046875 0.457031,-0.046875 0.421875,0 0.679688,0.234375 0.679688,0.5859375 v 0.1289062 c -0.480469,0.023437 -0.75,0.046875 -1.125,0.1757813 -0.328125,0.1171875 -0.621094,0.32812497 -0.621094,0.64453122 0,0.46875 0.574219,0.5859375 0.972656,0.5859375 0.386719,0 0.679688,-0.1640625 0.84375,-0.41015625 0.01172,0.17578125 0.128906,0.38671875 0.386719,0.38671875 0.03516,0 0.597656,0 0.597656,-0.48046875 v -0.28125 h -0.210937 v 0.26953125 c 0,0.046875 0,0.26953125 -0.199219,0.26953125 -0.199219,0 -0.199219,-0.22265625 -0.199219,-0.26953125 z m -0.445312,0.77343747 c 0,0.5390625 -0.597657,0.59765625 -0.714844,0.59765625 -0.292969,0 -0.574219,-0.1640625 -0.574219,-0.421875 0,-0.1640625 0.105469,-0.62109372 1.289063,-0.66796872 z m 2.487304,-2.75390627 -0.84375,0.058594 v 0.2109375 c 0.375,0 0.421875,0.035156 0.421875,0.28125 v 2.48437497 c 0,0.15234375 0,0.19921875 -0.328125,0.19921875 h -0.09375 V 2.96875e-4 c 0.210938,-0.011718755 0.421875,-0.023437505 0.621094,-0.023437505 0.210938,0 0.421875,0.01171875 0.632813,0.023437505 V -0.22235938 h -0.09375 c -0.316407,0 -0.316407,-0.046875 -0.316407,-0.19921875 z m 3.331055,2.3320313 c 0.105469,0 0.140625,0 0.140625,-0.1171875 0,-0.328125 -0.175781,-0.984375 -1.101562,-0.984375 -0.761719,0 -1.289063,0.5390625 -1.289063,1.125 0,0.63281247 0.597656,1.16015622 1.359375,1.16015622 0.796875,0 1.03125,-0.5625 1.03125,-0.65625 0,-0.0820313 -0.07031,-0.0820313 -0.09375,-0.0820313 -0.08203,0 -0.09375,0.0234375 -0.117187,0.09375 -0.140625,0.33984375 -0.515625,0.45703125 -0.785157,0.45703125 -0.410156,0 -0.632812,-0.22265625 -0.703125,-0.3046875 -0.199218,-0.234375 -0.199218,-0.55078125 -0.199218,-0.69140627 z M 27.75182,-1.2770469 c 0.05859,-0.65625 0.539063,-0.7851562 0.773438,-0.7851562 0.691406,0 0.726562,0.6445312 0.738281,0.7851562 z m 7.166016,-0.1992187 c 0,-0.4804688 -0.503906,-0.75 -1.113281,-0.75 -0.304688,0 -0.890625,0.011719 -0.890625,0.4335937 0,0.1875 0.140625,0.2695313 0.269531,0.2695313 0.128906,0 0.257812,-0.09375 0.257812,-0.2695313 0,-0.1171875 -0.05859,-0.1875 -0.105468,-0.2226562 0.164062,-0.046875 0.398437,-0.046875 0.457031,-0.046875 0.421875,0 0.679687,0.234375 0.679687,0.5859375 v 0.1289062 c -0.480468,0.023437 -0.75,0.046875 -1.125,0.1757813 -0.328125,0.1171875 -0.621093,0.32812497 -0.621093,0.64453122 0,0.46875 0.574218,0.5859375 0.972656,0.5859375 0.386719,0 0.679687,-0.1640625 0.84375,-0.41015625 0.01172,0.17578125 0.128906,0.38671875 0.386719,0.38671875 0.03516,0 0.597656,0 0.597656,-0.48046875 v -0.28125 h -0.210938 v 0.26953125 c 0,0.046875 0,0.26953125 -0.199218,0.26953125 -0.199219,0 -0.199219,-0.22265625 -0.199219,-0.26953125 z m -0.445313,0.77343747 c 0,0.5390625 -0.597656,0.59765625 -0.714843,0.59765625 -0.292969,0 -0.574219,-0.1640625 -0.574219,-0.421875 0,-0.1640625 0.105469,-0.62109372 1.289062,-0.66796872 z m 2.452149,-0.41015627 c 0,-0.46875 0.257812,-0.9140625 0.738281,-0.9257812 -0.01172,0.011719 -0.07031,0.070312 -0.07031,0.1757812 0,0.1875 0.140625,0.2578125 0.246093,0.2578125 0.128907,0 0.257813,-0.082031 0.257813,-0.2578125 0,-0.1875 -0.1875,-0.3398437 -0.445313,-0.3398437 -0.246093,0 -0.574218,0.1289062 -0.761718,0.5507812 h -0.01172 v -0.5507812 l -0.796875,0.058594 v 0.2226563 c 0.375,0 0.421875,0.023437 0.421875,0.2695312 v 1.23046877 c 0,0.15234375 0,0.19921875 -0.328125,0.19921875 h -0.09375 V 2.96875e-4 c 0.210937,-0.011718755 0.433594,-0.023437505 0.644531,-0.023437505 0.257813,0 0.503906,0.01171875 0.714844,0.023437505 V -0.22235938 h -0.140625 c -0.375,0 -0.375,-0.046875 -0.375,-0.19921875 z m 2.698242,-2.34375 -0.84375,0.058594 v 0.2109375 c 0.375,0 0.421875,0.035156 0.421875,0.28125 V 2.96875e-4 h 0.199219 c 0.04687,-0.070312505 0.08203,-0.128906255 0.117187,-0.199218755 0.01172,-0.0351563 0.03516,-0.0703125 0.05859,-0.09375 0.210938,0.22265625 0.515625,0.3515625 0.832031,0.3515625 0.75,0 1.371094,-0.515625 1.371094,-1.13671872 0,-0.5976563 -0.550781,-1.125 -1.3125,-1.125 -0.269531,0 -0.574219,0.070312 -0.84375,0.28125 z m 0.01172,1.7929688 c 0.175781,-0.2460938 0.503906,-0.375 0.796875,-0.375 0.597656,0 0.84375,0.4335937 0.84375,0.9609375 0,0.29296872 -0.05859,0.55078122 -0.257813,0.72656247 -0.152343,0.15234375 -0.398437,0.24609375 -0.644531,0.24609375 -0.339844,0 -0.597656,-0.19921875 -0.738281,-0.421875 z m 3.770508,-1.40625 c 0,-0.1640625 -0.140625,-0.3046875 -0.304688,-0.3046875 -0.164062,0 -0.304687,0.1171875 -0.304687,0.3046875 0,0.1757812 0.140625,0.3046875 0.304687,0.3046875 0.164063,0 0.304688,-0.140625 0.304688,-0.3046875 z m -0.832032,0.9257812 v 0.2226563 c 0.351563,0 0.398438,0.023437 0.398438,0.2695312 v 1.23046877 c 0,0.15234375 0,0.19921875 -0.328125,0.19921875 h -0.09375 V 2.96875e-4 c 0.210937,-0.011718755 0.421875,-0.023437505 0.621094,-0.023437505 0.1875,0 0.410156,0.01171875 0.597656,0.023437505 V -0.22235938 c -0.339844,0 -0.375,0 -0.375,-0.19921875 V -2.2028281 Z m 2.803711,0.2226563 h 0.878907 V -2.1442344 H 45.37682 v -0.9140625 h -0.210937 c -0.01172,0.46875 -0.257813,0.9492188 -0.761719,0.9609375 v 0.1757813 h 0.527344 v 1.28906247 c 0,0.57421875 0.46875,0.69140625 0.773437,0.69140625 0.375,0 0.65625,-0.28125 0.65625,-0.69140625 v -0.26953125 h -0.210937 v 0.2578125 c 0,0.375 -0.222656,0.515625 -0.398438,0.515625 -0.375,0 -0.375,-0.3984375 -0.375,-0.50390625 z m 2.686524,0.8085937 c 0,-0.46875 0.257812,-0.9140625 0.738281,-0.9257812 -0.01172,0.011719 -0.07031,0.070312 -0.07031,0.1757812 0,0.1875 0.140625,0.2578125 0.246093,0.2578125 0.128907,0 0.257813,-0.082031 0.257813,-0.2578125 0,-0.1875 -0.1875,-0.3398437 -0.445313,-0.3398437 -0.246093,0 -0.574218,0.1289062 -0.761718,0.5507812 h -0.01172 v -0.5507812 l -0.796875,0.058594 v 0.2226563 c 0.375,0 0.421875,0.023437 0.421875,0.2695312 v 1.23046877 c 0,0.15234375 0,0.19921875 -0.328125,0.19921875 h -0.09375 V 2.96875e-4 c 0.210937,-0.011718755 0.433594,-0.023437505 0.644531,-0.023437505 0.257813,0 0.503906,0.01171875 0.714844,0.023437505 V -0.22235938 h -0.140625 c -0.375,0 -0.375,-0.046875 -0.375,-0.19921875 z m 4.081054,-0.3632812 c 0,-0.4804688 -0.503906,-0.75 -1.113281,-0.75 -0.304687,0 -0.890625,0.011719 -0.890625,0.4335937 0,0.1875 0.140625,0.2695313 0.269531,0.2695313 0.128907,0 0.257813,-0.09375 0.257813,-0.2695313 0,-0.1171875 -0.05859,-0.1875 -0.105469,-0.2226562 0.164063,-0.046875 0.398438,-0.046875 0.457031,-0.046875 0.421875,0 0.679688,0.234375 0.679688,0.5859375 v 0.1289062 c -0.480469,0.023437 -0.75,0.046875 -1.125,0.1757813 -0.328125,0.1171875 -0.621094,0.32812497 -0.621094,0.64453122 0,0.46875 0.574219,0.5859375 0.972656,0.5859375 0.386719,0 0.679688,-0.1640625 0.84375,-0.41015625 0.01172,0.17578125 0.128907,0.38671875 0.386719,0.38671875 0.03516,0 0.597656,0 0.597656,-0.48046875 v -0.28125 h -0.210937 v 0.26953125 c 0,0.046875 0,0.26953125 -0.199219,0.26953125 -0.199219,0 -0.199219,-0.22265625 -0.199219,-0.26953125 z m -0.445312,0.77343747 c 0,0.5390625 -0.597656,0.59765625 -0.714844,0.59765625 -0.292969,0 -0.574219,-0.1640625 -0.574219,-0.421875 0,-0.1640625 0.105469,-0.62109372 1.289063,-0.66796872 z M 55.22936,-1.9332969 c 0.234375,-0.1523437 0.457032,-0.1523437 0.539063,-0.1640625 -0.01172,0.023437 -0.04687,0.058594 -0.04687,0.1289063 0,0.09375 0.07031,0.1757812 0.1875,0.1757812 0.117187,0 0.1875,-0.082031 0.1875,-0.1757812 0,-0.1289063 -0.105469,-0.2929688 -0.339844,-0.2929688 -0.128906,0 -0.386719,0.035156 -0.65625,0.234375 -0.105469,-0.070312 -0.339844,-0.1757812 -0.644531,-0.1757812 -0.585938,0 -0.996094,0.3515625 -0.996094,0.7382812 0,0.2460938 0.1875,0.4335938 0.257813,0.49218752 -0.117188,0.140625 -0.152344,0.29296875 -0.152344,0.41015625 0,0.2578125 0.175781,0.421875 0.222656,0.45703125 -0.257812,0.0703125 -0.539062,0.22265625 -0.539062,0.4921875 0,0.38671875 0.65625,0.64453128 1.382812,0.64453128 0.65625,0 1.371094,-0.22265628 1.371094,-0.65625003 0,-0.22265625 -0.128906,-0.46875 -0.375,-0.5859375 -0.328125,-0.15234375 -0.644531,-0.15234375 -1.183594,-0.15234375 -0.117187,0 -0.339844,0 -0.363281,-0.0117188 -0.246094,-0.0351563 -0.292969,-0.234375 -0.292969,-0.328125 0,-0.09375 0.04687,-0.17578125 0.05859,-0.17578125 0.01172,0 0.02344,0 0.03516,0.0117188 0.199219,0.10546875 0.398438,0.12890625 0.574219,0.12890625 0.585937,0 0.996094,-0.35156252 0.996094,-0.72656252 0,-0.2460937 -0.164063,-0.421875 -0.222657,-0.46875 z m -0.773437,1.03125002 c -0.433594,0 -0.5625,-0.29296872 -0.5625,-0.56250002 0,-0.28125 0.128906,-0.5742187 0.5625,-0.5742187 0.433594,0 0.550781,0.2929687 0.550781,0.5742187 0,0.2695313 -0.117187,0.56250002 -0.550781,0.56250002 z m 0,0.9140625 c 0.503906,0 1.207031,0 1.207031,0.375 0,0.24609375 -0.445312,0.48046875 -1.03125,0.48046875 -0.574219,0 -1.042969,-0.22265625 -1.042969,-0.4921875 0,-0.15234375 0.175782,-0.36328125 0.550782,-0.36328125 z m 4.447266,-1.13671872 c 0.105468,0 0.140625,0 0.140625,-0.1171875 0,-0.328125 -0.175782,-0.984375 -1.101563,-0.984375 -0.761719,0 -1.289062,0.5390625 -1.289062,1.125 0,0.63281247 0.597656,1.16015622 1.359375,1.16015622 0.796875,0 1.03125,-0.5625 1.03125,-0.65625 0,-0.0820313 -0.07031,-0.0820313 -0.09375,-0.0820313 -0.08203,0 -0.09375,0.0234375 -0.117188,0.09375 -0.140625,0.33984375 -0.515625,0.45703125 -0.785156,0.45703125 -0.410156,0 -0.632813,-0.22265625 -0.703125,-0.3046875 -0.199219,-0.234375 -0.199219,-0.55078125 -0.199219,-0.69140627 z m -1.746094,-0.1523438 c 0.05859,-0.65625 0.539062,-0.7851562 0.773437,-0.7851562 0.691407,0 0.726563,0.6445312 0.738282,0.7851562 z m 0,0"
       style="fill:#000000;fill-opacity:1;fill-rule:nonzero;stroke:none"
       aria-label="Wholesalearbitrage"
       transform="matrix(1.3333333,0,0,1.3333333,355.11867,125.53867)" />
    <path
       id="path8"
       d="m 2.9869063,-1.5944063 c 0,-0.3632812 0,-1.7226562 -1.2890625,-1.7226562 -1.3007813,0 -1.3007813,1.359375 -1.3007813,1.7226562 0,0.3632813 0,1.6992188 1.3007813,1.6992188 1.2890625,0 1.2890625,-1.3359375 1.2890625,-1.6992188 z M 1.6978438,-0.05925 c -0.1875,0 -0.609375,-0.05859375 -0.7382813,-0.5625 C 0.90096875,-0.89128125 0.88925,-1.2428438 0.88925,-1.653 c 0,-0.375 0,-0.7148438 0.0820313,-0.9960938 C 1.1001875,-3.0709688 1.4751875,-3.153 1.6978438,-3.153 c 0.3632812,0 0.6210937,0.1875 0.7265625,0.5390625 0.070312,0.2578125 0.070312,0.6679687 0.070312,0.9609375 0,0.3398437 0,0.73828125 -0.070312,1.04296875 C 2.2955,-0.1295625 1.8970625,-0.05925 1.6978438,-0.05925 Z m 0,0"
       style="fill:#000000;fill-opacity:1;fill-rule:nonzero;stroke:none"
       aria-label="0"
       transform="matrix(1.3333333,0,0,1.3333333,20.189333,112.704)" />
    <path
       id="path9"
       d="m 1.9790938,-3.1647344 c 0,-0.1523437 -0.011719,-0.1523437 -0.1757813,-0.1523437 C 1.45175,-3.0006719 0.90096875,-3.0006719 0.7955,-3.0006719 H 0.7134687 v 0.2226563 H 0.7955 c 0.1171875,0 0.4335938,-0.011719 0.7265625,-0.140625 v 2.48437497 c 0,0.1640625 0,0.2109375 -0.52734375,0.2109375 H 0.748625 V -6.71875e-4 C 1.0181563,-0.02410938 1.4634688,-0.02410938 1.7564375,-0.02410938 c 0.28125,0 0.7265625,0 0.9960938,0.023437505 V -0.22332813 H 2.5064375 c -0.5273437,0 -0.5273437,-0.046875 -0.5273437,-0.2109375 z m 0,0"
       style="fill:#000000;fill-opacity:1;fill-rule:nonzero;stroke:none"
       aria-label="1"
       transform="matrix(1.3333333,0,0,1.3333333,20.189333,92.649333)" />
    <path
       id="path10"
       d="M 2.9283125,-0.95969531 H 2.717375 c -0.011719,0.09375 -0.058594,0.3984375 -0.140625,0.45703125 -0.035156,0.0234375 -0.4570312,0.0234375 -0.5273437,0.0234375 h -0.984375 c 0.328125,-0.24609375 0.703125,-0.515625 0.9960937,-0.71484374 0.4570313,-0.3164063 0.8671875,-0.5976563 0.8671875,-1.125 0,-0.6445313 -0.5976562,-0.9960938 -1.3125,-0.9960938 -0.66796875,0 -1.16015625,0.3867188 -1.16015625,0.8789063 0,0.2578125 0.2109375,0.3046875 0.28125,0.3046875 0.140625,0 0.29296875,-0.09375 0.29296875,-0.2929688 0,-0.1875 -0.12890625,-0.28125 -0.28125,-0.2929687 0.140625,-0.234375 0.4335938,-0.375 0.7617188,-0.375 0.4804687,0 0.890625,0.28125 0.890625,0.7734375 0,0.421875 -0.2929688,0.7382812 -0.6796875,1.0546875 L 0.51425,-0.23313281 c -0.046875,0.046875 -0.0585938,0.046875 -0.0585938,0.0820313 v 0.1523437 H 2.76425 Z m 0,0"
       style="fill:#000000;fill-opacity:1;fill-rule:nonzero;stroke:none"
       aria-label="2"
       transform="matrix(1.3333333,0,0,1.3333333,20.189333,72.596)" />
    <path
       id="path11"
       d="m 1.63925,-1.6511172 c 0.4570313,0 0.7617188,0.2929688 0.7617188,0.78515626 0,0.50390625 -0.3046875,0.7734375 -0.75,0.7734375 -0.058594,0 -0.65625005,0 -0.9023438,-0.2578125 0.19921875,-0.0351563 0.2578125,-0.1875 0.2578125,-0.3046875 0,-0.1875 -0.140625,-0.3046875 -0.3046875,-0.3046875 -0.15234375,0 -0.3046875,0.10546875 -0.3046875,0.31640625 0,0.515625 0.5859375,0.75 1.265625,0.75 0.8203125,0 1.3242188,-0.4921875 1.3242188,-0.97265625 0,-0.41015626 -0.3632813,-0.76171876 -0.9257813,-0.89062496 0.5976563,-0.1875 0.75,-0.5625 0.75,-0.84375 0,-0.4101563 -0.5039062,-0.7148438 -1.1367187,-0.7148438 -0.609375,0 -1.10156255,0.2578125 -1.10156255,0.703125 0,0.234375 0.1875,0.2929688 0.28125,0.2929688 0.140625,0 0.28125005,-0.1054688 0.28125005,-0.28125 0,-0.1171875 -0.058594,-0.2578125 -0.23437505,-0.28125 0.21093755,-0.234375 0.65625005,-0.2460938 0.76171875,-0.2460938 0.3632813,0 0.6210938,0.1875 0.6210938,0.5273438 0,0.28125 -0.1875,0.7382812 -0.7148438,0.7734375 -0.140625,0 -0.1523437,0 -0.28125,0.011719 -0.058594,0 -0.1171875,0.011719 -0.1171875,0.082031 0,0.082031 0.058594,0.082031 0.140625,0.082031 z m 0,0"
       style="fill:#000000;fill-opacity:1;fill-rule:nonzero;stroke:none"
       aria-label="3"
       transform="matrix(1.3333333,0,0,1.3333333,20.189333,52.541333)" />
    <path
       id="path12"
       d="M 3.0689375,-0.80838281 V -1.0310391 H 2.4478438 v -2.1914062 c 0,-0.1171875 0,-0.1523438 -0.1289063,-0.1523438 -0.1054687,0 -0.1054687,0.011719 -0.1640625,0.082031 l -1.83984375,2.2617187 v 0.22265629 H 1.967375 v 0.38671875 c 0,0.15234375 0,0.19921875 -0.4335937,0.19921875 H 1.358 V 2.109375e-4 C 1.592375,-0.01150781 1.9205,-0.02322656 2.2134688,-0.02322656 c 0.28125,0 0.609375,0.01171875 0.84375,0.0234374975 V -0.22244531 H 2.8814375 c -0.4335937,0 -0.4335937,-0.046875 -0.4335937,-0.19921875 V -0.80838281 Z M 2.01425,-2.8357266 v 1.8046875 H 0.54940625 Z m 0,0"
       style="fill:#000000;fill-opacity:1;fill-rule:nonzero;stroke:none"
       aria-label="4"
       transform="matrix(1.3333333,0,0,1.3333333,20.189333,32.488)" />
    <path
       id="path13"
       d="m 0.97128125,-2.7419922 c 0.26953125,0.058594 0.49218755,0.058594 0.55078125,0.058594 0.3398438,0 0.5859375,-0.09375 0.7148438,-0.1640625 0.1171875,-0.058594 0.4570312,-0.2695313 0.4570312,-0.3867188 0,-0.070312 -0.058594,-0.082031 -0.070312,-0.082031 -0.011719,0 -0.023437,0 -0.070312,0.023437 -0.1992187,0.070312 -0.5039062,0.140625 -0.8320312,0.140625 -0.28125,0 -0.5625,-0.058594 -0.82031255,-0.140625 -0.0585938,-0.023437 -0.0703125,-0.023437 -0.0703125,-0.023437 -0.0703125,0 -0.0703125,0.058594 -0.0703125,0.140625 v 1.4882812 c 0,0.09375 0,0.1523438 0.09375,0.1523438 0.046875,0 0.0585938,-0.011719 0.10546875,-0.058594 0.1875,-0.2226562 0.4453125,-0.328125 0.7851563,-0.328125 0.2929687,0 0.4453125,0.1640625 0.515625,0.2695313 0.1171875,0.1640625 0.140625,0.3867187 0.140625,0.6328125 0,0.21093746 -0.011719,0.49218746 -0.2109375,0.67968746 -0.2226563,0.234375 -0.5039063,0.24609375 -0.6210938,0.24609375 -0.3164062,0 -0.6796875,-0.140625 -0.84375,-0.43359375 0.2109375,-0.0117188 0.28125,-0.1640625 0.28125,-0.28125 0,-0.15234375 -0.1171875,-0.28124996 -0.28125,-0.28124996 -0.10546875,0 -0.26953125,0.070312 -0.26953125,0.29296871 0,0.4921875 0.46875,0.90234375 1.12500005,0.90234375 0.7382812,0 1.3476562,-0.4921875 1.3476562,-1.11328126 0,-0.5625 -0.4804687,-1.0898437 -1.171875,-1.0898437 -0.3164062,0 -0.5625,0.082031 -0.78515625,0.2460937 z m 0,0"
       style="fill:#000000;fill-opacity:1;fill-rule:nonzero;stroke:none"
       aria-label="5"
       transform="matrix(1.3333333,0,0,1.3333333,20.189333,12.433333)" />
    <path
       id="path14"
       d="M -28.3468,0 H 28.34683 V 70.69193 H -28.3468 Z"
       style="fill:#b3b3ff;fill-opacity:1;fill-rule:nonzero;stroke:#0000ff;stroke-width:0.3985;stroke-linecap:butt;stroke-linejoin:miter;stroke-miterlimit:10;stroke-dasharray:none;stroke-opacity:1"
       transform="matrix(1.3333333,0,0,-1.3333333,62.613333,110.564)"
       clip-path="url(#clipPath15)" />
    <path
       id="path16"
       d="m 96.18626,0 h 56.69363 V 37.60208 H 96.18626 Z m 124.5331,0 h 56.69363 v 30.08167 h -56.69363 z"
       style="fill:#ffb3b3;fill-opacity:1;fill-rule:nonzero;stroke:#ff0000;stroke-width:0.3985;stroke-linecap:butt;stroke-linejoin:miter;stroke-miterlimit:10;stroke-dasharray:none;stroke-opacity:1"
       transform="matrix(1.3333333,0,0,-1.3333333,62.613333,110.564)"
       clip-path="url(#clipPath17)" />
    <g
       id="g17"
       aria-label="4.7"
       transform="matrix(1.3333333,0,0,1.3333333,56.570667,10.288)">
      <path
         id="path18"
         d="M 3.0700469,-0.80779688 V -1.0304531 H 2.4489531 v -2.1914063 c 0,-0.1171875 0,-0.1523437 -0.1289062,-0.1523437 -0.1054688,0 -0.1054688,0.011719 -0.1640625,0.082031 l -1.83984377,2.2617188 v 0.22265622 H 1.9684844 v 0.38671875 c 0,0.15234375 0,0.19921875 -0.4335938,0.19921875 H 1.3591094 V 7.96875e-4 c 0.234375,-0.011718755 0.5625,-0.023437505 0.8554687,-0.023437505 0.28125,0 0.609375,0.01171875 0.84375,0.023437505 V -0.22185938 H 2.8825469 c -0.4335938,0 -0.4335938,-0.046875 -0.4335938,-0.19921875 V -0.80779688 Z M 2.0153594,-2.8351406 v 1.8046875 H 0.55051563 Z m 0,0"
         style="fill:#0000ff;fill-opacity:1;fill-rule:nonzero;stroke:none" />
      <path
         id="path19"
         d="m 4.8307891,-0.30389063 c 0,-0.1640625 -0.140625,-0.3046875 -0.3046875,-0.3046875 -0.1640625,0 -0.3046875,0.140625 -0.3046875,0.3046875 0,0.1640625 0.140625,0.304687505 0.3046875,0.304687505 0.1640625,0 0.3046875,-0.140625005 0.3046875,-0.304687505 z m 0,0"
         style="fill:#0000ff;fill-opacity:1;fill-rule:nonzero;stroke:none" />
      <path
         id="path20"
         d="m 8.7887969,-2.9874844 c 0.035156,-0.046875 0.035156,-0.058594 0.046875,-0.082031 v -0.140625 H 7.6286406 c -0.1289062,0 -0.8554687,-0.011719 -0.9492187,-0.035156 -0.1054688,-0.023437 -0.1171875,-0.070312 -0.1289063,-0.1171875 H 6.3395781 l -0.1875,1.1132813 h 0.2109375 c 0.011719,-0.070312 0.070312,-0.3984375 0.1523438,-0.4453125 0.023437,-0.023437 0.4921875,-0.035156 0.5742187,-0.035156 h 1.1835938 c -0.2109375,0.2460938 -0.4804688,0.515625 -0.6796875,0.7617188 -0.5859375,0.75 -0.65625,1.46484372 -0.65625,1.76953122 0,0.28125 0.1640625,0.3046875 0.2578125,0.3046875 0.2695312,0 0.2695312,-0.24609375 0.2695312,-0.3046875 v -0.10546875 c 0,-0.89062497 0.1875,-1.42968747 0.4804688,-1.75781247 z m 0,0"
         style="fill:#0000ff;fill-opacity:1;fill-rule:nonzero;stroke:none" />
    </g>
    <g
       id="g20"
       aria-label="2.5"
       transform="matrix(1.3333333,0,0,1.3333333,222.61333,54.406667)">
      <path
         id="path21"
         d="M 2.9296484,-0.96125 H 2.7187109 c -0.011719,0.09375 -0.058594,0.3984375 -0.140625,0.45703125 -0.035156,0.0234375 -0.4570312,0.0234375 -0.5273437,0.0234375 h -0.984375 c 0.328125,-0.24609375 0.703125,-0.515625 0.9960937,-0.71484375 0.4570313,-0.3164063 0.8671875,-0.5976563 0.8671875,-1.125 0,-0.6445313 -0.5976562,-0.9960938 -1.3125,-0.9960938 -0.66796871,0 -1.16015621,0.3867188 -1.16015621,0.8789063 0,0.2578125 0.2109375,0.3046875 0.28125,0.3046875 0.140625,0 0.29296871,-0.09375 0.29296871,-0.2929688 0,-0.1875 -0.12890621,-0.28125 -0.28124996,-0.2929687 0.140625,-0.234375 0.43359376,-0.375 0.76171876,-0.375 0.4804687,0 0.890625,0.28125 0.890625,0.7734375 0,0.421875 -0.2929688,0.7382812 -0.6796875,1.0546875 l -1.20703126,1.03125 c -0.046875,0.046875 -0.0585938,0.046875 -0.0585938,0.0820313 V -3.125e-4 H 2.7655859 Z m 0,0"
         style="fill:#ff0000;fill-opacity:1;fill-rule:nonzero;stroke:none" />
      <path
         id="path22"
         d="m 4.8310156,-0.305 c 0,-0.1640625 -0.140625,-0.3046875 -0.3046875,-0.3046875 -0.1640625,0 -0.3046875,0.140625 -0.3046875,0.3046875 0,0.1640625 0.140625,0.3046875 0.3046875,0.3046875 0.1640625,0 0.3046875,-0.140625 0.3046875,-0.3046875 z m 0,0"
         style="fill:#ff0000;fill-opacity:1;fill-rule:nonzero;stroke:none" />
      <path
         id="path23"
         d="m 6.6444922,-2.7425 c 0.2695312,0.058594 0.4921875,0.058594 0.5507812,0.058594 0.3398438,0 0.5859375,-0.09375 0.7148438,-0.1640625 0.1171875,-0.058594 0.4570312,-0.2695312 0.4570312,-0.3867187 0,-0.070312 -0.058594,-0.082031 -0.070312,-0.082031 -0.011719,0 -0.023437,0 -0.070312,0.023437 -0.1992187,0.070312 -0.5039062,0.140625 -0.8320312,0.140625 -0.28125,0 -0.5625,-0.058594 -0.8203125,-0.140625 -0.058594,-0.023437 -0.070312,-0.023437 -0.070312,-0.023437 -0.070312,0 -0.070312,0.058594 -0.070312,0.140625 v 1.4882813 c 0,0.09375 0,0.1523437 0.09375,0.1523437 0.046875,0 0.058594,-0.011719 0.1054687,-0.058594 0.1875,-0.2226563 0.4453125,-0.328125 0.7851563,-0.328125 0.2929687,0 0.4453125,0.1640625 0.515625,0.2695312 0.1171875,0.1640625 0.140625,0.3867188 0.140625,0.6328125 0,0.21093755 -0.011719,0.49218755 -0.2109375,0.67968755 -0.2226563,0.234375 -0.5039063,0.24609375 -0.6210938,0.24609375 -0.3164062,0 -0.6796875,-0.140625 -0.84375,-0.43359375 0.2109375,-0.0117188 0.28125,-0.1640625 0.28125,-0.28125 0,-0.15234375 -0.1171875,-0.28125005 -0.28125,-0.28125005 -0.1054687,0 -0.2695312,0.070312 -0.2695312,0.2929688 0,0.4921875 0.46875,0.90234375 1.125,0.90234375 0.7382812,0 1.3476562,-0.4921875 1.3476562,-1.11328125 0,-0.5625 -0.4804687,-1.0898438 -1.171875,-1.0898438 -0.3164062,0 -0.5625,0.082031 -0.7851562,0.2460938 z m 0,0"
         style="fill:#ff0000;fill-opacity:1;fill-rule:nonzero;stroke:none" />
    </g>
    <g
       id="g23"
       aria-label="2.0"
       transform="matrix(1.3333333,0,0,1.3333333,388.65467,64.434667)">
      <path
         id="path24"
         d="M 2.930875,-0.96174219 H 2.7199375 c -0.011719,0.09375 -0.058594,0.3984375 -0.140625,0.45703125 -0.035156,0.0234375 -0.4570312,0.0234375 -0.5273437,0.0234375 h -0.984375 c 0.328125,-0.24609375 0.703125,-0.515625 0.9960937,-0.71484376 0.4570313,-0.3164062 0.8671875,-0.5976562 0.8671875,-1.125 0,-0.6445312 -0.5976562,-0.9960937 -1.3125,-0.9960937 -0.66796875,0 -1.16015625,0.3867187 -1.16015625,0.8789062 0,0.2578125 0.2109375,0.3046875 0.28125,0.3046875 0.140625,0 0.29296875,-0.09375 0.29296875,-0.2929687 0,-0.1875 -0.12890625,-0.28125 -0.28125,-0.2929688 0.140625,-0.234375 0.4335938,-0.375 0.7617188,-0.375 0.4804687,0 0.890625,0.28125 0.890625,0.7734375 0,0.421875 -0.2929688,0.7382813 -0.6796875,1.0546875 l -1.2070313,1.03125001 c -0.046875,0.046875 -0.0585938,0.046875 -0.0585938,0.0820313 v 0.1523437025 h 2.3085938 z m 0,0"
         style="fill:#ff0000;fill-opacity:1;fill-rule:nonzero;stroke:none" />
      <path
         id="path25"
         d="m 4.8322422,-0.30549219 c 0,-0.1640625 -0.140625,-0.3046875 -0.3046875,-0.3046875 -0.1640625,0 -0.3046875,0.140625 -0.3046875,0.3046875 0,0.1640625 0.140625,0.3046875025 0.3046875,0.3046875025 0.1640625,0 0.3046875,-0.1406250025 0.3046875,-0.3046875025 z m 0,0"
         style="fill:#ff0000;fill-opacity:1;fill-rule:nonzero;stroke:none" />
      <path
         id="path26"
         d="m 8.6613438,-1.5945547 c 0,-0.3632812 0,-1.7226562 -1.2890625,-1.7226562 -1.3007813,0 -1.3007813,1.359375 -1.3007813,1.7226562 0,0.3632813 0,1.69921876 1.3007813,1.69921876 1.2890625,0 1.2890625,-1.33593746 1.2890625,-1.69921876 z m -1.2890625,1.53515626 c -0.1875,0 -0.609375,-0.05859375 -0.7382813,-0.5625 C 6.575406,-0.89142969 6.563688,-1.2429922 6.563688,-1.6531484 c 0,-0.375 0,-0.7148438 0.082031,-0.9960938 0.1289062,-0.421875 0.5039062,-0.5039062 0.7265625,-0.5039062 0.3632812,0 0.6210937,0.1875 0.7265625,0.5390625 0.070312,0.2578125 0.070312,0.6679687 0.070312,0.9609375 0,0.3398437 0,0.73828121 -0.070312,1.04296871 -0.1289065,0.48046875 -0.527344,0.55078125 -0.7265627,0.55078125 z m 0,0"
         style="fill:#ff0000;fill-opacity:1;fill-rule:nonzero;stroke:none" />
    </g>
    <path
       id="path27"
       d="m 3.0709141,-3.3743828 c 0,-0.082031 0,-0.140625 -0.082031,-0.140625 -0.023437,0 -0.046875,0 -0.09375,0.070312 l -0.1992187,0.2929687 c -0.234375,-0.2226562 -0.5390625,-0.3632812 -0.9960938,-0.3632812 -0.70312499,0 -1.21874999,0.4453125 -1.21874999,0.9492187 0,0.2695313 0.15234375,0.4921875 0.3046875,0.6210938 0.25781249,0.2109375 0.50390629,0.2578125 0.73828129,0.3046875 0.09375,0.023437 0.75,0.1523437 0.7851562,0.1523437 0.328125,0.082031 0.6328125,0.328125 0.6328125,0.66796879 0,0.3515625 -0.3515625,0.71484375 -0.9257812,0.71484375 -0.2226563,0 -0.6445313,-0.0351563 -0.9492188,-0.234375 -0.23437499,-0.1640625 -0.36328124,-0.38671875 -0.37499999,-0.67968754 0,-0.082031 0,-0.1054687 -0.10546875,-0.1054687 -0.10546875,0 -0.10546875,0.035156 -0.10546875,0.14062499 v 0.94921875 c 0,0.09375 0,0.140625 0.0820313,0.140625 0.046875,0 0.0585938,-0.01171875 0.09375,-0.05859375 0.0234375,-0.0234375 0.1875,-0.26953125 0.1875,-0.28125 0.37499999,0.28125 0.83203119,0.33984375 1.17187499,0.33984375 0.75,0 1.2304687,-0.4921875 1.2304687,-1.0078125 0,-0.37500004 -0.2226562,-0.59765624 -0.3164062,-0.67968754 -0.234375,-0.2226562 -0.5039063,-0.28125 -0.9140625,-0.3515625 -0.28125,-0.058594 -0.5625,-0.1171875 -0.6210938,-0.1289062 -0.1992187,-0.035156 -0.60937494,-0.2226563 -0.60937494,-0.5976563 0,-0.328125 0.37499994,-0.6445312 0.91406244,-0.6445312 0.890625,0 1.1015625,0.5859375 1.1601563,0.9492187 0.011719,0.070312 0.035156,0.082031 0.1054687,0.082031 0.1054688,0 0.1054688,-0.035156 0.1054688,-0.140625 z m 3.2666015,1.8984375 c 0,-0.4804688 -0.5039062,-0.75 -1.1132812,-0.75 -0.3046875,0 -0.890625,0.011719 -0.890625,0.4335937 0,0.1875 0.140625,0.2695313 0.2695312,0.2695313 0.1289063,0 0.2578125,-0.09375 0.2578125,-0.2695313 0,-0.1171875 -0.058594,-0.1875 -0.1054687,-0.2226562 0.1640625,-0.046875 0.3984375,-0.046875 0.4570312,-0.046875 0.421875,0 0.6796875,0.234375 0.6796875,0.5859375 v 0.1289062 c -0.4804687,0.023437 -0.75,0.046875 -1.125,0.1757813 -0.328125,0.1171875 -0.6210937,0.32812499 -0.6210937,0.64453124 0,0.46875 0.5742187,0.5859375 0.9726562,0.5859375 0.3867188,0 0.6796875,-0.1640625 0.84375,-0.41015625 0.011719,0.17578125 0.1289063,0.38671875 0.3867188,0.38671875 0.035156,0 0.5976562,0 0.5976562,-0.48046875 v -0.28125 H 6.7359531 v 0.26953125 c 0,0.046875 0,0.26953125 -0.1992187,0.26953125 -0.1992188,0 -0.1992188,-0.22265625 -0.1992188,-0.26953125 z m -0.4453125,0.77343749 c 0,0.5390625 -0.5976562,0.59765625 -0.7148437,0.59765625 -0.2929688,0 -0.5742188,-0.1640625 -0.5742188,-0.421875 0,-0.1640625 0.1054688,-0.62109374 1.2890625,-0.66796874 z M 9.7066563,-1.6282891 C 9.7886875,-1.7923516 9.9175938,-1.9212578 10.234,-1.9212578 v -0.2226563 c -0.128906,0.011719 -0.2578125,0.023437 -0.4335937,0.023437 -0.011719,0 -0.328125,-0.011719 -0.515625,-0.023437 v 0.2226563 c 0.140625,0 0.2226562,0.058594 0.2226562,0.1757812 0,0.046875 -0.023437,0.09375 -0.023437,0.09375 L 8.8511875,-0.40953906 8.1715,-1.7454766 c -0.011719,-0.011719 -0.023437,-0.046875 -0.023437,-0.082031 0,-0.09375 0.1640625,-0.09375 0.2695313,-0.09375 v -0.2226563 c -0.234375,0.011719 -0.5976563,0.023437 -0.6328125,0.023437 -0.1992188,0 -0.3398438,0 -0.5507813,-0.023437 v 0.2226563 c 0.2929688,0 0.3632813,0 0.4453125,0.140625 l 0.8789063,1.72265624 c 0.035156,0.0703125 0.058594,0.1171875 0.1757812,0.1171875 0.1171875,0 0.140625,-0.0585937525 0.1757813,-0.1171875 z m 2.0742187,-1.4414062 c 0,-0.1640625 -0.140625,-0.3046875 -0.304687,-0.3046875 -0.164063,0 -0.304688,0.1171875 -0.304688,0.3046875 0,0.1757812 0.140625,0.3046875 0.304688,0.3046875 0.164062,0 0.304687,-0.140625 0.304687,-0.3046875 z m -0.832031,0.9257812 v 0.2226563 c 0.351562,0 0.398437,0.023437 0.398437,0.2695312 v 1.23046879 c 0,0.15234375 0,0.19921875 -0.328125,0.19921875 h -0.09375 V 6.171875e-4 C 11.136344,-0.01110156 11.347281,-0.02282031 11.5465,-0.02282031 c 0.1875,0 0.410156,0.01171875 0.597656,0.0234374975 V -0.22203906 c -0.339843,0 -0.375,0 -0.375,-0.19921875 V -2.2025078 Z m 4.561523,0.6445313 c 0,-0.5507813 -0.375,-0.703125 -0.832031,-0.703125 -0.539063,0 -0.820313,0.2929687 -0.925781,0.4921875 v -0.4921875 l -0.820313,0.058594 v 0.2226563 c 0.363281,0 0.410156,0.023437 0.410156,0.2695312 v 1.23046879 c 0,0.15234375 0,0.19921875 -0.316406,0.19921875 h -0.09375 V 6.171875e-4 C 13.14318,-0.01110156 13.354117,-0.02282031 13.565055,-0.02282031 c 0.210937,0 0.421875,0.01171875 0.632812,0.0234374975 V -0.22203906 h -0.08203 c -0.328125,0 -0.328125,-0.046875 -0.328125,-0.19921875 V -1.2884453 c 0,-0.5625 0.515625,-0.75 0.832031,-0.75 0.363281,0 0.445313,0.2109375 0.445313,0.5273437 v 1.08984379 c 0,0.15234375 0,0.19921875 -0.316407,0.19921875 h -0.09375 V 6.171875e-4 C 14.865836,-0.01110156 15.076773,-0.02282031 15.287711,-0.02282031 c 0.210937,0 0.421875,0.01171875 0.632812,0.0234374975 V -0.22203906 h -0.08203 c -0.328125,0 -0.328125,-0.046875 -0.328125,-0.19921875 z m 3.043946,-0.4335938 c 0.234375,-0.1523437 0.457031,-0.1523437 0.539062,-0.1640625 -0.01172,0.023437 -0.04687,0.058594 -0.04687,0.1289063 0,0.09375 0.07031,0.1757812 0.1875,0.1757812 0.117188,0 0.1875,-0.082031 0.1875,-0.1757812 0,-0.1289063 -0.105469,-0.2929688 -0.339844,-0.2929688 -0.128906,0 -0.386718,0.035156 -0.65625,0.234375 -0.105468,-0.070312 -0.339843,-0.1757812 -0.644531,-0.1757812 -0.585937,0 -0.996094,0.3515625 -0.996094,0.7382812 0,0.2460938 0.1875,0.4335938 0.257813,0.49218754 -0.117188,0.140625 -0.152344,0.29296875 -0.152344,0.41015625 0,0.2578125 0.175781,0.421875 0.222656,0.45703125 -0.257812,0.0703125 -0.539062,0.22265625 -0.539062,0.4921875 0,0.38671875 0.65625,0.64453126 1.382812,0.64453126 0.65625,0 1.371094,-0.22265626 1.371094,-0.65625001 0,-0.22265625 -0.128906,-0.46875 -0.375,-0.5859375 -0.328125,-0.15234375 -0.644531,-0.15234375 -1.183594,-0.15234375 -0.117187,0 -0.339843,0 -0.363281,-0.0117188 -0.246094,-0.0351563 -0.292969,-0.234375 -0.292969,-0.328125 0,-0.09375 0.04687,-0.17578125 0.05859,-0.17578125 0.01172,0 0.02344,0 0.03516,0.0117188 0.199219,0.10546875 0.398438,0.12890625 0.574219,0.12890625 0.585938,0 0.996094,-0.35156254 0.996094,-0.72656254 0,-0.2460937 -0.164063,-0.421875 -0.222656,-0.46875 z m -0.773438,1.03125004 c -0.433594,0 -0.5625,-0.29296874 -0.5625,-0.56250004 0,-0.28125 0.128906,-0.5742187 0.5625,-0.5742187 0.433594,0 0.550781,0.2929687 0.550781,0.5742187 0,0.2695313 -0.117187,0.56250004 -0.550781,0.56250004 z m 0,0.9140625 c 0.503906,0 1.207031,0 1.207031,0.375 0,0.24609375 -0.445312,0.48046875 -1.03125,0.48046875 -0.574218,0 -1.042968,-0.22265625 -1.042968,-0.4921875 0,-0.15234375 0.175781,-0.36328125 0.550781,-0.36328125 z m 4.092773,-2.10937504 c 0,-0.082031 0,-0.1289062 -0.08203,-0.1289062 -0.02344,0 -0.04687,0 -0.08203,0.035156 -0.02344,0.011719 -0.105469,0.09375 -0.128906,0.09375 -0.01172,0 -0.01172,0 -0.04687,-0.023437 -0.117188,-0.058594 -0.292969,-0.1054687 -0.550782,-0.1054687 -0.820312,0 -0.984375,0.375 -0.984375,0.5976562 0,0.46875 0.574219,0.5625 1.03125,0.63281254 0.292969,0.046875 0.75,0.1171875 0.75,0.45703125 0,0.17578125 -0.140625,0.43359375 -0.75,0.43359375 -0.339843,0 -0.667968,-0.12890625 -0.820312,-0.65625 -0.02344,-0.09375 -0.02344,-0.10546875 -0.105469,-0.10546875 -0.105469,0 -0.105469,0.0351563 -0.105469,0.140625 v 0.64453125 c 0,0.0820312475 0,0.140625 0.08203,0.140625 0.03516,0 0.03516,-0.01171875 0.128906,-0.10546875 l 0.140625,-0.1171875 c 0.246094,0.2109375 0.5625,0.22265625 0.679687,0.22265625 0.832032,0 0.996094,-0.43359375 0.996094,-0.69140625 0,-0.22265625 -0.117187,-0.38671879 -0.316406,-0.50390629 -0.199219,-0.1289062 -0.339844,-0.140625 -0.761719,-0.2109375 -0.316406,-0.046875 -0.703125,-0.1054687 -0.703125,-0.375 0,-0.1757812 0.199219,-0.3632812 0.738281,-0.3632812 0.410157,0 0.65625,0.1640625 0.679688,0.515625 0.01172,0.070312 0.01172,0.1054687 0.105469,0.1054687 0.105468,0 0.105468,-0.035156 0.105468,-0.140625 z m 5.050782,-1.5234375 c 0,0 0.02344,-0.023437 0.02344,-0.046875 0,-0.023437 -0.01172,-0.070312 -0.09375,-0.070312 -0.09375,0 -1.371094,0.796875 -1.371094,2.4960938 0,1.68749999 1.277344,2.484375 1.371094,2.484375 0.08203,0 0.09375,-0.046875 0.09375,-0.070312 0,-0.035156 -0.02344,-0.046875 -0.04687,-0.058594 -0.878906,-0.70312496 -1.042969,-1.71093746 -1.042969,-2.3554687 0,-1.21875 0.574219,-2.0273438 1.066407,-2.3789063 z m 5.487304,2.89453129 c 0,-0.57421879 -0.375,-0.99609379 -0.832031,-0.99609379 -0.46875,0 -0.902344,0.421875 -0.902344,0.99609379 0,0.59765625 0.445313,1.0078125 0.902344,1.0078125 0.46875,0 0.832031,-0.4453125 0.832031,-1.0078125 z m -0.820312,0.84375 c -0.175781,0 -0.316406,-0.1171875025 -0.398438,-0.2578125 -0.105468,-0.1875 -0.105468,-0.43359375 -0.105468,-0.5859375 0,-0.10546875 0,-0.36328129 0.09375,-0.55078129 0.07031,-0.140625 0.210937,-0.28125 0.410156,-0.28125 0.304687,0 0.609375,0.328125 0.609375,0.83203129 0,0.4921875 -0.292969,0.84375 -0.609375,0.84375 z m 0.234375,-3.59765629 c 0.04687,-0.035156 0.05859,-0.070312 0.05859,-0.1171875 0,-0.070312 -0.05859,-0.140625 -0.140625,-0.140625 -0.05859,0 -0.08203,0.023437 -0.140625,0.09375 -0.328125,0.3515625 -0.726563,0.46875 -1.125,0.46875 -0.292969,0 -0.726563,-0.070312 -1.207032,-0.3984375 -0.105468,-0.070312 -0.234375,-0.1640625 -0.445312,-0.1640625 -0.480469,0 -0.914063,0.4335938 -0.914063,1.0078125 0,0.5859375 0.445313,1.0078125 0.914063,1.0078125 0.457031,0 0.820312,-0.4453125 0.820312,-1.0078125 0,-0.2695312 -0.09375,-0.4804687 -0.105468,-0.4921875 0.1875,0.082031 0.550781,0.2109375 0.9375,0.2109375 0.234375,0 0.46875,-0.035156 0.691406,-0.1289062 v 0.011719 l -2.671875,3.15234379 c -0.03516,0.046875 -0.05859,0.0703125 -0.05859,0.1171875 0,0.0703125 0.05859,0.140625 0.140625,0.140625 0.05859,0 0.08203,-0.0234375 0.117188,-0.0820313 z m -3,1.5820313 c -0.175781,0 -0.316406,-0.1171875 -0.398438,-0.2578125 -0.105468,-0.1757813 -0.105468,-0.421875 -0.105468,-0.5742188 0,-0.1171875 0,-0.3632812 0.09375,-0.5625 0.07031,-0.1289062 0.210937,-0.28125 0.410156,-0.28125 0.316406,0 0.609375,0.3515625 0.609375,0.84375 0,0.5039063 -0.304688,0.8320313 -0.609375,0.8320313 z m 6.014648,0.65625 c 0,-1.6875 -1.277343,-2.4960938 -1.382812,-2.4960938 -0.07031,0 -0.07031,0.058594 -0.07031,0.070312 0,0.011719 0,0.035156 0.02344,0.070312 0.75,0.5859375 1.042969,1.453125 1.042969,2.3554688 0,0.44531249 -0.08203,0.91406249 -0.246094,1.32421874 -0.246094,0.5625 -0.550781,0.84375 -0.796875,1.04296876 -0.01172,0 -0.02344,0.035156 -0.02344,0.046875 0,0.011719 0,0.070312 0.07031,0.070312 0.105469,0 1.382812,-0.79687501 1.382812,-2.484375 z m 0,0"
       style="fill:#000000;fill-opacity:1;fill-rule:nonzero;stroke:none"
       aria-label="Savings(%)"
       transform="matrix(0,-1.3333333,1.3333333,0,9.4093333,79.145333)" />
    <path
       id="path28"
       d="m 209.57845,55.5927 h 58.21764 v 25.27779 h -58.21764 z"
       style="fill:#ffffff;fill-opacity:1;fill-rule:nonzero;stroke:#000000;stroke-width:0.3985;stroke-linecap:butt;stroke-linejoin:miter;stroke-miterlimit:10;stroke-dasharray:none;stroke-opacity:1"
       transform="matrix(1.3333333,0,0,-1.3333333,62.613333,110.564)" />
    <path
       id="path29"
       d="m -1.49442,-1.99252 h 2.98883 v 7.97023 h -2.98883 z m 5.97767,0 h 2.98883 v 5.9777 H 4.48325 Z"
       style="fill:#b3b3ff;fill-opacity:1;fill-rule:nonzero;stroke:#0000ff;stroke-width:0.3985;stroke-linecap:butt;stroke-linejoin:miter;stroke-miterlimit:10;stroke-dasharray:none;stroke-opacity:1"
       transform="matrix(1.3333333,0,0,-1.3333333,348.29067,13.630667)" />
    <path
       id="path30"
       d="m 4.2771797,-0.95988281 c 0,-0.16406249 0,-0.19921879 0.3398437,-0.19921879 h 0.09375 v -0.2226562 c -0.2929687,0.011719 -0.609375,0.023437 -0.75,0.023437 -0.2695312,0 -0.7382812,0 -0.984375,-0.023437 v 0.2226562 h 0.2460938 c 0.5273437,0 0.5273437,0.046875 0.5273437,0.19921879 v 0.31640625 c 0,0.1171875 0,0.31640625 -0.3398437,0.4453125 -0.2460938,0.09375 -0.5507813,0.09375 -0.6210938,0.09375 -0.8320312,0 -1.7226562,-0.45703125 -1.7226562,-1.59375004 0,-1.1953125 0.9257812,-1.59375 1.6523437,-1.59375 0.4453125,0 1.1835938,0.2460938 1.3359375,1.171875 0.011719,0.058594 0.070312,0.058594 0.1171875,0.058594 0.1054688,0 0.1054688,-0.035156 0.1054688,-0.140625 v -1.171875 c 0,-0.082031 0,-0.140625 -0.082031,-0.140625 -0.046875,0 -0.058594,0.023437 -0.09375,0.058594 L 3.80843,-3.0692573 c -0.234375,-0.1875 -0.5976563,-0.4453125 -1.1835938,-0.4453125 -1.1953125,0 -2.14453121,0.8320312 -2.14453121,1.8164062 0,0.93750004 0.89062501,1.80468754 2.17968751,1.80468754 0.1875,0 0.4453125,0 0.703125,-0.0703125 0.3632812,-0.10546875 0.4921875,-0.28125 0.515625,-0.3046875 0.1171875,0.15234375 0.2929687,0.26953125 0.328125,0.26953125 0.070312,0 0.070312,-0.0703125 0.070312,-0.140625 z M 6.3660469,-1.1122266 c 0,-0.46875 0.2578125,-0.9140625 0.7382812,-0.9257812 -0.011719,0.011719 -0.070312,0.070312 -0.070312,0.1757812 0,0.1875 0.140625,0.2578125 0.2460938,0.2578125 0.1289062,0 0.2578125,-0.082031 0.2578125,-0.2578125 0,-0.1875 -0.1875,-0.3398437 -0.4453125,-0.3398437 -0.2460938,0 -0.5742188,0.1289062 -0.7617188,0.5507812 h -0.011719 v -0.5507812 l -0.796875,0.058594 V -1.92082 c 0.375,0 0.421875,0.023437 0.421875,0.2695312 v 1.23046879 c 0,0.15234375 0,0.19921875 -0.328125,0.19921875 h -0.09375 v 0.22265625 c 0.2109375,-0.01171875 0.4335937,-0.0234375 0.6445312,-0.0234375 0.2578125,0 0.5039063,0.01171875 0.7148438,0.0234375 v -0.22265625 h -0.140625 c -0.375,0 -0.375,-0.046875 -0.375,-0.19921875 z m 2.7451172,-1.9570312 c 0,-0.1640625 -0.140625,-0.3046875 -0.3046875,-0.3046875 -0.1640625,0 -0.3046875,0.1171875 -0.3046875,0.3046875 0,0.1757812 0.140625,0.3046875 0.3046875,0.3046875 0.1640625,0 0.3046875,-0.140625 0.3046875,-0.3046875 z m -0.8320313,0.9257812 v 0.2226563 c 0.3515625,0 0.3984375,0.023437 0.3984375,0.2695312 v 1.23046879 c 0,0.15234375 0,0.19921875 -0.328125,0.19921875 h -0.09375 v 0.22265625 c 0.2109375,-0.01171875 0.421875,-0.0234375 0.6210938,-0.0234375 0.1875,0 0.4101562,0.01171875 0.5976562,0.0234375 v -0.22265625 c -0.3398437,0 -0.375,0 -0.375,-0.19921875 V -2.2020703 Z m 3.6708982,-1.2539062 v 0.2109375 c 0.375,0 0.421875,0.035156 0.421875,0.28125 v 0.9726562 c -0.117187,-0.09375 -0.386719,-0.2695312 -0.796875,-0.2695312 -0.75,0 -1.359375,0.5039062 -1.359375,1.1367187 0,0.59765629 0.5625,1.12500004 1.300781,1.12500004 0.410157,0 0.691407,-0.1875 0.832032,-0.3046875 v 0.3046875 l 0.855468,-0.05859375 v -0.22265625 c -0.363281,0 -0.410156,-0.0351562 -0.410156,-0.28125 V -3.4559766 Z m 0.398438,2.85937499 c -0.234375,0.36328125 -0.609375,0.43359375 -0.796875,0.43359375 -0.257813,0 -0.503907,-0.10546875 -0.667969,-0.328125 -0.164063,-0.19921875 -0.175781,-0.48046875 -0.175781,-0.63281254 0,-0.140625 0.01172,-0.46875 0.222656,-0.6914062 0.175781,-0.1875 0.433594,-0.28125 0.679687,-0.28125 0.140625,0 0.503907,0.035156 0.738282,0.375 z m 6.345703,-1.08984379 c 0.08203,-0.1640625 0.210937,-0.2929687 0.527344,-0.2929687 v -0.2226563 c -0.128907,0.011719 -0.257813,0.023437 -0.433594,0.023437 -0.01172,0 -0.328125,-0.011719 -0.515625,-0.023437 v 0.2226563 c 0.140625,0 0.222656,0.058594 0.222656,0.1757812 0,0.046875 -0.02344,0.09375 -0.02344,0.09375 L 17.8387,-0.40910156 17.159013,-1.7450391 c -0.01172,-0.011719 -0.02344,-0.046875 -0.02344,-0.082031 0,-0.09375 0.164063,-0.09375 0.269531,-0.09375 v -0.2226563 c -0.234375,0.011719 -0.597656,0.023437 -0.632812,0.023437 -0.199219,0 -0.339844,0 -0.550781,-0.023437 v 0.2226563 c 0.292968,0 0.363281,0 0.445312,0.140625 l 0.878906,1.72265624 c 0.03516,0.0703125 0.05859,0.1171875 0.175782,0.1171875 0.117187,0 0.140625,-0.05859375 0.175781,-0.1171875 z m 3.067383,0.1523438 c 0,-0.4804688 -0.503907,-0.75 -1.113282,-0.75 -0.304687,0 -0.890625,0.011719 -0.890625,0.4335937 0,0.1875 0.140625,0.2695313 0.269532,0.2695313 0.128906,0 0.257812,-0.09375 0.257812,-0.2695313 0,-0.1171875 -0.05859,-0.1875 -0.105469,-0.2226562 0.164063,-0.046875 0.398438,-0.046875 0.457032,-0.046875 0.421875,0 0.679687,0.234375 0.679687,0.5859375 v 0.1289062 c -0.480469,0.023437 -0.75,0.046875 -1.125,0.1757813 -0.328125,0.1171875 -0.621094,0.32812499 -0.621094,0.64453124 0,0.46875 0.574219,0.5859375 0.972657,0.5859375 0.386718,0 0.679687,-0.1640625 0.84375,-0.41015625 0.01172,0.17578125 0.128906,0.38671875 0.386718,0.38671875 0.03516,0 0.597657,0 0.597657,-0.48046875 v -0.28125 h -0.210938 v 0.26953125 c 0,0.046875 0,0.26953125 -0.199219,0.26953125 -0.199218,0 -0.199218,-0.22265625 -0.199218,-0.26953125 z m -0.445313,0.77343749 c 0,0.5390625 -0.597656,0.59765625 -0.714844,0.59765625 -0.292968,0 -0.574218,-0.1640625 -0.574218,-0.421875 0,-0.1640625 0.105468,-0.62109374 1.289062,-0.66796874 z m 2.487305,-2.75390629 -0.84375,0.058594 v 0.2109375 c 0.375,0 0.421875,0.035156 0.421875,0.28125 v 2.48437499 c 0,0.15234375 0,0.19921875 -0.328125,0.19921875 h -0.09375 v 0.22265625 c 0.210937,-0.01171875 0.421875,-0.0234375 0.621094,-0.0234375 0.210937,0 0.421875,0.01171875 0.632812,0.0234375 v -0.22265625 h -0.09375 c -0.316406,0 -0.316406,-0.046875 -0.316406,-0.19921875 z m 2.885742,1.3125 v 0.2226563 c 0.363281,0 0.410156,0.023437 0.410156,0.2695312 v 0.82031254 c 0,0.45703125 -0.339843,0.7265625 -0.75,0.7265625 -0.503906,0 -0.527343,-0.2109375 -0.527343,-0.45703125 V -2.2020703 l -0.855469,0.058594 V -1.92082 c 0.386719,0 0.410156,0.035156 0.410156,0.2929687 v 1.07812504 c 0.04687,0.5625 0.609375,0.609375 0.9375,0.609375 0.410156,0 0.65625,-0.1875 0.808594,-0.421875 v 0.421875 l 0.832031,-0.05859375 v -0.22265625 c -0.363281,0 -0.410156,-0.0351562 -0.410156,-0.28125 V -2.2020703 Z m 4.180664,1.0195313 c 0.105469,0 0.140625,0 0.140625,-0.1171875 0,-0.328125 -0.175781,-0.984375 -1.101562,-0.984375 -0.761719,0 -1.289063,0.5390625 -1.289063,1.125 0,0.63281249 0.597656,1.16015624 1.359375,1.16015624 0.796875,0 1.03125,-0.5625 1.03125,-0.65625 0,-0.0820313 -0.07031,-0.0820313 -0.09375,-0.0820313 -0.08203,0 -0.09375,0.0234375 -0.117187,0.09375 -0.140625,0.33984375 -0.515625,0.45703125 -0.785157,0.45703125 -0.410156,0 -0.632812,-0.22265625 -0.703125,-0.3046875 -0.199218,-0.234375 -0.199218,-0.55078125 -0.199218,-0.69140619 z m -1.746094,-0.1523438 c 0.05859,-0.65625 0.539063,-0.7851562 0.773438,-0.7851562 0.691406,0 0.726562,0.6445312 0.738281,0.7851562 z m 0,0"
       style="fill:#000000;fill-opacity:1;fill-rule:nonzero;stroke:none"
       aria-label="Gridvalue"
       transform="matrix(1.3333333,0,0,1.3333333,361.176,14.94)" />
    <path
       id="path31"
       d="m -1.49442,-1.99252 h 2.98883 v 7.97023 h -2.98883 z m 5.97767,0 h 2.98883 v 5.9777 H 4.48325 Z"
       style="fill:#ffb3b3;fill-opacity:1;fill-rule:nonzero;stroke:#ff0000;stroke-width:0.3985;stroke-linecap:butt;stroke-linejoin:miter;stroke-miterlimit:10;stroke-dasharray:none;stroke-opacity:1"
       transform="matrix(1.3333333,0,0,-1.3333333,348.29067,27.825333)" />
    <path
       id="path32"
       d="M 1.6170234,-3.2807109 C 1.5584297,-3.3978984 1.5115547,-3.3978984 1.4060859,-3.3978984 H 0.44514844 v 0.2109375 h 0.15234375 c 0.3984375,0 0.3984375,0.058594 0.3984375,0.2109375 v 2.42578121 c 0,0.12890625 0,0.328125 -0.55078125,0.328125 V 5.390625e-4 C 0.66780469,-0.01117969 0.89046094,-0.02289844 1.1131172,-0.02289844 c 0.140625,0 0.4570312,0.01171875 0.6679687,0.0234375025 V -0.22211719 c -0.5507812,0 -0.5507812,-0.19921875 -0.5507812,-0.328125 V -3.1518047 l 1.4414062,3.03515626 c 0.046875,0.08203125 0.082031,0.1171875025 0.1523438,0.1171875025 0.09375,0 0.1289062,-0.0703125025 0.1523437,-0.1171875025 L 4.4529609,-3.1869609 v 2.76562496 c 0,0.15234375 0,0.19921875 -0.3984375,0.19921875 H 3.9021797 V 5.390625e-4 C 4.1248359,-0.01117969 4.4178047,-0.02289844 4.6873359,-0.02289844 c 0.2695313,0 0.5507813,0.01171875 0.7851563,0.0234375025 V -0.22211719 H 5.3201484 c -0.3984375,0 -0.3984375,-0.046875 -0.3984375,-0.19921875 V -2.9760234 c 0,-0.1523438 0,-0.2109375 0.3984375,-0.2109375 H 5.4724922 V -3.3978984 H 4.5115547 c -0.1054688,0 -0.1523438,0 -0.2109375,0.1054687 l -1.3476563,2.82421876 z m 6.9082032,1.8046875 c 0,-0.4804688 -0.5039063,-0.75 -1.1132813,-0.75 -0.3046875,0 -0.890625,0.011719 -0.890625,0.4335937 0,0.1875 0.140625,0.2695313 0.2695313,0.2695313 0.1289062,0 0.2578125,-0.09375 0.2578125,-0.2695313 0,-0.1171875 -0.058594,-0.1875 -0.1054688,-0.2226562 0.1640625,-0.046875 0.3984375,-0.046875 0.4570313,-0.046875 0.421875,0 0.6796875,0.234375 0.6796875,0.5859375 v 0.1289062 c -0.4804688,0.023437 -0.75,0.046875 -1.125,0.1757813 -0.328125,0.1171875 -0.6210938,0.32812496 -0.6210938,0.64453121 0,0.46875 0.5742188,0.5859375 0.9726563,0.5859375 0.3867187,0 0.6796875,-0.1640625 0.84375,-0.41015625 0.011719,0.17578125 0.1289062,0.38671875 0.3867187,0.38671875 0.035156,0 0.5976563,0 0.5976563,-0.48046875 v -0.28125 H 8.9236641 v 0.26953125 c 0,0.046875 0,0.26953125 -0.1992188,0.26953125 -0.1992187,0 -0.1992187,-0.22265625 -0.1992187,-0.26953125 z m -0.4453125,0.77343746 c 0,0.5390625 -0.5976563,0.59765625 -0.7148438,0.59765625 -0.2929687,0 -0.5742187,-0.1640625 -0.5742187,-0.421875 0,-0.1640625 0.1054687,-0.62109371 1.2890625,-0.66796871 z M 10.532062,-1.1127422 c 0,-0.46875 0.257813,-0.9140625 0.738282,-0.9257812 -0.01172,0.011719 -0.07031,0.070312 -0.07031,0.1757812 0,0.1875 0.140625,0.2578125 0.246094,0.2578125 0.128906,0 0.257812,-0.082031 0.257812,-0.2578125 0,-0.1875 -0.1875,-0.3398437 -0.445312,-0.3398437 -0.246094,0 -0.574219,0.1289062 -0.761719,0.5507812 h -0.01172 v -0.5507812 l -0.7968745,0.058594 v 0.2226563 c 0.3749995,0 0.4218745,0.023437 0.4218745,0.2695312 v 1.23046876 c 0,0.15234375 0,0.19921875 -0.3281245,0.19921875 h -0.09375 V 5.390625e-4 C 9.89925,-0.01117969 10.121906,-0.02289844 10.332844,-0.02289844 c 0.257812,0 0.503906,0.01171875 0.714843,0.0234375025 V -0.22211719 h -0.140625 c -0.375,0 -0.375,-0.046875 -0.375,-0.19921875 z m 3.413086,-0.234375 c 0.08203,-0.046875 0.527344,-0.3632812 0.5625,-0.375 0.328125,-0.1992187 0.585938,-0.1992187 0.679688,-0.1992187 v -0.2226563 c -0.1875,0.023437 -0.363281,0.023437 -0.421875,0.023437 -0.199219,0 -0.492188,-0.011719 -0.65625,-0.023437 v 0.2226563 c 0.07031,0 0.07031,0.058594 0.07031,0.058594 0,0.023437 0,0.09375 -0.140625,0.1992188 l -0.808593,0.5507812 v -2.34375 l -0.84375,0.058594 v 0.2109375 c 0.375,0 0.421875,0.035156 0.421875,0.28125 v 2.48437496 c 0,0.15234375 0,0.19921875 -0.328125,0.19921875 h -0.09375 V 5.390625e-4 C 12.585773,-0.01117969 12.80843,-0.02289844 13.007648,-0.02289844 c 0.199219,0 0.421875,0.01171875 0.609375,0.0234375025 V -0.22211719 h -0.08203 c -0.328125,0 -0.328125,-0.046875 -0.328125,-0.19921875 v -0.421875 l 0.410156,-0.28124996 0.5625,0.60937496 c 0.09375,0.09375 0.152344,0.15234375 0.152344,0.22265625 0,0.0703125 -0.105469,0.0703125 -0.128906,0.0703125 V 5.390625e-4 C 14.40218,-0.01117969 14.742023,-0.02289844 14.812336,-0.02289844 c 0.1875,0 0.328125,0.01171875 0.515625,0.0234375025 V -0.22211719 c -0.222656,0 -0.351563,0 -0.5625,-0.234375 z m 4.03125,0.2226563 c 0.105469,0 0.140625,0 0.140625,-0.1171875 0,-0.328125 -0.175781,-0.984375 -1.101562,-0.984375 -0.761719,0 -1.289063,0.5390625 -1.289063,1.125 0,0.63281246 0.597657,1.16015621 1.359375,1.16015621 0.796875,0 1.03125,-0.5625 1.03125,-0.65625 0,-0.0820313 -0.07031,-0.0820313 -0.09375,-0.0820313 -0.08203,0 -0.09375,0.0234375 -0.117187,0.09375 -0.140625,0.33984375 -0.515625,0.45703125 -0.785156,0.45703125 -0.410157,0 -0.632813,-0.22265625 -0.703125,-0.3046875 -0.199219,-0.234375 -0.199219,-0.55078125 -0.199219,-0.69140616 z m -1.746093,-0.1523438 c 0.05859,-0.65625 0.539062,-0.7851562 0.773437,-0.7851562 0.691406,0 0.726563,0.6445312 0.738281,0.7851562 z m 3.445312,-0.6445312 h 0.878906 V -2.1439922 H 19.675617 V -3.0580547 H 19.46468 c -0.01172,0.46875 -0.257813,0.9492188 -0.761719,0.9609375 v 0.1757813 h 0.527344 v 1.28906246 c 0,0.57421875 0.46875,0.69140625 0.773437,0.69140625 0.375,0 0.65625,-0.28125 0.65625,-0.69140625 v -0.26953125 h -0.210937 v 0.2578125 c 0,0.375 -0.222657,0.515625 -0.398438,0.515625 -0.375,0 -0.375,-0.3984375 -0.375,-0.50390625 z m 6.571289,0.2929687 c 0.08203,-0.1640625 0.210938,-0.2929687 0.527344,-0.2929687 v -0.2226563 c -0.128906,0.011719 -0.257813,0.023437 -0.433594,0.023437 -0.01172,0 -0.328125,-0.011719 -0.515625,-0.023437 v 0.2226563 c 0.140625,0 0.222656,0.058594 0.222656,0.1757812 0,0.046875 -0.02344,0.09375 -0.02344,0.09375 l -0.63281,1.24218751 -0.679687,-1.33593751 c -0.01172,-0.011719 -0.02344,-0.046875 -0.02344,-0.082031 0,-0.09375 0.164063,-0.09375 0.269532,-0.09375 V -2.143992 c -0.234375,0.011719 -0.597657,0.023437 -0.632813,0.023437 -0.199219,0 -0.339844,0 -0.550781,-0.023437 v 0.2226563 c 0.292969,0 0.363281,0 0.445312,0.140625 l 0.878907,1.72265621 c 0.03516,0.0703125 0.05859,0.1171875 0.175781,0.1171875 0.117187,0 0.140625,-0.0585937475 0.175781,-0.1171875 z m 3.067383,0.1523438 c 0,-0.4804688 -0.503906,-0.75 -1.113281,-0.75 -0.304688,0 -0.890625,0.011719 -0.890625,0.4335937 0,0.1875 0.140625,0.2695313 0.269531,0.2695313 0.128906,0 0.257813,-0.09375 0.257813,-0.2695313 0,-0.1171875 -0.05859,-0.1875 -0.105469,-0.2226562 0.164062,-0.046875 0.398437,-0.046875 0.457031,-0.046875 0.421875,0 0.679688,0.234375 0.679688,0.5859375 v 0.1289062 c -0.480469,0.023437 -0.75,0.046875 -1.125,0.1757813 -0.328125,0.1171875 -0.621094,0.32812496 -0.621094,0.64453121 0,0.46875 0.574219,0.5859375 0.972656,0.5859375 0.386719,0 0.679688,-0.1640625 0.84375,-0.41015625 0.01172,0.17578125 0.128906,0.38671875 0.386719,0.38671875 0.03516,0 0.597656,0 0.597656,-0.48046875 v -0.28125 h -0.210937 v 0.26953125 c 0,0.046875 0,0.26953125 -0.199219,0.26953125 -0.199219,0 -0.199219,-0.22265625 -0.199219,-0.26953125 z m -0.445312,0.77343746 c 0,0.5390625 -0.597657,0.59765625 -0.714844,0.59765625 -0.292969,0 -0.574219,-0.1640625 -0.574219,-0.421875 0,-0.1640625 0.105469,-0.62109371 1.289063,-0.66796871 z m 2.487304,-2.75390626 -0.84375,0.058594 v 0.2109375 c 0.375,0 0.421875,0.035156 0.421875,0.28125 v 2.48437496 c 0,0.15234375 0,0.19921875 -0.328125,0.19921875 h -0.09375 V 5.390625e-4 C 30.723469,-0.01117969 30.934406,-0.02289844 31.133625,-0.02289844 c 0.210937,0 0.421875,0.01171875 0.632812,0.0234375025 V -0.22211719 h -0.09375 c -0.316406,0 -0.316406,-0.046875 -0.316406,-0.19921875 z m 2.885742,1.3125 v 0.2226563 c 0.363282,0 0.410157,0.023437 0.410157,0.2695312 v 0.82031251 c 0,0.45703125 -0.339844,0.7265625 -0.75,0.7265625 -0.503907,0 -0.527344,-0.2109375 -0.527344,-0.45703125 V -2.2025859 l -0.855469,0.058594 v 0.2226563 c 0.386719,0 0.410156,0.035156 0.410156,0.2929687 v 1.07812501 c 0.04687,0.5625 0.609375,0.609375 0.9375,0.609375 0.410157,0 0.65625,-0.1875 0.808594,-0.421875 v 0.421875 L 35.507648,5.390625e-4 V -0.22211719 c -0.363281,0 -0.410156,-0.0351563 -0.410156,-0.28125 V -2.2025859 Z m 4.180664,1.0195313 c 0.105469,0 0.140625,0 0.140625,-0.1171875 0,-0.328125 -0.175781,-0.984375 -1.101562,-0.984375 -0.761719,0 -1.289063,0.5390625 -1.289063,1.125 0,0.63281246 0.597657,1.16015621 1.359375,1.16015621 0.796875,0 1.03125,-0.5625 1.03125,-0.65625 0,-0.0820313 -0.07031,-0.0820313 -0.09375,-0.0820313 -0.08203,0 -0.09375,0.0234375 -0.117187,0.09375 -0.140625,0.33984375 -0.515625,0.45703125 -0.785156,0.45703125 -0.410157,0 -0.632813,-0.22265625 -0.703125,-0.3046875 -0.199219,-0.234375 -0.199219,-0.55078125 -0.199219,-0.69140616 z m -1.746093,-0.1523438 c 0.05859,-0.65625 0.539062,-0.7851562 0.773437,-0.7851562 0.691406,0 0.726563,0.6445312 0.738281,0.7851562 z m 0,0"
       style="fill:#000000;fill-opacity:1;fill-rule:nonzero;stroke:none"
       aria-label="Marketvalue"
       transform="matrix(1.3333333,0,0,1.3333333,361.176,29.136)" />
  </g>
</svg>
