<?xml version="1.0" encoding="UTF-8" standalone="no"?>
<!-- Created with Inkscape (http://www.inkscape.org/) -->

<svg
   version="1.1"
   id="svg1"
   width="288.50134"
   height="142.17332"
   viewBox="0 0 288.50134 142.17332"
   sodipodi:docname="scarcity_june.svg"
   inkscape:version="1.4 (86a8ad7, 2024-10-11)"
   xmlns:inkscape="http://www.inkscape.org/namespaces/inkscape"
   xmlns:sodipodi="http://sodipodi.sourceforge.net/DTD/sodipodi-0.dtd"
   xmlns="http://www.w3.org/2000/svg"
   xmlns:svg="http://www.w3.org/2000/svg">
  <defs
     id="defs1">
    <clipPath
       clipPathUnits="userSpaceOnUse"
       id="clipPath34">
      <path
         d="M 0,0 H 181.94214 V 68.55484 H 0 Z"
         id="path34" />
    </clipPath>
    <clipPath
       clipPathUnits="userSpaceOnUse"
       id="clipPath36">
      <path
         d="M 0,0 H 181.94214 V 68.55484 H 0 Z"
         id="path36" />
    </clipPath>
    <clipPath
       clipPathUnits="userSpaceOnUse"
       id="clipPath38">
      <path
         d="M 0,0 H 181.94214 V 68.55484 H 0 Z"
         id="path38" />
    </clipPath>
    <clipPath
       clipPathUnits="userSpaceOnUse"
       id="clipPath40">
      <path
         d="M 0,0 H 181.94214 V 68.55484 H 0 Z"
         id="path40" />
    </clipPath>
  </defs>
  <sodipodi:namedview
     id="namedview1"
     pagecolor="#505050"
     bordercolor="#eeeeee"
     borderopacity="1"
     inkscape:showpageshadow="0"
     inkscape:pageopacity="0"
     inkscape:pagecheckerboard="0"
     inkscape:deskcolor="#505050"
     inkscape:zoom="5.8309108"
     inkscape:cx="144.23133"
     inkscape:cy="71.086665"
     inkscape:window-width="1920"
     inkscape:window-height="1009"
     inkscape:window-x="1912"
     inkscape:window-y="586"
     inkscape:window-maximized="1"
     inkscape:current-layer="g1">
    <inkscape:page
       x="0"
       y="0"
       inkscape:label="1"
       id="page1"
       width="288.50134"
       height="142.17332"
       margin="0"
       bleed="0" />
  </sodipodi:namedview>
  <g
     id="g1"
     inkscape:groupmode="layer"
     inkscape:label="1">
    <path
       id="path1"
       d="M 0,0 V 68.55484 M 15.16183,0 V 68.55484 M 30.32368,0 V 68.55484 M 45.48553,0 V 68.55484 M 60.64737,0 V 68.55484 M 75.80922,0 V 68.55484 M 90.97107,0 V 68.55484 M 106.1329,0 V 68.55484 M 121.29475,0 V 68.55484 M 136.4566,0 V 68.55484 M 151.61844,0 V 68.55484 M 166.78029,0 V 68.55484 M 181.94214,0 v 68.55484"
       style="fill:none;stroke:#bfbfbf;stroke-width:0.3985;stroke-linecap:butt;stroke-linejoin:miter;stroke-miterlimit:10;stroke-dasharray:none;stroke-opacity:1"
       transform="matrix(1.3333333,0,0,-1.3333333,36.966667,113.01067)" />
    <path
       id="path2"
       d="M 0,0 H 181.94214 M 0,13.71097 H 181.94214 M 0,27.42194 H 181.94214 M 0,41.1329 H 181.94214 M 0,54.84387 H 181.94214 M 0,68.55484 h 181.94214"
       style="fill:none;stroke:#bfbfbf;stroke-width:0.3985;stroke-linecap:butt;stroke-linejoin:miter;stroke-miterlimit:10;stroke-dasharray:none;stroke-opacity:1"
       transform="matrix(1.3333333,0,0,-1.3333333,36.966667,113.01067)" />
    <path
       id="path3"
       d="M 0,0 V 4.25197 M 15.16183,0 V 4.25197 M 30.32368,0 V 4.25197 M 45.48553,0 V 4.25197 M 60.64737,0 V 4.25197 M 75.80922,0 V 4.25197 M 90.97107,0 V 4.25197 M 106.1329,0 V 4.25197 M 121.29475,0 V 4.25197 M 136.4566,0 V 4.25197 M 151.61844,0 V 4.25197 M 166.78029,0 V 4.25197 M 181.94214,0 V 4.25197 M 0,68.55484 v -4.252 m 15.16183,4.252 v -4.252 m 15.16185,4.252 v -4.252 m 15.16185,4.252 v -4.252 m 15.16184,4.252 v -4.252 m 15.16185,4.252 v -4.252 m 15.16185,4.252 v -4.252 m 15.16183,4.252 v -4.252 m 15.16185,4.252 v -4.252 m 15.16185,4.252 v -4.252 m 15.16184,4.252 v -4.252 m 15.16185,4.252 v -4.252 m 15.16185,4.252 v -4.252"
       style="fill:none;stroke:#808080;stroke-width:0.19925;stroke-linecap:butt;stroke-linejoin:miter;stroke-miterlimit:10;stroke-dasharray:none;stroke-opacity:1"
       transform="matrix(1.3333333,0,0,-1.3333333,36.966667,113.01067)" />
    <path
       id="path4"
       d="M 0,0 H 4.25174 M 0,13.71097 H 4.25174 M 0,27.42194 H 4.25174 M 0,41.1329 H 4.25174 M 0,54.84387 H 4.25174 M 0,68.55484 H 4.25174 M 181.94214,0 h -4.25177 m 4.25177,13.71097 h -4.25177 m 4.25177,13.71097 h -4.25177 m 4.25177,13.71096 h -4.25177 m 4.25177,13.71097 h -4.25177 m 4.25177,13.71097 h -4.25177"
       style="fill:none;stroke:#808080;stroke-width:0.19925;stroke-linecap:butt;stroke-linejoin:miter;stroke-miterlimit:10;stroke-dasharray:none;stroke-opacity:1"
       transform="matrix(1.3333333,0,0,-1.3333333,36.966667,113.01067)" />
    <path
       id="path5"
       d="M 0,0 V 68.55484 H 181.94214 V 0 Z"
       style="fill:none;stroke:#000000;stroke-width:0.3985;stroke-linecap:butt;stroke-linejoin:miter;stroke-miterlimit:10;stroke-dasharray:none;stroke-opacity:1"
       transform="matrix(1.3333333,0,0,-1.3333333,36.966667,113.01067)" />
    <path
       id="path6"
       d="m 2.9885547,-1.5934687 c 0,-0.3632813 0,-1.7226563 -1.2890625,-1.7226563 -1.30078126,0 -1.30078126,1.359375 -1.30078126,1.7226563 0,0.3632812 0,1.6992187 1.30078126,1.6992187 1.2890625,0 1.2890625,-1.3359375 1.2890625,-1.6992187 z m -1.2890625,1.5351562 c -0.1875,0 -0.609375,-0.05859375 -0.73828126,-0.5625 -0.0585938,-0.26953125 -0.0703125,-0.6210937 -0.0703125,-1.03125 0,-0.375 0,-0.7148437 0.0820313,-0.9960937 0.12890616,-0.421875 0.50390616,-0.5039063 0.72656256,-0.5039063 0.3632812,0 0.6210937,0.1875 0.7265625,0.5390625 0.070312,0.2578125 0.070312,0.6679688 0.070312,0.9609375 0,0.3398438 0,0.73828125 -0.070312,1.04296875 C 2.2971484,-0.128625 1.8987109,-0.0583125 1.6994922,-0.0583125 Z m 0,0"
       style="fill:#000000;fill-opacity:1;fill-rule:nonzero;stroke:none"
       aria-label="0"
       transform="matrix(1.3333333,0,0,1.3333333,34.706667,121.984)" />
    <path
       id="path7"
       d="M 2.9290938,-0.96065625 H 2.7181563 c -0.011719,0.09375 -0.058594,0.3984375 -0.140625,0.45703125 C 2.542375,-0.4801875 2.1205,-0.4801875 2.0501875,-0.4801875 h -0.984375 c 0.328125,-0.24609375 0.703125,-0.515625 0.9960938,-0.7148437 0.4570312,-0.3164063 0.8671875,-0.5976563 0.8671875,-1.125 0,-0.6445313 -0.5976563,-0.9960938 -1.3125,-0.9960938 -0.6679688,0 -1.1601563,0.3867188 -1.1601563,0.8789063 0,0.2578125 0.2109375,0.3046875 0.28125,0.3046875 0.140625,0 0.2929688,-0.09375 0.2929688,-0.2929688 0,-0.1875 -0.1289063,-0.28125 -0.28125005,-0.2929687 0.140625,-0.234375 0.43359375,-0.375 0.76171875,-0.375 0.4804688,0 0.890625,0.28125 0.890625,0.7734375 0,0.421875 -0.2929687,0.7382812 -0.6796875,1.0546875 l -1.20703125,1.03124995 c -0.046875,0.046875 -0.0585938,0.046875 -0.0585938,0.0820313 V 2.8125e-4 H 2.7650312 Z m 0,0"
       style="fill:#000000;fill-opacity:1;fill-rule:nonzero;stroke:none"
       aria-label="2"
       transform="matrix(1.3333333,0,0,1.3333333,54.922667,121.984)" />
    <path
       id="path8"
       d="M 3.0698516,-0.8083125 V -1.0309687 H 2.4487578 V -3.222375 c 0,-0.1171875 0,-0.1523437 -0.1289062,-0.1523437 -0.1054688,0 -0.1054688,0.011719 -0.1640625,0.082031 l -1.83984379,2.2617188 v 0.2226562 H 1.9682891 v 0.38671875 c 0,0.15234375 0,0.19921875 -0.4335938,0.19921875 H 1.3589141 V 2.8125e-4 c 0.234375,-0.01171875 0.5625,-0.0234375 0.8554687,-0.0234375 0.28125,0 0.609375,0.01171875 0.84375,0.0234375 V -0.222375 H 2.8823516 c -0.4335938,0 -0.4335938,-0.046875 -0.4335938,-0.19921875 V -0.8083125 Z M 2.0151641,-2.8356562 v 1.8046875 H 0.55032031 Z m 0,0"
       style="fill:#000000;fill-opacity:1;fill-rule:nonzero;stroke:none"
       aria-label="4"
       transform="matrix(1.3333333,0,0,1.3333333,75.137333,121.984)" />
    <path
       id="path9"
       d="m 0.92445313,-1.628625 c 0,-0.234375 0.0117188,-0.6328125 0.18749997,-0.9492187 0.1523438,-0.2695313 0.46875,-0.5507813 0.9375,-0.5507813 0.09375,0 0.3164063,0.011719 0.46875,0.1289063 -0.082031,0.023437 -0.2109375,0.09375 -0.2109375,0.2695312 0,0.1523438 0.1171875,0.2578125 0.2578125,0.2578125 0.09375,0 0.2695313,-0.046875 0.2695313,-0.28125 0,-0.2695312 -0.1875,-0.5625 -0.796875,-0.5625 -0.8554688,0 -1.64062502,0.703125 -1.64062502,1.734375 0,1.18359375 0.5859375,1.6875 1.31250002,1.6875 0.4921875,0 0.7265625,-0.17578125 0.890625,-0.31640625 0.3164062,-0.26953125 0.3867187,-0.5625 0.3867187,-0.80859375 0,-0.3046875 -0.09375,-0.5507812 -0.3632812,-0.7734375 -0.2109375,-0.1992187 -0.4453125,-0.3398437 -0.8789063,-0.3398437 -0.28125,0 -0.609375,0.140625 -0.82031247,0.5039062 z m 0.78515627,1.53515625 c -0.77343752,0 -0.77343752,-0.83203125 -0.77343752,-1.03124995 0,-0.3867188 0.28125002,-0.8320313 0.79687502,-0.8320313 0.2578125,0 0.421875,0.058594 0.5742187,0.2578125 0.1523438,0.1875 0.1523438,0.3984375 0.1523438,0.6679688 0,0.2929687 0,0.4804687 -0.1640625,0.67968745 -0.140625,0.1640625 -0.3046875,0.2578125 -0.5859375,0.2578125 z m 0,0"
       style="fill:#000000;fill-opacity:1;fill-rule:nonzero;stroke:none"
       aria-label="6"
       transform="matrix(1.3333333,0,0,1.3333333,95.353333,121.984)" />
    <path
       id="path10"
       d="m 2.1335469,-1.7926875 c 0.515625,-0.2226562 0.6796875,-0.4804687 0.6796875,-0.7617187 0,-0.5273438 -0.5742188,-0.7617188 -1.1132813,-0.7617188 -0.6210937,0 -1.12499997,0.3515625 -1.12499997,0.84375 0,0.4570313 0.38671875,0.6679688 0.65624997,0.796875 -0.52734372,0.2109375 -0.83203122,0.5039063 -0.83203122,0.9140625 0,0.59765625 0.66796872,0.8671875 1.28906252,0.8671875 0.703125,0 1.3007812,-0.375 1.3007812,-0.9609375 0,-0.5390625 -0.515625,-0.796875 -0.8554687,-0.9375 z M 1.1608906,-2.3083125 C 0.94995313,-2.4137812 0.87964063,-2.5426875 0.87964063,-2.659875 c 0,-0.328125 0.41015627,-0.46875 0.80859377,-0.46875 0.3984375,0 0.8203125,0.1992188 0.8203125,0.5742188 0,0.4335937 -0.5742188,0.6445312 -0.5742188,0.6445312 -0.011719,0 -0.011719,0 -0.058594,-0.023437 z m 0.28125,0.75 0.7734375,0.3867188 c 0.1757813,0.09375 0.4335938,0.23437495 0.4335938,0.5039062 0,0.3984375 -0.5039063,0.57421875 -0.9492188,0.57421875 -0.4570312,0 -0.96093747,-0.22265625 -0.96093747,-0.6796875 0,-0.49218745 0.53906247,-0.72656245 0.70312497,-0.78515625 z m 0,0"
       style="fill:#000000;fill-opacity:1;fill-rule:nonzero;stroke:none"
       aria-label="8"
       transform="matrix(1.3333333,0,0,1.3333333,115.56933,121.984)" />
    <path
       id="path11"
       d="m 1.9800469,-3.1637812 c 0,-0.1523438 -0.011719,-0.1523438 -0.1757813,-0.1523438 -0.3515625,0.3164063 -0.90234373,0.3164063 -1.00781248,0.3164063 h -0.0820313 v 0.2226562 h 0.0820313 c 0.1171875,0 0.43359378,-0.011719 0.72656248,-0.140625 v 2.484375 c 0,0.1640625 0,0.2109375 -0.52734373,0.2109375 H 0.74957812 V 2.8125e-4 c 0.26953128,-0.0234375 0.71484378,-0.0234375 1.00781248,-0.0234375 0.28125,0 0.7265625,0 0.9960938,0.0234375 V -0.222375 H 2.5073906 c -0.5273437,0 -0.5273437,-0.046875 -0.5273437,-0.2109375 z m 4.3974609,1.5703125 c 0,-0.3632813 0,-1.7226563 -1.2890625,-1.7226563 -1.3007812,0 -1.3007812,1.359375 -1.3007812,1.7226563 0,0.3632812 0,1.6992187 1.3007812,1.6992187 1.2890625,0 1.2890625,-1.3359375 1.2890625,-1.6992187 z m -1.2890625,1.5351562 c -0.1875,0 -0.609375,-0.05859375 -0.7382812,-0.5625 -0.058594,-0.26953125 -0.070312,-0.6210937 -0.070312,-1.03125 0,-0.375 0,-0.7148437 0.082031,-0.9960937 0.1289063,-0.421875 0.5039063,-0.5039063 0.7265625,-0.5039063 0.3632813,0 0.6210938,0.1875 0.7265625,0.5390625 0.070312,0.2578125 0.070312,0.6679688 0.070312,0.9609375 0,0.3398438 0,0.73828125 -0.070312,1.04296875 C 5.6861016,-0.128625 5.2876641,-0.0583125 5.0884453,-0.0583125 Z m 0,0"
       style="fill:#000000;fill-opacity:1;fill-rule:nonzero;stroke:none"
       aria-label="10"
       transform="matrix(1.3333333,0,0,1.3333333,133.524,121.984)" />
    <path
       id="path12"
       d="m 1.9791797,-3.1637812 c 0,-0.1523438 -0.011719,-0.1523438 -0.1757813,-0.1523438 -0.3515625,0.3164063 -0.90234371,0.3164063 -1.00781246,0.3164063 h -0.0820313 v 0.2226562 h 0.0820313 c 0.1171875,0 0.43359376,-0.011719 0.72656246,-0.140625 v 2.484375 c 0,0.1640625 0,0.2109375 -0.52734371,0.2109375 H 0.74871094 V 2.8125e-4 c 0.26953126,-0.0234375 0.71484376,-0.0234375 1.00781246,-0.0234375 0.28125,0 0.7265625,0 0.9960938,0.0234375 V -0.222375 H 2.5065234 c -0.5273437,0 -0.5273437,-0.046875 -0.5273437,-0.2109375 z m 4.3417969,2.20312495 H 6.1100391 c -0.011719,0.09375 -0.058594,0.3984375 -0.140625,0.45703125 -0.035156,0.0234375 -0.4570313,0.0234375 -0.5273438,0.0234375 h -0.984375 c 0.328125,-0.24609375 0.703125,-0.515625 0.9960938,-0.7148437 0.4570312,-0.3164063 0.8671875,-0.5976563 0.8671875,-1.125 0,-0.6445313 -0.5976563,-0.9960938 -1.3125,-0.9960938 -0.6679688,0 -1.1601563,0.3867188 -1.1601563,0.8789063 0,0.2578125 0.2109375,0.3046875 0.28125,0.3046875 0.140625,0 0.2929688,-0.09375 0.2929688,-0.2929688 0,-0.1875 -0.1289063,-0.28125 -0.28125,-0.2929687 0.140625,-0.234375 0.4335937,-0.375 0.7617187,-0.375 0.4804688,0 0.890625,0.28125 0.890625,0.7734375 0,0.421875 -0.2929687,0.7382812 -0.6796875,1.0546875 l -1.2070312,1.03124995 c -0.046875,0.046875 -0.058594,0.046875 -0.058594,0.0820313 v 0.1523437 h 2.3085938 z m 0,0"
       style="fill:#000000;fill-opacity:1;fill-rule:nonzero;stroke:none"
       aria-label="12"
       transform="matrix(1.3333333,0,0,1.3333333,153.74,121.984)" />
    <path
       id="path13"
       d="m 1.9812422,-3.1637812 c 0,-0.1523438 -0.011719,-0.1523438 -0.1757813,-0.1523438 -0.3515625,0.3164063 -0.90234371,0.3164063 -1.00781246,0.3164063 h -0.0820313 v 0.2226562 h 0.0820313 c 0.1171875,0 0.43359376,-0.011719 0.72656246,-0.140625 v 2.484375 c 0,0.1640625 0,0.2109375 -0.52734371,0.2109375 H 0.75077344 V 2.8125e-4 c 0.26953126,-0.0234375 0.71484376,-0.0234375 1.00781246,-0.0234375 0.28125,0 0.7265625,0 0.9960938,0.0234375 V -0.222375 H 2.5085859 c -0.5273437,0 -0.5273437,-0.046875 -0.5273437,-0.2109375 z m 4.4794922,2.3554687 V -1.0309687 H 5.8396406 V -3.222375 c 0,-0.1171875 0,-0.1523437 -0.1289062,-0.1523437 -0.1054688,0 -0.1054688,0.011719 -0.1640625,0.082031 l -1.8398438,2.2617188 v 0.2226562 h 1.6523438 v 0.38671875 c 0,0.15234375 0,0.19921875 -0.4335938,0.19921875 H 4.7497969 V 2.8125e-4 c 0.234375,-0.01171875 0.5625,-0.0234375 0.8554687,-0.0234375 0.28125,0 0.609375,0.01171875 0.84375,0.0234375 V -0.222375 H 6.2732344 c -0.4335938,0 -0.4335938,-0.046875 -0.4335938,-0.19921875 V -0.8083125 Z M 5.4060469,-2.8356562 v 1.8046875 H 3.9412031 Z m 0,0"
       style="fill:#000000;fill-opacity:1;fill-rule:nonzero;stroke:none"
       aria-label="14"
       transform="matrix(1.3333333,0,0,1.3333333,173.956,121.984)" />
    <path
       id="path14"
       d="M 1.981375,-3.1637812 C 1.981375,-3.316125 1.969656,-3.316125 1.8055937,-3.316125 1.4540312,-2.9997187 0.90325,-2.9997187 0.79778125,-2.9997187 H 0.71575 v 0.2226562 h 0.0820313 c 0.1171875,0 0.4335937,-0.011719 0.7265624,-0.140625 v 2.484375 c 0,0.1640625 0,0.2109375 -0.52734365,0.2109375 H 0.75090625 V 2.8125e-4 c 0.26953125,-0.0234375 0.71484375,-0.0234375 1.00781245,-0.0234375 0.28125,0 0.7265625,0 0.9960938,0.0234375 V -0.222375 H 2.5087187 c -0.5273437,0 -0.5273437,-0.046875 -0.5273437,-0.2109375 z m 2.3349609,1.5351562 c 0,-0.234375 0.011719,-0.6328125 0.1875,-0.9492187 0.1523438,-0.2695313 0.46875,-0.5507813 0.9375,-0.5507813 0.09375,0 0.3164063,0.011719 0.46875,0.1289063 -0.082031,0.023437 -0.2109375,0.09375 -0.2109375,0.2695312 0,0.1523438 0.1171875,0.2578125 0.2578125,0.2578125 0.09375,0 0.2695313,-0.046875 0.2695313,-0.28125 0,-0.2695312 -0.1875,-0.5625 -0.796875,-0.5625 -0.8554688,0 -1.640625,0.703125 -1.640625,1.734375 0,1.18359375 0.5859375,1.6875 1.3125,1.6875 0.4921875,0 0.7265625,-0.17578125 0.890625,-0.31640625 0.3164062,-0.26953125 0.3867187,-0.5625 0.3867187,-0.80859375 0,-0.3046875 -0.09375,-0.5507812 -0.3632812,-0.7734375 -0.2109375,-0.1992187 -0.4453125,-0.3398437 -0.8789063,-0.3398437 -0.28125,0 -0.609375,0.140625 -0.8203125,0.5039062 z m 0.7851563,1.53515625 c -0.7734375,0 -0.7734375,-0.83203125 -0.7734375,-1.03124995 0,-0.3867188 0.28125,-0.8320313 0.796875,-0.8320313 0.2578125,0 0.421875,0.058594 0.5742187,0.2578125 0.1523438,0.1875 0.1523438,0.3984375 0.1523438,0.6679688 0,0.2929687 0,0.4804687 -0.1640625,0.67968745 -0.140625,0.1640625 -0.3046875,0.2578125 -0.5859375,0.2578125 z m 0,0"
       style="fill:#000000;fill-opacity:1;fill-rule:nonzero;stroke:none"
       aria-label="16"
       transform="matrix(1.3333333,0,0,1.3333333,194.17067,121.984)" />
    <path
       id="path15"
       d="m 1.9805078,-3.1637812 c 0,-0.1523438 -0.011719,-0.1523438 -0.1757812,-0.1523438 -0.3515625,0.3164063 -0.90234379,0.3164063 -1.00781254,0.3164063 h -0.0820313 v 0.2226562 h 0.0820313 c 0.1171875,0 0.43359374,-0.011719 0.72656254,-0.140625 v 2.484375 c 0,0.1640625 0,0.2109375 -0.52734379,0.2109375 H 0.75003906 V 2.8125e-4 c 0.26953124,-0.0234375 0.71484374,-0.0234375 1.00781254,-0.0234375 0.28125,0 0.7265625,0 0.9960937,0.0234375 V -0.222375 H 2.5078516 c -0.5273438,0 -0.5273438,-0.046875 -0.5273438,-0.2109375 z M 5.5225,-1.7926875 c 0.515625,-0.2226562 0.6796875,-0.4804687 0.6796875,-0.7617187 0,-0.5273438 -0.5742187,-0.7617188 -1.1132812,-0.7617188 -0.6210938,0 -1.125,0.3515625 -1.125,0.84375 0,0.4570313 0.3867187,0.6679688 0.65625,0.796875 -0.5273438,0.2109375 -0.8320313,0.5039063 -0.8320313,0.9140625 0,0.59765625 0.6679688,0.8671875 1.2890625,0.8671875 0.703125,0 1.3007813,-0.375 1.3007813,-0.9609375 0,-0.5390625 -0.515625,-0.796875 -0.8554688,-0.9375 z m -0.9726562,-0.515625 c -0.2109375,-0.1054687 -0.28125,-0.234375 -0.28125,-0.3515625 0,-0.328125 0.4101562,-0.46875 0.8085937,-0.46875 0.3984375,0 0.8203125,0.1992188 0.8203125,0.5742188 0,0.4335937 -0.5742187,0.6445312 -0.5742187,0.6445312 -0.011719,0 -0.011719,0 -0.058594,-0.023437 z m 0.28125,0.75 0.7734375,0.3867188 c 0.1757812,0.09375 0.4335937,0.23437495 0.4335937,0.5039062 0,0.3984375 -0.5039062,0.57421875 -0.9492187,0.57421875 -0.4570313,0 -0.9609375,-0.22265625 -0.9609375,-0.6796875 0,-0.49218745 0.5390625,-0.72656245 0.703125,-0.78515625 z m 0,0"
       style="fill:#000000;fill-opacity:1;fill-rule:nonzero;stroke:none"
       aria-label="18"
       transform="matrix(1.3333333,0,0,1.3333333,214.38667,121.984)" />
    <path
       id="path16"
       d="M 2.9288594,-0.96065625 H 2.7179219 c -0.011719,0.09375 -0.058594,0.3984375 -0.140625,0.45703125 -0.035156,0.0234375 -0.4570313,0.0234375 -0.5273438,0.0234375 h -0.984375 c 0.328125,-0.24609375 0.703125,-0.515625 0.9960938,-0.7148437 0.4570312,-0.3164063 0.8671875,-0.5976563 0.8671875,-1.125 0,-0.6445313 -0.5976563,-0.9960938 -1.3125,-0.9960938 -0.66796877,0 -1.16015627,0.3867188 -1.16015627,0.8789063 0,0.2578125 0.2109375,0.3046875 0.28125,0.3046875 0.140625,0 0.29296877,-0.09375 0.29296877,-0.2929688 0,-0.1875 -0.12890627,-0.28125 -0.28125002,-0.2929687 0.140625,-0.234375 0.43359372,-0.375 0.76171872,-0.375 0.4804688,0 0.890625,0.28125 0.890625,0.7734375 0,0.421875 -0.2929687,0.7382812 -0.6796875,1.0546875 l -1.20703122,1.03124995 c -0.046875,0.046875 -0.0585938,0.046875 -0.0585938,0.0820313 V 2.8125e-4 H 2.7647969 Z M 6.3771016,-1.5934687 c 0,-0.3632813 0,-1.7226563 -1.2890625,-1.7226563 -1.3007813,0 -1.3007813,1.359375 -1.3007813,1.7226563 0,0.3632812 0,1.6992187 1.3007813,1.6992187 1.2890625,0 1.2890625,-1.3359375 1.2890625,-1.6992187 z m -1.2890625,1.5351562 c -0.1875,0 -0.609375,-0.05859375 -0.7382813,-0.5625 -0.058594,-0.26953125 -0.070312,-0.6210937 -0.070312,-1.03125 0,-0.375 0,-0.7148437 0.082031,-0.9960937 0.1289062,-0.421875 0.5039062,-0.5039063 0.7265625,-0.5039063 0.3632812,0 0.6210937,0.1875 0.7265625,0.5390625 0.070312,0.2578125 0.070312,0.6679688 0.070312,0.9609375 0,0.3398438 0,0.73828125 -0.070312,1.04296875 C 5.6856953,-0.128625 5.2872578,-0.0583125 5.0880391,-0.0583125 Z m 0,0"
       style="fill:#000000;fill-opacity:1;fill-rule:nonzero;stroke:none"
       aria-label="20"
       transform="matrix(1.3333333,0,0,1.3333333,234.60267,121.984)" />
    <path
       id="path17"
       d="M 2.9289922,-0.96065625 H 2.7180547 c -0.011719,0.09375 -0.058594,0.3984375 -0.140625,0.45703125 -0.035156,0.0234375 -0.4570313,0.0234375 -0.5273438,0.0234375 h -0.984375 c 0.328125,-0.24609375 0.703125,-0.515625 0.9960938,-0.7148437 0.4570312,-0.3164063 0.8671875,-0.5976563 0.8671875,-1.125 0,-0.6445313 -0.5976563,-0.9960938 -1.3125,-0.9960938 -0.66796876,0 -1.16015626,0.3867188 -1.16015626,0.8789063 0,0.2578125 0.2109375,0.3046875 0.28125,0.3046875 0.140625,0 0.29296876,-0.09375 0.29296876,-0.2929688 0,-0.1875 -0.12890626,-0.28125 -0.28125001,-0.2929687 0.140625,-0.234375 0.43359371,-0.375 0.76171871,-0.375 0.4804688,0 0.890625,0.28125 0.890625,0.7734375 0,0.421875 -0.2929687,0.7382812 -0.6796875,1.0546875 l -1.20703121,1.03124995 c -0.046875,0.046875 -0.0585938,0.046875 -0.0585938,0.0820313 V 2.8125e-4 H 2.7649297 Z m 3.3896484,0 H 6.1077031 c -0.011719,0.09375 -0.058594,0.3984375 -0.140625,0.45703125 -0.035156,0.0234375 -0.4570312,0.0234375 -0.5273437,0.0234375 h -0.984375 c 0.328125,-0.24609375 0.703125,-0.515625 0.9960937,-0.7148437 0.4570313,-0.3164063 0.8671875,-0.5976563 0.8671875,-1.125 0,-0.6445313 -0.5976562,-0.9960938 -1.3125,-0.9960938 -0.6679687,0 -1.1601562,0.3867188 -1.1601562,0.8789063 0,0.2578125 0.2109375,0.3046875 0.28125,0.3046875 0.140625,0 0.2929687,-0.09375 0.2929687,-0.2929688 0,-0.1875 -0.1289062,-0.28125 -0.28125,-0.2929687 0.140625,-0.234375 0.4335938,-0.375 0.7617188,-0.375 0.4804687,0 0.890625,0.28125 0.890625,0.7734375 0,0.421875 -0.2929688,0.7382812 -0.6796875,1.0546875 l -1.2070313,1.03124995 c -0.046875,0.046875 -0.058594,0.046875 -0.058594,0.0820313 v 0.1523437 h 2.3085937 z m 0,0"
       style="fill:#000000;fill-opacity:1;fill-rule:nonzero;stroke:none"
       aria-label="22"
       transform="matrix(1.3333333,0,0,1.3333333,254.81733,121.984)" />
    <path
       id="path18"
       d="M 2.9310547,-0.96065625 H 2.7201172 c -0.011719,0.09375 -0.058594,0.3984375 -0.140625,0.45703125 -0.035156,0.0234375 -0.4570313,0.0234375 -0.5273438,0.0234375 h -0.984375 c 0.328125,-0.24609375 0.703125,-0.515625 0.9960938,-0.7148437 0.4570312,-0.3164063 0.8671875,-0.5976563 0.8671875,-1.125 0,-0.6445313 -0.5976563,-0.9960938 -1.3125,-0.9960938 -0.66796876,0 -1.16015626,0.3867188 -1.16015626,0.8789063 0,0.2578125 0.2109375,0.3046875 0.28125,0.3046875 0.140625,0 0.29296876,-0.09375 0.29296876,-0.2929688 0,-0.1875 -0.12890626,-0.28125 -0.28125001,-0.2929687 0.140625,-0.234375 0.43359371,-0.375 0.76171871,-0.375 0.4804688,0 0.890625,0.28125 0.890625,0.7734375 0,0.421875 -0.2929687,0.7382812 -0.6796875,1.0546875 l -1.20703121,1.03124995 c -0.046875,0.046875 -0.0585937,0.046875 -0.0585937,0.0820313 V 2.8125e-4 H 2.7669922 Z M 6.4613281,-0.8083125 V -1.0309687 H 5.8402344 V -3.222375 c 0,-0.1171875 0,-0.1523437 -0.1289063,-0.1523437 -0.1054687,0 -0.1054687,0.011719 -0.1640625,0.082031 l -1.8398437,2.2617188 v 0.2226562 h 1.6523437 v 0.38671875 c 0,0.15234375 0,0.19921875 -0.4335937,0.19921875 H 4.7503906 V 2.8125e-4 c 0.234375,-0.01171875 0.5625,-0.0234375 0.8554688,-0.0234375 0.28125,0 0.609375,0.01171875 0.84375,0.0234375 V -0.222375 H 6.2738281 c -0.4335937,0 -0.4335937,-0.046875 -0.4335937,-0.19921875 V -0.8083125 Z M 5.4066406,-2.8356562 v 1.8046875 H 3.9417969 Z m 0,0"
       style="fill:#000000;fill-opacity:1;fill-rule:nonzero;stroke:none"
       aria-label="24"
       transform="matrix(1.3333333,0,0,1.3333333,275.03333,121.984)" />
    <path
       id="path19"
       d="m 2.9887109,-1.5924922 c 0,-0.3632812 0,-1.7226562 -1.2890625,-1.7226562 -1.30078121,0 -1.30078121,1.359375 -1.30078121,1.7226562 0,0.3632813 0,1.69921876 1.30078121,1.69921876 1.2890625,0 1.2890625,-1.33593746 1.2890625,-1.69921876 z m -1.2890625,1.53515626 c -0.1875,0 -0.609375,-0.05859375 -0.73828121,-0.5625 -0.0585938,-0.26953125 -0.0703125,-0.62109376 -0.0703125,-1.03124996 0,-0.375 0,-0.7148438 0.0820313,-0.9960938 0.12890631,-0.421875 0.50390631,-0.5039062 0.72656251,-0.5039062 0.3632813,0 0.6210938,0.1875 0.7265625,0.5390625 0.070312,0.2578125 0.070312,0.6679687 0.070312,0.9609375 0,0.3398437 0,0.73828121 -0.070312,1.04296871 -0.1289062,0.48046875 -0.5273437,0.55078125 -0.7265626,0.55078125 z m 0,0"
       style="fill:#000000;fill-opacity:1;fill-rule:nonzero;stroke:none"
       aria-label="0"
       transform="matrix(1.3333333,0,0,1.3333333,27.753333,115.15067)" />
    <g
       id="g19"
       aria-label="0.2"
       transform="matrix(1.3333333,0,0,1.3333333,20.189333,96.869333)">
      <path
         id="path20"
         d="m 2.9869063,-1.5924297 c 0,-0.3632812 0,-1.7226562 -1.2890625,-1.7226562 -1.3007813,0 -1.3007813,1.359375 -1.3007813,1.7226562 0,0.3632813 0,1.69921876 1.3007813,1.69921876 1.2890625,0 1.2890625,-1.33593746 1.2890625,-1.69921876 z m -1.2890625,1.53515626 c -0.1875,0 -0.609375,-0.05859375 -0.7382813,-0.5625 C 0.90096875,-0.88930469 0.88925,-1.2408672 0.88925,-1.6510234 c 0,-0.375 0,-0.7148438 0.0820313,-0.9960938 0.1289062,-0.421875 0.5039062,-0.5039062 0.7265625,-0.5039062 0.3632812,0 0.6210937,0.1875 0.7265626,0.5390625 0.070312,0.2578125 0.070312,0.6679687 0.070312,0.9609375 0,0.3398437 0,0.73828121 -0.070312,1.04296871 C 2.2955,-0.12758594 1.8970625,-0.05727344 1.6978438,-0.05727344 Z m 0,0"
         style="fill:#000000;fill-opacity:1;fill-rule:nonzero;stroke:none" />
      <path
         id="path21"
         d="m 4.8326094,-0.30336719 c 0,-0.1640625 -0.140625,-0.3046875 -0.3046875,-0.3046875 -0.1640625,0 -0.3046875,0.140625 -0.3046875,0.3046875 0,0.1640625 0.140625,0.3046875 0.3046875,0.3046875 0.1640625,0 0.3046875,-0.140625 0.3046875,-0.3046875 z m 0,0"
         style="fill:#000000;fill-opacity:1;fill-rule:nonzero;stroke:none" />
      <path
         id="path22"
         d="M 8.6031172,-0.95961719 H 8.3921797 c -0.011719,0.09375 -0.058594,0.3984375 -0.140625,0.45703125 -0.035156,0.0234375 -0.4570313,0.0234375 -0.5273438,0.0234375 h -0.984375 c 0.328125,-0.24609375 0.703125,-0.515625 0.9960938,-0.71484376 0.4570312,-0.3164062 0.8671875,-0.5976562 0.8671875,-1.125 0,-0.6445312 -0.5976563,-0.9960937 -1.3125,-0.9960937 -0.6679688,0 -1.1601563,0.3867187 -1.1601563,0.8789062 0,0.2578125 0.2109375,0.3046875 0.28125,0.3046875 0.140625,0 0.2929688,-0.09375 0.2929688,-0.2929687 0,-0.1875 -0.1289063,-0.28125 -0.28125,-0.2929688 0.140625,-0.234375 0.4335937,-0.375 0.7617187,-0.375 0.4804688,0 0.890625,0.28125 0.890625,0.7734375 0,0.421875 -0.2929687,0.7382813 -0.6796875,1.0546875 l -1.2070312,1.03125001 c -0.046875,0.046875 -0.058594,0.046875 -0.058594,0.0820313 v 0.15234375 h 2.3085938 z m 0,0"
         style="fill:#000000;fill-opacity:1;fill-rule:nonzero;stroke:none" />
    </g>
    <g
       id="g22"
       aria-label="0.4"
       transform="matrix(1.3333333,0,0,1.3333333,20.189333,78.588)">
      <path
         id="path23"
         d="m 2.9869063,-1.5923672 c 0,-0.3632812 0,-1.7226562 -1.2890625,-1.7226562 -1.3007813,0 -1.3007813,1.359375 -1.3007813,1.7226562 0,0.3632813 0,1.69921876 1.3007813,1.69921876 1.2890625,0 1.2890625,-1.33593746 1.2890625,-1.69921876 z m -1.2890625,1.53515626 c -0.1875,0 -0.609375,-0.05859375 -0.7382813,-0.5625 C 0.90096875,-0.88924219 0.88925,-1.2408047 0.88925,-1.6509609 c 0,-0.375 0,-0.7148438 0.0820313,-0.9960938 0.1289062,-0.421875 0.5039062,-0.5039062 0.7265625,-0.5039062 0.3632812,0 0.6210937,0.1875 0.7265626,0.5390625 0.070312,0.2578125 0.070312,0.6679687 0.070312,0.9609375 0,0.3398437 0,0.73828121 -0.070312,1.04296871 C 2.2955,-0.12752344 1.8970625,-0.05721094 1.6978438,-0.05721094 Z m 0,0"
         style="fill:#000000;fill-opacity:1;fill-rule:nonzero;stroke:none" />
      <path
         id="path24"
         d="m 4.8326094,-0.30330469 c 0,-0.1640625 -0.140625,-0.3046875 -0.3046875,-0.3046875 -0.1640625,0 -0.3046875,0.140625 -0.3046875,0.3046875 0,0.1640625 0.140625,0.3046875 0.3046875,0.3046875 0.1640625,0 0.3046875,-0.140625 0.3046875,-0.3046875 z m 0,0"
         style="fill:#000000;fill-opacity:1;fill-rule:nonzero;stroke:none" />
      <path
         id="path25"
         d="M 8.7437422,-0.80721094 V -1.0298672 H 8.1226484 v -2.1914062 c 0,-0.1171875 0,-0.1523438 -0.1289062,-0.1523438 -0.1054688,0 -0.1054688,0.011719 -0.1640625,0.082031 l -1.8398438,2.2617187 v 0.22265626 h 1.6523438 v 0.38671875 c 0,0.15234375 0,0.19921875 -0.4335938,0.19921875 H 7.0328047 v 0.22265625 c 0.234375,-0.01171875 0.5625,-0.0234375 0.8554687,-0.0234375 0.28125,0 0.609375,0.01171875 0.84375,0.0234375 V -0.22127344 H 8.5562422 c -0.4335938,0 -0.4335938,-0.046875 -0.4335938,-0.19921875 V -0.80721094 Z M 7.6890547,-2.8345547 v 1.8046875 H 6.2242109 Z m 0,0"
         style="fill:#000000;fill-opacity:1;fill-rule:nonzero;stroke:none" />
    </g>
    <g
       id="g25"
       aria-label="0.6"
       transform="matrix(1.3333333,0,0,1.3333333,20.189333,60.308)">
      <path
         id="path26"
         d="m 2.9869063,-1.5933047 c 0,-0.3632812 0,-1.7226562 -1.2890625,-1.7226562 -1.3007813,0 -1.3007813,1.359375 -1.3007813,1.7226562 0,0.3632813 0,1.69921876 1.3007813,1.69921876 1.2890625,0 1.2890625,-1.33593746 1.2890625,-1.69921876 z m -1.2890625,1.53515626 c -0.1875,0 -0.609375,-0.05859375 -0.7382813,-0.5625 C 0.90096875,-0.89017969 0.88925,-1.2417422 0.88925,-1.6518984 c 0,-0.375 0,-0.7148438 0.0820313,-0.9960938 0.1289062,-0.421875 0.5039062,-0.5039062 0.7265625,-0.5039062 0.3632812,0 0.6210937,0.1875 0.7265626,0.5390625 0.070312,0.2578125 0.070312,0.6679687 0.070312,0.9609375 0,0.3398437 0,0.73828121 -0.070312,1.04296871 C 2.2955,-0.12846094 1.8970625,-0.05814844 1.6978438,-0.05814844 Z m 0,0"
         style="fill:#000000;fill-opacity:1;fill-rule:nonzero;stroke:none" />
      <path
         id="path27"
         d="m 4.8326094,-0.30424219 c 0,-0.1640625 -0.140625,-0.3046875 -0.3046875,-0.3046875 -0.1640625,0 -0.3046875,0.140625 -0.3046875,0.3046875 0,0.1640625 0.140625,0.3046875025 0.3046875,0.3046875025 0.1640625,0 0.3046875,-0.1406250025 0.3046875,-0.3046875025 z m 0,0"
         style="fill:#000000;fill-opacity:1;fill-rule:nonzero;stroke:none" />
      <path
         id="path28"
         d="m 6.5992109,-1.6284609 c 0,-0.234375 0.011719,-0.6328125 0.1875,-0.9492188 0.1523438,-0.2695312 0.46875,-0.5507812 0.9375,-0.5507812 0.09375,0 0.3164063,0.011719 0.46875,0.1289062 -0.082031,0.023437 -0.2109375,0.09375 -0.2109375,0.2695313 0,0.1523437 0.1171875,0.2578125 0.2578125,0.2578125 0.09375,0 0.2695313,-0.046875 0.2695313,-0.28125 0,-0.2695313 -0.1875,-0.5625 -0.796875,-0.5625 -0.8554688,0 -1.640625,0.703125 -1.640625,1.734375 0,1.18359371 0.5859375,1.68749996 1.3125,1.68749996 0.4921875,0 0.7265625,-0.17578125 0.890625,-0.31640625 0.3164062,-0.26953125 0.3867187,-0.5625 0.3867187,-0.80859371 0,-0.3046875 -0.09375,-0.5507813 -0.3632812,-0.7734375 -0.2109375,-0.1992188 -0.4453125,-0.3398438 -0.8789063,-0.3398438 -0.28125,0 -0.609375,0.140625 -0.8203125,0.5039063 z m 0.7851563,1.53515621 c -0.7734375,0 -0.7734375,-0.83203125 -0.7734375,-1.03125001 0,-0.3867187 0.28125,-0.8320312 0.796875,-0.8320312 0.2578125,0 0.421875,0.058594 0.5742187,0.2578125 0.1523438,0.1875 0.1523438,0.3984375 0.1523438,0.6679687 0,0.29296876 0,0.48046876 -0.1640625,0.67968751 -0.140625,0.1640625 -0.3046875,0.2578125 -0.5859375,0.2578125 z m 0,0"
         style="fill:#000000;fill-opacity:1;fill-rule:nonzero;stroke:none" />
    </g>
    <g
       id="g28"
       aria-label="0.8"
       transform="matrix(1.3333333,0,0,1.3333333,20.189333,42.026667)">
      <path
         id="path29"
         d="m 2.9869063,-1.5932422 c 0,-0.3632812 0,-1.7226562 -1.2890625,-1.7226562 -1.3007813,0 -1.3007813,1.359375 -1.3007813,1.7226562 0,0.3632813 0,1.69921876 1.3007813,1.69921876 1.2890625,0 1.2890625,-1.33593746 1.2890625,-1.69921876 z m -1.2890625,1.53515626 c -0.1875,0 -0.609375,-0.05859375 -0.7382813,-0.5625 C 0.90096875,-0.89011719 0.88925,-1.2416797 0.88925,-1.6518359 c 0,-0.375 0,-0.7148438 0.0820313,-0.9960938 0.1289062,-0.421875 0.5039062,-0.5039062 0.7265625,-0.5039062 0.3632812,0 0.6210937,0.1875 0.7265626,0.5390625 0.070312,0.2578125 0.070312,0.6679687 0.070312,0.9609375 0,0.3398437 0,0.73828121 -0.070312,1.04296871 C 2.2955,-0.12839844 1.8970625,-0.05808594 1.6978438,-0.05808594 Z m 0,0"
         style="fill:#000000;fill-opacity:1;fill-rule:nonzero;stroke:none" />
      <path
         id="path30"
         d="m 4.8326094,-0.30417969 c 0,-0.1640625 -0.140625,-0.3046875 -0.3046875,-0.3046875 -0.1640625,0 -0.3046875,0.140625 -0.3046875,0.3046875 0,0.1640625 0.140625,0.3046875025 0.3046875,0.3046875025 0.1640625,0 0.3046875,-0.1406250025 0.3046875,-0.3046875025 z m 0,0"
         style="fill:#000000;fill-opacity:1;fill-rule:nonzero;stroke:none" />
      <path
         id="path31"
         d="m 7.8062422,-1.7924609 c 0.515625,-0.2226563 0.6796875,-0.4804688 0.6796875,-0.7617188 0,-0.5273437 -0.5742188,-0.7617187 -1.1132813,-0.7617187 -0.6210937,0 -1.125,0.3515625 -1.125,0.84375 0,0.4570312 0.3867188,0.6679687 0.65625,0.796875 -0.5273437,0.2109375 -0.8320312,0.5039062 -0.8320312,0.91406246 0,0.59765625 0.6679687,0.8671875 1.2890625,0.8671875 0.703125,0 1.3007812,-0.375 1.3007812,-0.9609375 0,-0.53906246 -0.515625,-0.79687496 -0.8554687,-0.93749996 z m -0.9726563,-0.515625 c -0.2109375,-0.1054688 -0.28125,-0.234375 -0.28125,-0.3515625 0,-0.328125 0.4101563,-0.46875 0.8085938,-0.46875 0.3984375,0 0.8203125,0.1992187 0.8203125,0.5742187 0,0.4335938 -0.5742188,0.6445313 -0.5742188,0.6445313 -0.011719,0 -0.011719,0 -0.058594,-0.023437 z m 0.28125,0.75 0.7734375,0.3867187 c 0.1757813,0.09375 0.4335938,0.23437501 0.4335938,0.50390626 0,0.3984375 -0.5039063,0.57421875 -0.9492188,0.57421875 -0.4570312,0 -0.9609375,-0.22265625 -0.9609375,-0.6796875 0,-0.49218751 0.5390625,-0.72656251 0.703125,-0.78515621 z m 0,0"
         style="fill:#000000;fill-opacity:1;fill-rule:nonzero;stroke:none" />
    </g>
    <path
       id="path32"
       d="m 1.9808984,-3.1634922 c 0,-0.1523437 -0.011719,-0.1523437 -0.1757812,-0.1523437 -0.3515625,0.3164062 -0.90234376,0.3164062 -1.00781251,0.3164062 h -0.0820313 v 0.2226563 h 0.0820313 c 0.1171875,0 0.43359371,-0.011719 0.72656251,-0.140625 v 2.48437496 c 0,0.1640625 0,0.2109375 -0.52734376,0.2109375 H 0.75042969 V 5.703125e-4 C 1.0199609,-0.02286719 1.4652734,-0.02286719 1.7582422,-0.02286719 c 0.28125,0 0.7265625,0 0.9960937,0.0234375025 V -0.22208594 H 2.5082422 c -0.5273438,0 -0.5273438,-0.046875 -0.5273438,-0.2109375 z m 0,0"
       style="fill:#000000;fill-opacity:1;fill-rule:nonzero;stroke:none"
       aria-label="1"
       transform="matrix(1.3333333,0,0,1.3333333,27.753333,23.745333)" />
    <path
       id="path33"
       d="m 135.16783,0 h 3.79047 v 68.55484 h -3.79047"
       style="fill:#808080;fill-opacity:0.3;fill-rule:nonzero;stroke:none"
       transform="matrix(1.3333333,0,0,-1.3333333,36.966667,113.01067)"
       clip-path="url(#clipPath34)" />
    <path
       id="path35"
       d="m 0,1.09686 h 7.58092 v 0.61701 h 7.58091 V 1.02832 h 7.58094 V 0.95975 h 7.58091 v 0 h 7.58092 v 0.06857 h 7.58093 V 0.89119 h 7.58092 v 0 h 7.58092 v 0 H 68.2283 V 0.82265 h 7.58092 v 0.27421 h 7.58092 v 0 h 7.58093 v 0.1371 h 7.58092 v 0.47991 h 7.58091 v 0.1371 h 7.58094 v 2.05664 h 7.58091 V 2.26228 h 7.58092 V 13.6424 h 7.58093 v 10.69456 h 7.58092 V 8.0209 h 7.58092 V 6.0328 h 7.58093 V 3.97617 h 7.58092 V 1.91951 h 7.58091 v -0.2742 h 7.58094 v 0"
       style="fill:none;stroke:#266bbd;stroke-width:1.19553;stroke-linecap:butt;stroke-linejoin:miter;stroke-miterlimit:10;stroke-dasharray:none;stroke-opacity:1"
       transform="matrix(1.3333333,0,0,-1.3333333,36.966667,113.01067)"
       clip-path="url(#clipPath36)" />
    <path
       id="path37"
       d="m 0,25.22816 h 7.58092 v -1.16543 h 7.58091 v -1.23399 h 7.58094 v 0 h 7.58091 v 0 h 7.58092 v -1.16543 h 7.58093 v 1.16543 h 7.58092 v 3.63342 h 7.58092 v 1.23398 h 7.58093 v 3.56485 h 7.58092 v 0 h 7.58092 v -1.16542 h 7.58093 v 1.16542 h 7.58092 v 1.23399 h 7.58091 v 0 h 7.58094 v 1.16544 h 7.58091 v 1.23398 h 7.58092 v 3.56484 h 7.58093 v 1.234 h 7.58092 v 0 h 7.58092 v -1.234 h 7.58093 v -1.16542 h 7.58092 V 34.8944 h 7.58091 v -4.79883 h 7.58094 v 0"
       style="fill:none;stroke:#f46e2b;stroke-width:1.19553;stroke-linecap:butt;stroke-linejoin:miter;stroke-miterlimit:10;stroke-dasharray:1.19553, 0.99628;stroke-dashoffset:0;stroke-opacity:1"
       transform="matrix(1.3333333,0,0,-1.3333333,36.966667,113.01067)"
       clip-path="url(#clipPath38)" />
    <path
       id="path39"
       d="m 0,45.72607 h 7.58092 v 0 h 7.58091 v -3.6334 h 7.58094 v -2.39943 h 7.58091 v -1.234 h 7.58092 v 0 h 7.58093 v 0 h 7.58092 v 4.8674 h 7.58092 v 5.96428 h 7.58093 v 4.79883 h 7.58092 v 1.234 h 7.58092 v 1.23399 h 7.58093 v 2.39941 h 7.58092 v 1.16544 h 7.58091 v 1.23399 h 7.58094 V 63.756 h 7.58091 v 1.16542 h 7.58092 v 3.63342 h 7.58093 v 0 h 7.58092 v -2.39943 h 7.58092 V 63.756 h 7.58093 v -2.39942 h 7.58092 v -3.63342 h 7.58091 v -3.63341 h 7.58094 v 0"
       style="fill:none;stroke:#b5251c;stroke-width:1.19553;stroke-linecap:butt;stroke-linejoin:miter;stroke-miterlimit:10;stroke-dasharray:2.98883, 1.99255;stroke-dashoffset:0;stroke-opacity:1"
       transform="matrix(1.3333333,0,0,-1.3333333,36.966667,113.01067)"
       clip-path="url(#clipPath40)" />
    <path
       id="path41"
       d="m 3.9135938,-2.9761094 c 0,-0.1523437 0,-0.2109375 0.3984375,-0.2109375 H 4.464375 v -0.2109375 c -0.2226562,0.011719 -0.5273437,0.011719 -0.8085937,0.011719 -0.2929688,0 -0.5976563,0 -0.8203125,-0.011719 v 0.2109375 h 0.1523437 c 0.3984375,0 0.3984375,0.058594 0.3984375,0.2109375 v 1.1015625 H 1.4995313 v -1.1015625 c 0,-0.1523437 0,-0.2109375 0.3984375,-0.2109375 H 2.0503125 V -3.3979844 C 1.8276563,-3.3862656 1.51125,-3.3862656 1.23,-3.3862656 c -0.28125,0 -0.59765625,0 -0.8203125,-0.011719 v 0.2109375 h 0.15234375 c 0.3984375,0 0.3984375,0.058594 0.3984375,0.2109375 v 2.55468753 c 0,0.15234375 0,0.19921875 -0.3984375,0.19921875 H 0.4096875 V 4.53125e-4 C 0.63234375,-0.01126562 0.94875,-0.02298437 1.23,-0.02298437 c 0.28125,0 0.5976563,0.01171875 0.8203125,0.023437495 V -0.22220312 H 1.8979688 c -0.3984375,0 -0.3984375,-0.046875 -0.3984375,-0.19921875 V -1.6636094 H 3.38625 v 1.24218753 c 0,0.15234375 0,0.19921875 -0.3984375,0.19921875 H 2.8354688 V 4.53125e-4 C 3.058125,-0.01126562 3.3628125,-0.02298437 3.6557813,-0.02298437 c 0.28125,0 0.5859375,0.01171875 0.8085937,0.023437495 V -0.22220312 H 4.3120313 c -0.3984375,0 -0.3984375,-0.046875 -0.3984375,-0.19921875 z m 4.0283203,1.9101563 c 0,-0.6210938 -0.5859375,-1.1601563 -1.359375,-1.1601563 -0.7851563,0 -1.3710938,0.5390625 -1.3710938,1.1601563 0,0.59765623 0.5859375,1.12499998 1.3710938,1.12499998 0.7734375,0 1.359375,-0.52734375 1.359375,-1.12499998 z m -1.359375,0.93749998 c -0.8789063,0 -0.8789063,-0.73828125 -0.8789063,-0.98437498 0,-0.2226563 0,-0.9492188 0.8789063,-0.9492188 0.8671875,0 0.8671875,0.7265625 0.8671875,0.9492188 0,0.24609373 0,0.98437498 -0.8671875,0.98437498 z M 10.408711,-2.1440781 v 0.2226562 c 0.363281,0 0.410156,0.023437 0.410156,0.2695313 v 0.82031248 c 0,0.45703125 -0.339844,0.7265625 -0.75,0.7265625 -0.5039061,0 -0.5273436,-0.2109375 -0.5273436,-0.45703125 V -2.2026719 l -0.8554687,0.058594 v 0.2226562 c 0.3867187,0 0.4101562,0.035156 0.4101562,0.2929688 v 1.07812498 c 0.046875,0.5625 0.609375,0.609375 0.9375001,0.609375 0.410156,0 0.65625,-0.1875 0.808594,-0.421875 v 0.421875 L 11.674336,4.53125e-4 V -0.22220312 c -0.363281,0 -0.410156,-0.0351562 -0.410156,-0.28125 V -2.2026719 Z m 2.821289,1.03125 c 0,-0.46875 0.257813,-0.9140625 0.738281,-0.9257813 -0.01172,0.011719 -0.07031,0.070312 -0.07031,0.1757813 0,0.1875 0.140625,0.2578125 0.246094,0.2578125 0.128906,0 0.257812,-0.082031 0.257812,-0.2578125 0,-0.1875 -0.1875,-0.3398438 -0.445312,-0.3398438 -0.246094,0 -0.574219,0.1289063 -0.761719,0.5507813 h -0.01172 v -0.5507813 l -0.796875,0.058594 v 0.2226562 c 0.375,0 0.421875,0.023437 0.421875,0.2695313 v 1.23046873 c 0,0.15234375 0,0.19921875 -0.328125,0.19921875 H 12.38625 V 4.53125e-4 c 0.210938,-0.011718745 0.433594,-0.023437495 0.644531,-0.023437495 0.257813,0 0.503907,0.01171875 0.714844,0.023437495 V -0.22220312 H 13.605 c -0.375,0 -0.375,-0.046875 -0.375,-0.19921875 z m 6.887695,0.046875 c 0,-0.6210938 -0.585937,-1.1601563 -1.359375,-1.1601563 -0.785156,0 -1.371093,0.5390625 -1.371093,1.1601563 0,0.59765623 0.585937,1.12499998 1.371093,1.12499998 0.773438,0 1.359375,-0.52734375 1.359375,-1.12499998 z m -1.359375,0.93749998 c -0.878906,0 -0.878906,-0.73828125 -0.878906,-0.98437498 0,-0.2226563 0,-0.9492188 0.878906,-0.9492188 0.867188,0 0.867188,0.7265625 0.867188,0.9492188 0,0.24609373 0,0.98437498 -0.867188,0.98437498 z m 2.947266,-1.79296878 h 0.703125 v -0.2226562 h -0.726563 v -0.5390625 c 0,-0.46875 0.316407,-0.6679688 0.539063,-0.6679688 0.03516,0 0.140625,0.011719 0.140625,0.035156 h -0.01172 c -0.03516,0.035156 -0.08203,0.09375 -0.08203,0.1992187 0,0.140625 0.105469,0.2578125 0.257812,0.2578125 0.164063,0 0.257813,-0.1171875 0.257813,-0.2578125 0,-0.2226562 -0.210938,-0.3984375 -0.550781,-0.3984375 -0.433594,0 -0.949219,0.28125 -0.949219,0.8203125 v 0.5507813 h -0.480469 v 0.2226562 h 0.480469 v 1.50000003 c 0,0.15234375 0,0.19921875 -0.328125,0.19921875 h -0.08203 V 4.53125e-4 c 0.210937,-0.011718745 0.433593,-0.023437495 0.644531,-0.023437495 0.257812,0 0.492187,0.01171875 0.703125,0.023437495 V -0.22220312 h -0.128906 c -0.386719,0 -0.386719,-0.046875 -0.386719,-0.19921875 z m 5.373047,-1.4765625 v 0.2109375 c 0.375,0 0.421875,0.035156 0.421875,0.28125 v 0.9726563 c -0.117188,-0.09375 -0.386719,-0.2695313 -0.796875,-0.2695313 -0.75,0 -1.359375,0.5039063 -1.359375,1.1367188 0,0.59765623 0.5625,1.12499998 1.300781,1.12499998 0.410156,0 0.691406,-0.1875 0.832031,-0.3046875 v 0.3046875 L 28.332539,4.53125e-4 V -0.22220312 c -0.363281,0 -0.410156,-0.0351562 -0.410156,-0.28125 V -3.4565781 Z m 0.398437,2.85937503 c -0.234375,0.36328125 -0.609375,0.43359375 -0.796875,0.43359375 -0.257812,0 -0.503906,-0.10546875 -0.667968,-0.328125 -0.164063,-0.19921875 -0.175782,-0.48046875 -0.175782,-0.63281248 0,-0.140625 0.01172,-0.46875 0.222657,-0.6914063 0.175781,-0.1875 0.433593,-0.28125 0.679687,-0.28125 0.140625,0 0.503906,0.035156 0.738281,0.375 z m 3.840821,-0.93750003 c 0,-0.4804687 -0.503907,-0.75 -1.113282,-0.75 -0.304687,0 -0.890625,0.011719 -0.890625,0.4335938 0,0.1875 0.140625,0.2695312 0.269532,0.2695312 0.128906,0 0.257812,-0.09375 0.257812,-0.2695312 0,-0.1171875 -0.05859,-0.1875 -0.105469,-0.2226563 0.164063,-0.046875 0.398438,-0.046875 0.457032,-0.046875 0.421875,0 0.679687,0.234375 0.679687,0.5859375 v 0.1289063 c -0.480469,0.023437 -0.75,0.046875 -1.125,0.1757812 -0.328125,0.1171875 -0.621094,0.32812503 -0.621094,0.64453128 0,0.46875 0.574219,0.5859375 0.972657,0.5859375 0.386718,0 0.679687,-0.1640625 0.84375,-0.41015625 0.01172,0.17578125 0.128906,0.38671875 0.386718,0.38671875 0.03516,0 0.597657,0 0.597657,-0.48046875 v -0.28125 h -0.210938 v 0.26953125 c 0,0.046875 0,0.26953125 -0.199219,0.26953125 -0.199218,0 -0.199218,-0.22265625 -0.199218,-0.26953125 z m -0.445313,0.77343753 c 0,0.5390625 -0.597656,0.59765625 -0.714844,0.59765625 -0.292968,0 -0.574218,-0.1640625 -0.574218,-0.421875 0,-0.1640625 0.105468,-0.62109378 1.289062,-0.66796878 z m 3.808594,-0.91406253 c 0.05859,-0.1171875 0.164062,-0.3046875 0.539062,-0.3046875 v -0.2226562 c -0.105468,0.011719 -0.257812,0.023437 -0.445312,0.023437 -0.152344,0 -0.339844,-0.011719 -0.503906,-0.023437 v 0.2226562 c 0.140625,0 0.222656,0.070312 0.222656,0.1640625 0,0.046875 -0.02344,0.082031 -0.03516,0.1171875 l -0.621094,1.18359378 -0.667969,-1.28906248 c -0.03516,-0.046875 -0.03516,-0.070312 -0.03516,-0.082031 0,-0.09375 0.128906,-0.09375 0.269531,-0.09375 v -0.2226562 c -0.210937,0.011719 -0.421875,0.023437 -0.632812,0.023437 -0.199219,0 -0.328125,0 -0.550782,-0.023437 v 0.2226562 c 0.351563,0 0.375,0.011719 0.445313,0.1523438 l 0.9375,1.769531225 c -0.21093,0.433593455 -0.421867,0.855468455 -0.832023,0.855468455 -0.128907,0 -0.164063,-0.0234375 -0.222657,-0.0585938 0.03516,-0.0117188 0.140625,-0.0703125 0.140625,-0.22265625 0,-0.15234375 -0.117187,-0.24609375 -0.246093,-0.24609375 -0.117188,0 -0.246094,0.0703125 -0.246094,0.2578125 0,0.24609375 0.257812,0.43359382 0.574219,0.43359382 0.292968,0 0.621093,-0.18750007 0.855468,-0.62109382 z M 40.0425,-3.6206406 c 0,0 0.02344,-0.023437 0.02344,-0.046875 0,-0.023437 -0.01172,-0.070312 -0.09375,-0.070312 -0.09375,0 -1.371094,0.796875 -1.371094,2.4960937 0,1.68750003 1.277344,2.484375 1.371094,2.484375 0.08203,0 0.09375,-0.046875 0.09375,-0.070312 0,-0.035156 -0.02344,-0.046875 -0.04687,-0.058594 -0.878907,-0.70312502 -1.042969,-1.71093752 -1.042969,-2.3554688 0,-1.21875 0.574219,-2.0273437 1.066406,-2.3789062 z m 2.370117,2.74218748 V -1.2651719 h -1.652344 v 0.38671878 z m 2.434571,-0.36328128 c 0,-1.6875 -1.277344,-2.4960937 -1.382813,-2.4960937 -0.07031,0 -0.07031,0.058594 -0.07031,0.070312 0,0.011719 0,0.035156 0.02344,0.070312 0.75,0.5859375 1.042969,1.453125 1.042969,2.3554687 0,0.44531253 -0.08203,0.91406253 -0.246094,1.32421878 -0.246094,0.5625 -0.550781,0.84375 -0.796875,1.04296872 -0.01172,0 -0.02344,0.035156 -0.02344,0.046875 0,0.011719 0,0.070312 0.07031,0.070312 0.105469,0 1.382813,-0.79687497 1.382813,-2.484375 z m 0,0"
       style="fill:#000000;fill-opacity:1;fill-rule:nonzero;stroke:none"
       aria-label="Hourofday(-)"
       transform="matrix(1.3333333,0,0,1.3333333,127.86,136.08533)" />
    <path
       id="path42"
       d="m 2.9770859,-1.7005312 c 0.3164063,-0.082031 0.9257813,-0.328125 0.9257813,-0.7851563 0,-0.515625 -0.7734375,-0.9140625 -1.59375,-0.9140625 H 0.42239844 v 0.2109375 h 0.15234375 c 0.3984375,0 0.3984375,0.058594 0.3984375,0.2109375 v 2.5546875 c 0,0.15234375 0,0.19921875 -0.3984375,0.19921875 H 0.42239844 v 0.22265625 c 0.234375,-0.01171875 0.5390625,-0.0234375 0.80859376,-0.0234375 0.2695312,0 0.5625,0.01171875 0.8085937,0.0234375 V -0.22396875 H 1.8872422 c -0.3984375,0 -0.3984375,-0.046875 -0.3984375,-0.19921875 V -1.6185 h 0.7617187 c 0.2695313,0 0.5039063,0.070312 0.65625,0.1992188 0.1875,0.1523437 0.1875,0.2695312 0.1875,0.56249995 0,0.38671875 0,0.57421875 0.2578125,0.7734375 0.1992188,0.15234375 0.4921875,0.1875 0.703125,0.1875 0.4804688,0 0.609375,-0.41015625 0.609375,-0.57421875 0,-0.09375 -0.046875,-0.09375 -0.1054687,-0.09375 -0.070312,0 -0.09375,0.0234375 -0.1054688,0.09375 -0.011719,0.28125 -0.1992187,0.41015625 -0.3632812,0.41015625 -0.3398438,0 -0.3867188,-0.375 -0.4335938,-0.69140625 C 3.6450547,-0.8919375 3.6216172,-1.0911562 3.6098984,-1.14975 3.5278672,-1.4427187 3.2700547,-1.6185 2.9770859,-1.7005312 Z M 2.2505234,-1.7825625 H 1.4888047 v -1.2070312 c 0,-0.1523438 0.011719,-0.1757813 0.1523437,-0.1992188 h 0.3515625 c 0.5625,0 1.3242188,0 1.3242188,0.703125 0,0.5742188 -0.5625,0.703125 -1.0664063,0.703125 z m 5.1796875,0.3046875 c 0,-0.4804687 -0.5039062,-0.75 -1.1132812,-0.75 -0.3046875,0 -0.890625,0.011719 -0.890625,0.4335938 0,0.1875 0.140625,0.2695312 0.2695312,0.2695312 0.1289063,0 0.2578125,-0.09375 0.2578125,-0.2695312 0,-0.1171875 -0.058594,-0.1875 -0.1054687,-0.2226563 0.1640625,-0.046875 0.3984375,-0.046875 0.4570312,-0.046875 0.421875,0 0.6796875,0.234375 0.6796875,0.5859375 v 0.1289063 c -0.4804687,0.023437 -0.75,0.046875 -1.125,0.1757812 -0.328125,0.1171875 -0.6210937,0.328125 -0.6210937,0.64453125 0,0.46875 0.5742187,0.5859375 0.9726562,0.5859375 0.3867188,0 0.6796875,-0.1640625 0.84375,-0.41015625 0.011719,0.17578125 0.1289063,0.38671875 0.3867188,0.38671875 0.035156,0 0.5976562,0 0.5976562,-0.48046875 v -0.28125 H 7.8286484 v 0.26953125 c 0,0.046875 0,0.26953125 -0.1992187,0.26953125 -0.1992188,0 -0.1992188,-0.22265625 -0.1992188,-0.26953125 z m -0.4453125,0.7734375 c 0,0.5390625 -0.5976562,0.59765625 -0.7148437,0.59765625 -0.2929688,0 -0.5742188,-0.1640625 -0.5742188,-0.421875 0,-0.1640625 0.1054688,-0.62109375 1.2890625,-0.66796875 z m 2.4638672,-1.21875 H 10.327672 V -2.1458437 H 9.4487656 V -3.0599062 H 9.2378281 c -0.011719,0.46875 -0.2578125,0.9492187 -0.7617187,0.9609375 v 0.1757812 h 0.5273437 v 1.2890625 c 0,0.57421875 0.46875,0.69140625 0.7734375,0.69140625 0.3750004,0 0.6562504,-0.28125 0.6562504,-0.69140625 v -0.26953125 h -0.210938 v 0.2578125 c 0,0.375 -0.2226561,0.515625 -0.3984374,0.515625 -0.375,0 -0.375,-0.3984375 -0.375,-0.50390625 z M 12.185094,-3.071625 c 0,-0.1640625 -0.140625,-0.3046875 -0.304688,-0.3046875 -0.164062,0 -0.304687,0.1171875 -0.304687,0.3046875 0,0.1757813 0.140625,0.3046875 0.304687,0.3046875 0.164063,0 0.304688,-0.140625 0.304688,-0.3046875 z m -0.832032,0.9257813 v 0.2226562 c 0.351563,0 0.398438,0.023437 0.398438,0.2695313 v 1.2304687 c 0,0.15234375 0,0.19921875 -0.328125,0.19921875 h -0.09375 V -0.0013125 C 11.540562,-0.01303125 11.7515,-0.02475 11.950719,-0.02475 c 0.1875,0 0.410156,0.01171875 0.597656,0.0234375 v -0.22265625 c -0.339844,0 -0.375,0 -0.375,-0.19921875 v -1.78125 z m 4.628907,1.078125 c 0,-0.6210938 -0.585938,-1.1601563 -1.359375,-1.1601563 -0.785157,0 -1.371094,0.5390625 -1.371094,1.1601563 0,0.5976562 0.585937,1.12499995 1.371094,1.12499995 0.773437,0 1.359375,-0.52734375 1.359375,-1.12499995 z m -1.359375,0.93749995 c -0.878907,0 -0.878907,-0.73828125 -0.878907,-0.98437495 0,-0.2226563 0,-0.9492188 0.878907,-0.9492188 0.867187,0 0.867187,0.7265625 0.867187,0.9492188 0,0.2460937 0,0.98437495 -0.867187,0.98437495 z m 6.234375,-3.49218745 c 0,0 0.02344,-0.023437 0.02344,-0.046875 0,-0.023437 -0.01172,-0.070312 -0.09375,-0.070312 -0.09375,0 -1.371094,0.796875 -1.371094,2.4960937 0,1.6875 1.277344,2.484375 1.371094,2.484375 0.08203,0 0.09375,-0.046875 0.09375,-0.070312 0,-0.035156 -0.02344,-0.046875 -0.04687,-0.058594 -0.878906,-0.70312505 -1.042969,-1.71093755 -1.042969,-2.3554688 0,-1.21875 0.574219,-2.0273437 1.066407,-2.3789062 z m 2.370117,2.74218745 V -1.2669375 h -1.652344 v 0.38671875 z M 25.661656,-1.2435 c 0,-1.6875 -1.277344,-2.4960937 -1.382812,-2.4960937 -0.07031,0 -0.07031,0.058594 -0.07031,0.070312 0,0.011719 0,0.035156 0.02344,0.070312 0.75,0.5859375 1.042968,1.453125 1.042968,2.3554687 0,0.4453125 -0.08203,0.9140625 -0.246093,1.32421875 -0.246094,0.5625 -0.550782,0.84375 -0.796875,1.04296875 -0.01172,0 -0.02344,0.035156 -0.02344,0.046875 0,0.011719 0,0.070312 0.07031,0.070312 0.105468,0 1.382812,-0.796875 1.382812,-2.484375 z m 0,0"
       style="fill:#000000;fill-opacity:1;fill-rule:nonzero;stroke:none"
       aria-label="Ratio(-)"
       transform="matrix(0,-1.3333333,1.3333333,0,9.408,84.918667)" />
    <path
       id="path43"
       d="m 1.9798984,-3.1650078 c 0,-0.1523438 -0.011719,-0.1523438 -0.1757812,-0.1523438 -0.3515625,0.3164063 -0.90234376,0.3164063 -1.00781251,0.3164063 h -0.0820313 v 0.2226562 h 0.0820313 c 0.1171875,0 0.43359371,-0.011719 0.72656251,-0.140625 v 2.48437504 c 0,0.1640625 0,0.2109375 -0.52734376,0.2109375 H 0.74942969 V -9.453125e-4 C 1.0189609,-0.02438281 1.4642734,-0.02438281 1.7572422,-0.02438281 c 0.28125,0 0.7265625,0 0.9960937,0.0234374975 V -0.22360156 H 2.5072422 c -0.5273438,0 -0.5273438,-0.046875 -0.5273438,-0.2109375 z m 3.5419922,1.3710937 c 0.515625,-0.2226562 0.6796875,-0.4804687 0.6796875,-0.7617187 0,-0.5273438 -0.5742187,-0.7617188 -1.1132812,-0.7617188 -0.6210938,0 -1.125,0.3515625 -1.125,0.84375 0,0.4570313 0.3867187,0.6679688 0.65625,0.796875 -0.5273438,0.2109375 -0.8320313,0.5039063 -0.8320313,0.91406254 0,0.59765625 0.6679688,0.8671875 1.2890625,0.8671875 0.703125,0 1.3007813,-0.375 1.3007813,-0.9609375 0,-0.53906254 -0.515625,-0.79687504 -0.8554688,-0.93750004 z m -0.9726562,-0.515625 c -0.2109375,-0.1054687 -0.28125,-0.234375 -0.28125,-0.3515625 0,-0.328125 0.4101562,-0.46875 0.8085937,-0.46875 0.3984375,0 0.8203125,0.1992188 0.8203125,0.5742188 0,0.4335937 -0.5742187,0.6445312 -0.5742187,0.6445312 -0.011719,0 -0.011719,0 -0.058594,-0.023437 z m 0.28125,0.75 0.7734375,0.3867188 c 0.1757812,0.09375 0.4335937,0.23437499 0.4335937,0.50390624 0,0.3984375 -0.5039062,0.57421875 -0.9492187,0.57421875 -0.4570313,0 -0.9609375,-0.22265625 -0.9609375,-0.6796875 0,-0.49218749 0.5390625,-0.72656249 0.703125,-0.78515629 z m 6.8554686,-1.4296875 c 0,-0.1523437 0,-0.1992187 0.328125,-0.1992187 h 0.08203 v -0.2109375 c -0.234375,0.011719 -0.46875,0.011719 -0.714843,0.011719 -0.28125,0 -0.644532,0 -0.925782,-0.011719 v 0.2109375 h 0.222657 c 0.503906,0 0.503906,0.058594 0.503906,0.2109375 v 2.22656249 c 0,0.46875 -0.328125,0.69140625 -0.621094,0.69140625 -0.09375,0 -0.410156,-0.01171875 -0.5976561,-0.2109375 0.1640621,-0.0234375 0.2578121,-0.140625 0.2578121,-0.29296875 0,-0.1640625 -0.117187,-0.3046875 -0.3046871,-0.3046875 -0.1757813,0 -0.3046875,0.1171875 -0.3046875,0.3046875 0,0.41015625 0.4335936,0.66796875 0.9609376,0.66796875 0.550781,0 1.113281,-0.3046875 1.113281,-0.85546875 z m 3.023438,0.84375 v 0.2226563 c 0.363281,0 0.410156,0.023437 0.410156,0.2695312 v 0.82031254 c 0,0.45703125 -0.339844,0.7265625 -0.75,0.7265625 -0.503906,0 -0.527344,-0.2109375 -0.527344,-0.45703125 V -2.2040703 l -0.855469,0.058594 V -1.92282 c 0.386719,0 0.410157,0.035156 0.410157,0.2929687 v 1.07812504 c 0.04687,0.5625 0.609375,0.609375 0.9375,0.609375 0.410156,0 0.65625,-0.1875 0.808593,-0.421875 v 0.421875 L 15.975016,-9.453125e-4 V -0.22360156 c -0.363282,0 -0.410157,-0.0351562 -0.410157,-0.28125 V -2.2040703 Z m 4.59082,0.6445313 c 0,-0.5507813 -0.375,-0.703125 -0.832031,-0.703125 -0.539063,0 -0.820313,0.2929687 -0.925782,0.4921875 v -0.4921875 l -0.820312,0.058594 V -1.92282 c 0.363281,0 0.410156,0.023437 0.410156,0.2695312 v 1.23046879 c 0,0.15234375 0,0.19921875 -0.316406,0.19921875 h -0.09375 V -9.453125e-4 C 16.933023,-0.01266406 17.143961,-0.02438281 17.354898,-0.02438281 c 0.210938,0 0.421875,0.01171875 0.632813,0.0234374975 V -0.22360156 h -0.08203 c -0.328125,0 -0.328125,-0.046875 -0.328125,-0.19921875 V -1.2900078 c 0,-0.5625 0.515625,-0.75 0.832031,-0.75 0.363281,0 0.445312,0.2109375 0.445312,0.5273437 v 1.08984379 c 0,0.15234375 0,0.19921875 -0.316406,0.19921875 h -0.09375 V -9.453125e-4 C 18.65568,-0.01266406 18.866617,-0.02438281 19.077555,-0.02438281 c 0.210937,0 0.421875,0.01171875 0.632812,0.0234374975 V -0.22360156 h -0.08203 c -0.328125,0 -0.328125,-0.046875 -0.328125,-0.19921875 z m 3.328125,0.375 c 0.105469,0 0.140625,0 0.140625,-0.1171875 0,-0.328125 -0.175781,-0.984375 -1.101563,-0.984375 -0.761718,0 -1.289062,0.5390625 -1.289062,1.125 0,0.63281249 0.597656,1.16015624 1.359375,1.16015624 0.796875,0 1.03125,-0.5625 1.03125,-0.65625 0,-0.0820313 -0.07031,-0.0820313 -0.09375,-0.0820313 -0.08203,0 -0.09375,0.0234375 -0.117188,0.09375 -0.140625,0.33984375 -0.515625,0.45703125 -0.785156,0.45703125 -0.410156,0 -0.632812,-0.22265625 -0.703125,-0.3046875 -0.199219,-0.234375 -0.199219,-0.55078125 -0.199219,-0.69140619 z m -1.746094,-0.1523438 c 0.05859,-0.65625 0.539063,-0.7851562 0.773438,-0.7851562 0.691406,0 0.726562,0.6445312 0.738281,0.7851562 z m 7.49707,0.31640629 h -0.210937 c -0.01172,0.09375 -0.05859,0.3984375 -0.140625,0.45703125 -0.03516,0.0234375 -0.457031,0.0234375 -0.527344,0.0234375 h -0.984375 c 0.328125,-0.24609375 0.703125,-0.515625 0.996094,-0.71484374 0.457031,-0.3164063 0.867187,-0.5976563 0.867187,-1.125 0,-0.6445313 -0.597656,-0.9960938 -1.3125,-0.9960938 -0.667968,0 -1.160156,0.3867188 -1.160156,0.8789063 0,0.2578125 0.210938,0.3046875 0.28125,0.3046875 0.140625,0 0.292969,-0.09375 0.292969,-0.2929688 0,-0.1875 -0.128906,-0.28125 -0.28125,-0.2929687 0.140625,-0.234375 0.433594,-0.375 0.761719,-0.375 0.480468,0 0.890625,0.28125 0.890625,0.7734375 0,0.421875 -0.292969,0.7382812 -0.679688,1.0546875 l -1.207031,1.03124999 c -0.04687,0.046875 -0.05859,0.046875 -0.05859,0.0820313 v 0.1523437475 h 2.308594 z m 3.442383,-0.63281249 c 0,-0.3632813 0,-1.7226563 -1.289062,-1.7226563 -1.300781,0 -1.300781,1.359375 -1.300781,1.7226563 0,0.3632812 0,1.69921874 1.300781,1.69921874 1.289062,0 1.289062,-1.33593754 1.289062,-1.69921874 z m -1.289062,1.53515624 c -0.1875,0 -0.609375,-0.05859375 -0.738281,-0.5625 -0.05859,-0.26953125 -0.07031,-0.62109374 -0.07031,-1.03125004 0,-0.375 0,-0.7148437 0.08203,-0.9960937 0.128907,-0.421875 0.503907,-0.5039063 0.726563,-0.5039063 0.363281,0 0.621094,0.1875 0.726562,0.5390625 0.07031,0.2578125 0.07031,0.6679688 0.07031,0.9609375 0,0.3398438 0,0.73828129 -0.07031,1.04296879 -0.128906,0.48046875 -0.527343,0.55078125 -0.726562,0.55078125 z m 4.623047,-0.90234375 h -0.210938 c -0.01172,0.09375 -0.05859,0.3984375 -0.140625,0.45703125 -0.03516,0.0234375 -0.457031,0.0234375 -0.527344,0.0234375 h -0.984375 c 0.328125,-0.24609375 0.703125,-0.515625 0.996094,-0.71484374 0.457031,-0.3164063 0.867188,-0.5976563 0.867188,-1.125 0,-0.6445313 -0.597657,-0.9960938 -1.3125,-0.9960938 -0.667969,0 -1.160157,0.3867188 -1.160157,0.8789063 0,0.2578125 0.210938,0.3046875 0.28125,0.3046875 0.140625,0 0.292969,-0.09375 0.292969,-0.2929688 0,-0.1875 -0.128906,-0.28125 -0.28125,-0.2929687 0.140625,-0.234375 0.433594,-0.375 0.761719,-0.375 0.480469,0 0.890625,0.28125 0.890625,0.7734375 0,0.421875 -0.292969,0.7382812 -0.679688,1.0546875 l -1.207031,1.03124999 c -0.04687,0.046875 -0.05859,0.046875 -0.05859,0.0820313 v 0.1523437475 h 2.308594 z m 3.530273,0.15234375 V -1.0321953 h -0.621094 v -2.1914063 c 0,-0.1171875 0,-0.1523437 -0.128906,-0.1523437 -0.105469,0 -0.105469,0.011719 -0.164062,0.082031 l -1.839844,2.2617188 v 0.22265624 h 1.652344 v 0.38671875 c 0,0.15234375 0,0.19921875 -0.433594,0.19921875 h -0.175781 v 0.2226562475 c 0.234375,-0.0117187475 0.5625,-0.0234374975 0.855468,-0.0234374975 0.28125,0 0.609375,0.01171875 0.84375,0.0234374975 V -0.22360156 h -0.175781 c -0.433594,0 -0.433594,-0.046875 -0.433594,-0.19921875 V -0.80953906 Z M 37.631266,-2.8368828 v 1.8046875 h -1.464844 z m 0,0"
       style="fill:#000000;fill-opacity:1;fill-rule:nonzero;stroke:none"
       aria-label="18June2024"
       transform="matrix(1.3333333,0,0,1.3333333,132.25467,8.9426667)" />
    <path
       id="path44"
       d="m 5.65727,25.46875 h 62.8015 V 66.29901 H 5.65727 Z"
       style="fill:#ffffff;fill-opacity:1;fill-rule:nonzero;stroke:#000000;stroke-width:0.3985;stroke-linecap:butt;stroke-linejoin:miter;stroke-miterlimit:10;stroke-dasharray:none;stroke-opacity:1"
       transform="matrix(1.3333333,0,0,-1.3333333,36.966667,113.01067)" />
    <path
       id="path45"
       d="M 0,-2.83484 V 5.66927 H 17.00826 V -2.83484 Z"
       style="fill:#808080;fill-opacity:0.3;fill-rule:nonzero;stroke:none"
       transform="matrix(1.3333333,0,0,-1.3333333,49.292,34.829333)" />
    <path
       id="path46"
       d="m 3.0697187,-3.3746172 c 0,-0.082031 0,-0.140625 -0.082031,-0.140625 -0.023437,0 -0.046875,0 -0.09375,0.070312 l -0.199219,0.2929693 C 2.4603437,-3.3746172 2.1556562,-3.5152422 1.698625,-3.5152422 c -0.703125,0 -1.21875,0.4453125 -1.21875,0.9492188 0,0.2695312 0.15234375,0.4921875 0.3046875,0.6210937 0.2578125,0.2109375 0.5039062,0.2578125 0.7382812,0.3046875 0.09375,0.023437 0.75,0.1523438 0.7851563,0.1523438 0.328125,0.082031 0.6328125,0.328125 0.6328125,0.66796871 0,0.3515625 -0.3515625,0.71484375 -0.9257813,0.71484375 -0.2226562,0 -0.6445312,-0.0351562 -0.9492187,-0.234375 -0.234375,-0.1640625 -0.36328125,-0.38671875 -0.375,-0.67968746 0,-0.082031 0,-0.1054688 -0.10546875,-0.1054688 -0.10546875,0 -0.10546875,0.035156 -0.10546875,0.14062501 v 0.94921875 c 0,0.09375 0,0.140625 0.0820313,0.140625 0.046875,0 0.0585938,-0.01171875 0.09375,-0.05859375 0.0234375,-0.0234375 0.1875,-0.26953125 0.1875,-0.28125 0.375,0.28125 0.8320313,0.33984375 1.171875,0.33984375 0.75,0 1.2304688,-0.4921875 1.2304688,-1.0078125 0,-0.37499996 -0.2226563,-0.59765626 -0.3164063,-0.67968746 -0.234375,-0.2226563 -0.5039062,-0.28125 -0.9140625,-0.3515625 -0.28125,-0.058594 -0.5625,-0.1171875 -0.6210937,-0.1289063 -0.1992188,-0.035156 -0.60937505,-0.2226562 -0.60937505,-0.5976562 0,-0.328125 0.37500005,-0.6445313 0.91406255,-0.6445313 0.890625,0 1.1015625,0.5859375 1.1601562,0.9492188 0.011719,0.070312 0.035156,0.082031 0.1054688,0.082031 0.1054687,0 0.1054687,-0.035156 0.1054687,-0.140625 z m 2.9033204,1.3710938 c -0.070312,0.046875 -0.1171875,0.1289062 -0.1171875,0.2109375 0,0.1640625 0.1289062,0.2695312 0.2695312,0.2695312 0.1171875,0 0.2695313,-0.082031 0.2695313,-0.2695312 0,-0.421875 -0.5625,-0.4335938 -0.9023438,-0.4335938 -0.984375,0 -1.3945312,0.65625 -1.3945312,1.1484375 0,0.62109376 0.5742187,1.13671876 1.3359375,1.13671876 0.8554687,0 1.0195312,-0.609375 1.0195312,-0.65625 0,-0.0703125 -0.070312,-0.0703125 -0.09375,-0.0703125 -0.082031,0 -0.09375,0.0117188 -0.1171875,0.0703125 -0.1640625,0.421875 -0.5273437,0.46875 -0.75,0.46875 -0.4335937,0 -0.9023437,-0.28125 -0.9023437,-0.94921876 0,-0.2226562 0.046875,-0.4921875 0.234375,-0.703125 0.234375,-0.2695312 0.5273437,-0.2695312 0.6796875,-0.2695312 0.1523437,0 0.2929687,0 0.46875,0.046875 z m 3.4072265,0.5273437 c 0,-0.4804687 -0.5039062,-0.75 -1.1132812,-0.75 -0.3046875,0 -0.890625,0.011719 -0.890625,0.4335938 0,0.1875 0.140625,0.2695312 0.2695312,0.2695312 0.1289063,0 0.2578125,-0.09375 0.2578125,-0.2695312 0,-0.1171875 -0.058594,-0.1875 -0.1054687,-0.2226563 0.1640625,-0.046875 0.3984375,-0.046875 0.4570312,-0.046875 0.421875,0 0.6796875,0.234375 0.6796875,0.5859375 v 0.1289063 c -0.4804687,0.023437 -0.75,0.046875 -1.125,0.1757812 -0.328125,0.1171875 -0.6210937,0.32812501 -0.6210937,0.64453126 0,0.46875 0.5742187,0.5859375 0.9726562,0.5859375 0.3867188,0 0.6796875,-0.1640625 0.84375,-0.41015625 0.011719,0.17578125 0.1289063,0.38671875 0.3867188,0.38671875 0.035156,0 0.5976562,0 0.5976562,-0.48046875 v -0.28125 H 9.7787031 v 0.26953125 c 0,0.046875 0,0.26953125 -0.1992187,0.26953125 -0.1992188,0 -0.1992188,-0.22265625 -0.1992188,-0.26953125 z m -0.4453125,0.77343751 c 0,0.5390625 -0.5976562,0.59765625 -0.7148437,0.59765625 -0.2929688,0 -0.5742188,-0.1640625 -0.5742188,-0.421875 0,-0.1640625 0.1054688,-0.62109376 1.2890625,-0.66796876 z M 11.390031,-1.1128984 c 0,-0.46875 0.257813,-0.9140625 0.738281,-0.9257813 -0.01172,0.011719 -0.07031,0.070312 -0.07031,0.1757813 0,0.1875 0.140625,0.2578125 0.246094,0.2578125 0.128906,0 0.257812,-0.082031 0.257812,-0.2578125 0,-0.1875 -0.1875,-0.3398438 -0.445312,-0.3398438 -0.246094,0 -0.574219,0.1289063 -0.761719,0.5507813 h -0.01172 v -0.5507813 l -0.796875,0.058594 v 0.2226562 c 0.375,0 0.421875,0.023437 0.421875,0.2695313 v 1.23046871 c 0,0.15234375 0,0.19921875 -0.328125,0.19921875 h -0.09375 V 3.828125e-4 c 0.210937,-0.0117187525 0.433593,-0.0234375025 0.64453,-0.0234375025 0.257813,0 0.503907,0.01171875 0.714844,0.0234375025 V -0.22227344 h -0.140625 c -0.375,0 -0.375,-0.046875 -0.375,-0.19921875 z m 3.717774,-0.890625 c -0.07031,0.046875 -0.117188,0.1289062 -0.117188,0.2109375 0,0.1640625 0.128906,0.2695312 0.269531,0.2695312 0.117188,0 0.269532,-0.082031 0.269532,-0.2695312 0,-0.421875 -0.5625,-0.4335938 -0.902344,-0.4335938 -0.984375,0 -1.394531,0.65625 -1.394531,1.1484375 0,0.62109376 0.574218,1.13671876 1.335937,1.13671876 0.855469,0 1.019531,-0.609375 1.019531,-0.65625 0,-0.0703125 -0.07031,-0.0703125 -0.09375,-0.0703125 -0.08203,0 -0.09375,0.0117188 -0.117187,0.0703125 -0.164063,0.421875 -0.527344,0.46875 -0.75,0.46875 -0.433594,0 -0.902344,-0.28125 -0.902344,-0.94921876 0,-0.2226562 0.04687,-0.4921875 0.234375,-0.703125 0.234375,-0.2695312 0.527344,-0.2695312 0.679688,-0.2695312 0.152343,0 0.292968,0 0.46875,0.046875 z m 2.071289,-1.0664063 c 0,-0.1640625 -0.140625,-0.3046875 -0.304688,-0.3046875 -0.164062,0 -0.304687,0.1171875 -0.304687,0.3046875 0,0.1757813 0.140625,0.3046875 0.304687,0.3046875 0.164063,0 0.304688,-0.140625 0.304688,-0.3046875 z m -0.832032,0.9257813 v 0.2226562 c 0.351563,0 0.398438,0.023437 0.398438,0.2695313 v 1.23046871 c 0,0.15234375 0,0.19921875 -0.328125,0.19921875 h -0.09375 V 3.828125e-4 C 16.534562,-0.01133594 16.7455,-0.02305469 16.944719,-0.02305469 c 0.1875,0 0.410156,0.01171875 0.597656,0.0234375025 V -0.22227344 c -0.339844,0 -0.375,0 -0.375,-0.19921875 V -2.2027422 Z m 2.803711,0.2226562 h 0.878907 v -0.2226562 h -0.878907 v -0.9140625 h -0.210937 c -0.01172,0.46875 -0.257813,0.9492187 -0.761719,0.9609375 v 0.1757812 h 0.527344 v 1.28906251 c 0,0.57421875 0.46875,0.69140625 0.773437,0.69140625 0.375,0 0.65625,-0.28125 0.65625,-0.69140625 v -0.26953125 h -0.210937 v 0.2578125 c 0,0.375 -0.222656,0.515625 -0.398438,0.515625 -0.375,0 -0.375,-0.3984375 -0.375,-0.50390625 z m 4.03418,0.3046875 c 0.05859,-0.1171875 0.164063,-0.3046875 0.539063,-0.3046875 v -0.2226562 c -0.105469,0.011719 -0.257813,0.023437 -0.445313,0.023437 -0.152344,0 -0.339844,-0.011719 -0.503906,-0.023437 v 0.2226562 c 0.140625,0 0.222656,0.070312 0.222656,0.1640625 0,0.046875 -0.02344,0.082031 -0.03516,0.1171875 L 22.341199,-0.45664844 21.67323,-1.7457109 c -0.03516,-0.046875 -0.03516,-0.070312 -0.03516,-0.082031 0,-0.09375 0.128906,-0.09375 0.269531,-0.09375 v -0.2226562 c -0.210937,0.011719 -0.421875,0.023437 -0.632812,0.023437 -0.199219,0 -0.328125,0 -0.550781,-0.023437 v 0.2226562 c 0.351562,0 0.375,0.011719 0.445312,0.1523438 l 0.9375,1.7695312125 C 21.895891,0.43397656 21.684953,0.85585156 21.274797,0.85585156 c -0.128906,0 -0.164063,-0.0234375 -0.222656,-0.0585938 0.03516,-0.0117188 0.140625,-0.0703125 0.140625,-0.22265625 0,-0.15234375 -0.117188,-0.24609375 -0.246094,-0.24609375 -0.117188,0 -0.246094,0.0703125 -0.246094,0.2578125 0,0.24609375 0.257813,0.43359374 0.574219,0.43359374 0.292969,0 0.621094,-0.18749999 0.855469,-0.62109374 z m 0,0"
       style="fill:#000000;fill-opacity:1;fill-rule:nonzero;stroke:none"
       aria-label="Scarcity"
       transform="matrix(1.3333333,0,0,1.3333333,75.422667,36.089333)" />
    <path
       id="path47"
       d="m 0,0 h 8.50412 v 0 h 8.50414 v 0"
       style="fill:none;stroke:#266bbd;stroke-width:1.19553;stroke-linecap:butt;stroke-linejoin:miter;stroke-miterlimit:10;stroke-dasharray:none;stroke-opacity:1"
       transform="matrix(1.3333333,0,0,-1.3333333,49.292,46.649333)" />
    <path
       id="path48"
       d="M 1.4994062,-1.5121016 H 2.58925 c 0.6679687,0 1.40625,-0.3867187 1.40625,-0.9375 0,-0.515625 -0.65625,-0.9492187 -1.453125,-0.9492187 H 0.42128125 v 0.2109375 H 0.573625 c 0.3984375,0 0.3984375,0.058594 0.3984375,0.2109375 v 2.55468749 c 0,0.15234375 0,0.19921875 -0.3984375,0.19921875 H 0.42128125 V -3.828125e-4 C 0.6439375,-0.01210156 0.96034375,-0.02382031 1.2415937,-0.02382031 c 0.28125,0 0.5859375,0.01171875 0.8203125,0.0234374975 V -0.22303906 H 1.9095625 c -0.4101563,0 -0.4101563,-0.046875 -0.4101563,-0.19921875 z m 0.9257813,-1.6757812 c 0.8085937,0 0.984375,0.3515625 0.984375,0.7382812 0,0.4101563 -0.1875,0.75 -0.984375,0.75 h -0.9375 v -1.2890625 c 0,-0.1640625 0,-0.1992187 0.234375,-0.1992187 z m 3.2753906,2.0742187 c 0,-0.46875 0.2578125,-0.9140625 0.7382813,-0.9257812 -0.011719,0.011719 -0.070312,0.070313 -0.070312,0.1757812 0,0.1875 0.140625,0.2578125 0.2460937,0.2578125 0.1289063,0 0.2578125,-0.082031 0.2578125,-0.2578125 0,-0.1875 -0.1875,-0.3398437 -0.4453125,-0.3398437 -0.2460937,0 -0.5742187,0.1289062 -0.7617187,0.5507812 h -0.011719 v -0.5507812 l -0.796875,0.058594 v 0.2226563 c 0.375,0 0.421875,0.023437 0.421875,0.2695312 v 1.23046879 c 0,0.15234375 0,0.19921875 -0.328125,0.19921875 h -0.09375 V -3.828125e-4 C 5.0677656,-0.01210156 5.2904219,-0.02382031 5.5013594,-0.02382031 c 0.2578125,0 0.5039062,0.01171875 0.7148437,0.0234374975 V -0.22303906 h -0.140625 c -0.375,0 -0.375,-0.046875 -0.375,-0.19921875 z M 8.448625,-3.0706953 c 0,-0.1640625 -0.140625,-0.3046875 -0.3046875,-0.3046875 -0.1640625,0 -0.3046875,0.1171875 -0.3046875,0.3046875 0,0.1757812 0.140625,0.3046875 0.3046875,0.3046875 0.1640625,0 0.3046875,-0.140625 0.3046875,-0.3046875 z m -0.8320313,0.9257812 v 0.2226563 c 0.3515625,0 0.3984375,0.023437 0.3984375,0.2695312 v 1.23046879 c 0,0.15234375 0,0.19921875 -0.328125,0.19921875 h -0.09375 V -3.828125e-4 C 7.8040937,-0.01210156 8.0150312,-0.02382031 8.21425,-0.02382031 c 0.1875,0 0.4101562,0.01171875 0.5976562,0.0234374975 V -0.22303906 c -0.3398437,0 -0.375,0 -0.375,-0.19921875 V -2.2035078 Z m 3.8085933,0.140625 c -0.07031,0.046875 -0.117187,0.1289063 -0.117187,0.2109375 0,0.1640625 0.128906,0.2695313 0.269531,0.2695313 0.117188,0 0.269531,-0.082031 0.269531,-0.2695313 0,-0.421875 -0.5625,-0.4335937 -0.902343,-0.4335937 -0.9843753,0 -1.3945315,0.65625 -1.3945315,1.1484375 0,0.62109374 0.5742185,1.13671874 1.3359375,1.13671874 0.855469,0 1.019531,-0.609375 1.019531,-0.65625 0,-0.0703125 -0.07031,-0.0703125 -0.09375,-0.0703125 -0.08203,0 -0.09375,0.0117188 -0.117187,0.0703125 -0.164063,0.421875 -0.527344,0.46875 -0.75,0.46875 -0.433594,0 -0.902344,-0.28125 -0.902344,-0.94921874 0,-0.2226563 0.04687,-0.4921875 0.234375,-0.703125 0.234375,-0.2695313 0.527344,-0.2695313 0.679687,-0.2695313 0.152344,0 0.292969,0 0.46875,0.046875 z m 3.38379,0.8789063 c 0.105468,0 0.140625,0 0.140625,-0.1171875 0,-0.328125 -0.175782,-0.984375 -1.101563,-0.984375 -0.761719,0 -1.289062,0.5390625 -1.289062,1.125 0,0.63281249 0.597656,1.16015624 1.359375,1.16015624 0.796875,0 1.03125,-0.5625 1.03125,-0.65625 0,-0.0820313 -0.07031,-0.0820313 -0.09375,-0.0820313 -0.08203,0 -0.09375,0.0234375 -0.117188,0.09375 -0.140625,0.33984375 -0.515625,0.45703125 -0.785156,0.45703125 -0.410156,0 -0.632813,-0.22265625 -0.703125,-0.3046875 -0.199219,-0.234375 -0.199219,-0.55078125 -0.199219,-0.69140619 z m -1.746094,-0.1523438 c 0.05859,-0.65625 0.539062,-0.7851562 0.773437,-0.7851562 0.691407,0 0.726563,0.6445312 0.738282,0.7851562 z m 0,0"
       style="fill:#000000;fill-opacity:1;fill-rule:nonzero;stroke:none"
       aria-label="Price"
       transform="matrix(1.3333333,0,0,1.3333333,75.422667,47.910667)" />
    <path
       id="path49"
       d="m 0,0 h 8.50412 v 0 h 8.50414 v 0"
       style="fill:none;stroke:#f46e2b;stroke-width:1.19553;stroke-linecap:butt;stroke-linejoin:miter;stroke-miterlimit:10;stroke-dasharray:1.19553, 0.99628;stroke-dashoffset:0;stroke-opacity:1"
       transform="matrix(1.3333333,0,0,-1.3333333,49.292,58.518667)" />
    <path
       id="path50"
       d="m 2.6126875,-3.4345 c -0.035156,-0.09375 -0.058594,-0.1289062 -0.1757813,-0.1289062 -0.082031,0 -0.1289062,0.011719 -0.1757812,0.1171875 L 0.98378125,-0.51653125 C 0.86659375,-0.2704375 0.5970625,-0.2235625 0.35096875,-0.2235625 v 0.22265625 c 0.1875,-0.01171875 0.3984375,-0.0234375 0.57421875,-0.0234375 0.0703125,0 0.421875,0.01171875 0.65625,0.0234375 V -0.2235625 c -0.28125,0 -0.3867188,-0.1171875 -0.3867188,-0.2109375 0,-0.0351563 0.011719,-0.046875 0.035156,-0.09375 l 0.2578125,-0.5859375 h 1.59375 l 0.3046875,0.703125 c 0.035156,0.0585938 0.035156,0.0703125 0.035156,0.0703125 0,0.1171875 -0.2929687,0.1171875 -0.4335937,0.1171875 v 0.22265625 c 0.1992187,0 0.5625,-0.0234375 0.8085937,-0.0234375 0.2578125,0 0.515625,0.01171875 0.7265625,0.0234375 V -0.2235625 H 4.3939375 c -0.3046875,0 -0.375,-0.0234375 -0.4453125,-0.1640625 z m -0.328125,0.5039063 0.703125,1.6054687 h -1.40625 z m 4.8398437,0.9257812 c -0.070312,0.046875 -0.1171875,0.1289063 -0.1171875,0.2109375 0,0.1640625 0.1289063,0.2695313 0.2695313,0.2695313 0.1171875,0 0.2695312,-0.082031 0.2695312,-0.2695313 0,-0.421875 -0.5625,-0.4335937 -0.9023437,-0.4335937 -0.984375,0 -1.3945313,0.65625 -1.3945313,1.1484375 0,0.6210937 0.5742188,1.1367187 1.3359375,1.1367187 0.8554688,0 1.0195313,-0.609375 1.0195313,-0.65625 0,-0.0703125 -0.070312,-0.0703125 -0.09375,-0.0703125 -0.082031,0 -0.09375,0.0117188 -0.1171875,0.0703125 -0.1640625,0.421875 -0.5273438,0.46875 -0.75,0.46875 -0.4335938,0 -0.9023438,-0.28125 -0.9023438,-0.9492187 0,-0.2226563 0.046875,-0.4921875 0.234375,-0.703125 0.234375,-0.2695313 0.5273438,-0.2695313 0.6796875,-0.2695313 0.1523438,0 0.2929688,0 0.46875,0.046875 z m 2.0361329,0.082031 h 0.8789059 v -0.222656 H 9.1605391 V -3.0595 H 8.9496016 c -0.011719,0.46875 -0.2578125,0.9492188 -0.7617188,0.9609375 v 0.1757813 h 0.5273438 v 1.28906245 c 0,0.57421875 0.46875,0.69140625 0.7734375,0.69140625 0.375,0 0.6562499,-0.28125 0.6562499,-0.69140625 V -0.90325 H 9.9339766 v 0.2578125 c 0,0.375 -0.2226563,0.515625 -0.3984375,0.515625 -0.375,0 -0.375,-0.3984375 -0.375,-0.50390625 z m 3.6005859,-0.2226563 v 0.2226563 c 0.363281,0 0.410156,0.023437 0.410156,0.2695312 v 0.8203125 c 0,0.45703125 -0.339844,0.7265625 -0.75,0.7265625 -0.503906,0 -0.527344,-0.2109375 -0.527344,-0.45703125 V -2.2040312 l -0.855468,0.058594 v 0.2226563 c 0.386718,0 0.410156,0.035156 0.410156,0.2929687 v 1.078125 c 0.04687,0.5625 0.609375,0.609375 0.9375,0.609375 0.410156,0 0.65625,-0.1875 0.808594,-0.421875 v 0.421875 L 14.02675,-9.0625e-4 V -0.2235625 c -0.363281,0 -0.410156,-0.0351563 -0.410156,-0.28125 v -1.6992187 z m 4.204102,0.6679688 c 0,-0.4804688 -0.503907,-0.75 -1.113282,-0.75 -0.304687,0 -0.890625,0.011719 -0.890625,0.4335937 0,0.1875 0.140625,0.2695313 0.269532,0.2695313 0.128906,0 0.257812,-0.09375 0.257812,-0.2695313 0,-0.1171875 -0.05859,-0.1875 -0.105469,-0.2226562 0.164063,-0.046875 0.398438,-0.046875 0.457032,-0.046875 0.421875,0 0.679687,0.234375 0.679687,0.5859375 v 0.1289062 c -0.480469,0.023437 -0.75,0.046875 -1.125,0.1757813 -0.328125,0.1171875 -0.621094,0.32812495 -0.621094,0.6445312 0,0.46875 0.574219,0.5859375 0.972657,0.5859375 0.386718,0 0.679687,-0.1640625 0.84375,-0.41015625 0.01172,0.17578125 0.128906,0.38671875 0.386718,0.38671875 0.03516,0 0.597657,0 0.597657,-0.48046875 v -0.28125 h -0.210938 v 0.26953125 c 0,0.046875 0,0.26953125 -0.199219,0.26953125 -0.199218,0 -0.199218,-0.22265625 -0.199218,-0.26953125 z m -0.445313,0.77343745 c 0,0.5390625 -0.597656,0.59765625 -0.714844,0.59765625 -0.292968,0 -0.574218,-0.1640625 -0.574218,-0.421875 0,-0.1640625 0.105468,-0.6210937 1.289062,-0.6679687 z m 2.487305,-2.75390625 -0.84375,0.058594 v 0.2109375 c 0.375,0 0.421875,0.035156 0.421875,0.28125 v 2.48437495 c 0,0.15234375 0,0.19921875 -0.328125,0.19921875 h -0.09375 v 0.22265625 c 0.210937,-0.01171875 0.421875,-0.0234375 0.621093,-0.0234375 0.210938,0 0.421875,0.01171875 0.632813,0.0234375 V -0.2235625 h -0.09375 c -0.316406,0 -0.316406,-0.046875 -0.316406,-0.19921875 z m 4.356445,0 -0.84375,0.058594 v 0.2109375 c 0.375,0 0.421875,0.035156 0.421875,0.28125 v 2.48437495 c 0,0.15234375 0,0.19921875 -0.328125,0.19921875 h -0.09375 v 0.22265625 c 0.210938,-0.01171875 0.421875,-0.0234375 0.621094,-0.0234375 0.210937,0 0.421875,0.01171875 0.632812,0.0234375 V -0.2235625 h -0.09375 c -0.316406,0 -0.316406,-0.046875 -0.316406,-0.19921875 z m 3.811523,2.390625 c 0,-0.6210937 -0.585937,-1.1601562 -1.359375,-1.1601562 -0.785156,0 -1.371093,0.5390625 -1.371093,1.1601562 0,0.59765625 0.585937,1.125 1.371093,1.125 0.773438,0 1.359375,-0.52734375 1.359375,-1.125 z m -1.359375,0.9375 c -0.878906,0 -0.878906,-0.73828125 -0.878906,-0.984375 0,-0.2226562 0,-0.9492187 0.878906,-0.9492187 0.867188,0 0.867188,0.7265625 0.867188,0.9492187 0,0.24609375 0,0.984375 -0.867188,0.984375 z m 4.294922,-1.3476562 c 0,-0.4804688 -0.503906,-0.75 -1.113281,-0.75 -0.304687,0 -0.890625,0.011719 -0.890625,0.4335937 0,0.1875 0.140625,0.2695313 0.269531,0.2695313 0.128907,0 0.257813,-0.09375 0.257813,-0.2695313 0,-0.1171875 -0.05859,-0.1875 -0.105469,-0.2226562 0.164063,-0.046875 0.398438,-0.046875 0.457031,-0.046875 0.421875,0 0.679688,0.234375 0.679688,0.5859375 v 0.1289062 c -0.480469,0.023437 -0.75,0.046875 -1.125,0.1757813 -0.328125,0.1171875 -0.621094,0.32812495 -0.621094,0.6445312 0,0.46875 0.574219,0.5859375 0.972656,0.5859375 0.386719,0 0.679688,-0.1640625 0.84375,-0.41015625 0.01172,0.17578125 0.128907,0.38671875 0.386719,0.38671875 0.03516,0 0.597656,0 0.597656,-0.48046875 v -0.28125 h -0.210937 v 0.26953125 c 0,0.046875 0,0.26953125 -0.199219,0.26953125 -0.199219,0 -0.199219,-0.22265625 -0.199219,-0.26953125 z m -0.445312,0.77343745 c 0,0.5390625 -0.597656,0.59765625 -0.714844,0.59765625 -0.292969,0 -0.574219,-0.1640625 -0.574219,-0.421875 0,-0.1640625 0.105469,-0.6210937 1.289063,-0.6679687 z M 32.996477,-3.399344 v 0.2109375 c 0.375,0 0.421875,0.035156 0.421875,0.28125 V -1.9345 c -0.117188,-0.09375 -0.386719,-0.2695312 -0.796875,-0.2695312 -0.75,0 -1.359375,0.5039062 -1.359375,1.1367187 0,0.59765625 0.5625,1.125 1.300781,1.125 0.410156,0 0.691406,-0.1875 0.832031,-0.3046875 V 0.0576875 L 34.250383,-9.0625e-4 V -0.2235625 c -0.363281,0 -0.410156,-0.0351563 -0.410156,-0.28125 v -2.953125 z m 0.398437,2.85937495 c -0.234375,0.36328125 -0.609375,0.43359375 -0.796875,0.43359375 -0.257812,0 -0.503906,-0.10546875 -0.667969,-0.328125 -0.164062,-0.19921875 -0.175781,-0.48046875 -0.175781,-0.6328125 0,-0.140625 0.01172,-0.46875 0.222656,-0.6914062 0.175782,-0.1875 0.433594,-0.28125 0.679688,-0.28125 0.140625,0 0.503906,0.035156 0.738281,0.375 z m 0,0"
       style="fill:#000000;fill-opacity:1;fill-rule:nonzero;stroke:none"
       aria-label="Actualload"
       transform="matrix(1.3333333,0,0,1.3333333,75.422667,59.829333)" />
    <path
       id="path51"
       d="m 0,0 h 8.50412 v 0 h 8.50414 v 0"
       style="fill:none;stroke:#b5251c;stroke-width:1.19553;stroke-linecap:butt;stroke-linejoin:miter;stroke-miterlimit:10;stroke-dasharray:2.98883, 1.99255;stroke-dashoffset:0;stroke-opacity:1"
       transform="matrix(1.3333333,0,0,-1.3333333,49.292,70.437333)" />
    <path
       id="path52"
       d="M 1.4994062,-1.5121484 H 2.58925 c 0.6679687,0 1.40625,-0.3867188 1.40625,-0.9375 0,-0.515625 -0.65625,-0.9492188 -1.453125,-0.9492188 H 0.42128125 v 0.2109375 H 0.573625 c 0.3984375,0 0.3984375,0.058594 0.3984375,0.2109375 v 2.55468751 c 0,0.15234375 0,0.19921875 -0.3984375,0.19921875 H 0.42128125 V -4.296875e-4 C 0.6439375,-0.01214844 0.96034375,-0.02386719 1.2415937,-0.02386719 c 0.28125,0 0.5859375,0.01171875 0.8203125,0.0234375025 V -0.22308594 H 1.9095625 c -0.4101563,0 -0.4101563,-0.046875 -0.4101563,-0.19921875 z m 0.9257813,-1.6757813 c 0.8085937,0 0.984375,0.3515625 0.984375,0.7382813 0,0.4101562 -0.1875,0.75 -0.984375,0.75 h -0.9375 v -1.2890625 c 0,-0.1640625 0,-0.1992188 0.234375,-0.1992188 z m 4.4619141,2.0625 c 0.1054687,0 0.140625,0 0.140625,-0.1171875 0,-0.328125 -0.1757813,-0.984375 -1.1015625,-0.984375 -0.7617188,0 -1.2890625,0.5390625 -1.2890625,1.125 0,0.63281251 0.5976562,1.16015626 1.359375,1.16015626 0.796875,0 1.03125,-0.5625 1.03125,-0.65625 0,-0.0820313 -0.070312,-0.0820313 -0.09375,-0.0820313 -0.082031,0 -0.09375,0.0234375 -0.1171875,0.09375 -0.140625,0.33984375 -0.515625,0.45703125 -0.7851563,0.45703125 -0.4101562,0 -0.6328125,-0.22265625 -0.703125,-0.3046875 C 5.1292891,-0.66839844 5.1292891,-0.98480469 5.1292891,-1.1254297 Z M 5.1410078,-1.2777734 c 0.058594,-0.65625 0.5390625,-0.7851563 0.7734375,-0.7851563 0.6914063,0 0.7265625,0.6445313 0.7382813,0.7851563 z m 4.8134766,-0.1992188 c 0,-0.4804687 -0.5039063,-0.75 -1.1132813,-0.75 -0.3046875,0 -0.890625,0.011719 -0.890625,0.4335938 0,0.1875 0.140625,0.2695312 0.2695313,0.2695312 0.1289062,0 0.2578125,-0.09375 0.2578125,-0.2695312 0,-0.1171875 -0.058594,-0.1875 -0.1054688,-0.2226563 0.1640625,-0.046875 0.3984375,-0.046875 0.4570313,-0.046875 0.421875,0 0.6796875,0.234375 0.6796875,0.5859375 v 0.1289063 c -0.4804688,0.023437 -0.75,0.046875 -1.125,0.1757812 -0.328125,0.1171875 -0.6210938,0.32812501 -0.6210938,0.64453126 0,0.46875 0.5742188,0.5859375 0.9726563,0.5859375 0.3867187,0 0.6796875,-0.1640625 0.84375,-0.41015625 0.011719,0.17578125 0.1289062,0.38671875 0.3867187,0.38671875 0.035156,0 0.5976559,0 0.5976559,-0.48046875 v -0.28125 h -0.210937 v 0.26953125 c 0,0.046875 0,0.26953125 -0.199219,0.26953125 -0.1992186,0 -0.1992186,-0.22265625 -0.1992186,-0.26953125 z m -0.4453125,0.77343751 c 0,0.5390625 -0.5976563,0.59765625 -0.7148438,0.59765625 -0.2929687,0 -0.5742187,-0.1640625 -0.5742187,-0.421875 0,-0.1640625 0.1054687,-0.62109376 1.2890625,-0.66796876 z M 12.676164,-1.3480859 c 0.08203,-0.046875 0.527344,-0.3632813 0.5625,-0.375 0.328125,-0.1992188 0.585938,-0.1992188 0.679688,-0.1992188 v -0.2226562 c -0.1875,0.023437 -0.363282,0.023437 -0.421875,0.023437 -0.199219,0 -0.492188,-0.011719 -0.65625,-0.023437 v 0.2226562 c 0.07031,0 0.07031,0.058594 0.07031,0.058594 0,0.023437 0,0.09375 -0.140625,0.1992187 l -0.808594,0.5507813 v -2.34375 l -0.84375,0.058594 v 0.2109375 c 0.375,0 0.421875,0.035156 0.421875,0.28125 v 2.48437501 c 0,0.15234375 0,0.19921875 -0.328125,0.19921875 H 11.11757 V -4.296875e-4 C 11.316789,-0.01214844 11.539445,-0.02386719 11.738664,-0.02386719 c 0.199219,0 0.421875,0.01171875 0.609375,0.0234375025 V -0.22308594 h -0.08203 c -0.328125,0 -0.328125,-0.046875 -0.328125,-0.19921875 v -0.421875 l 0.410156,-0.28125001 0.5625,0.60937501 c 0.09375,0.09375 0.152344,0.15234375 0.152344,0.22265625 0,0.0703125 -0.105469,0.0703125 -0.128906,0.0703125 V -4.296875e-4 C 13.133195,-0.01214844 13.473039,-0.02386719 13.543352,-0.02386719 c 0.1875,0 0.328125,0.01171875 0.515625,0.0234375025 V -0.22308594 c -0.222657,0 -0.351563,0 -0.5625,-0.234375 z m 5.241211,-2.109375 -0.84375,0.058594 v 0.2109375 c 0.375,0 0.421875,0.035156 0.421875,0.28125 v 2.48437501 c 0,0.15234375 0,0.19921875 -0.328125,0.19921875 h -0.09375 V -4.296875e-4 C 17.284562,-0.01214844 17.4955,-0.02386719 17.694719,-0.02386719 c 0.210937,0 0.421875,0.01171875 0.632812,0.0234375025 V -0.22308594 h -0.09375 c -0.316406,0 -0.316406,-0.046875 -0.316406,-0.19921875 z m 3.811523,2.390625 c 0,-0.6210938 -0.585937,-1.1601563 -1.359375,-1.1601563 -0.785156,0 -1.371093,0.5390625 -1.371093,1.1601563 0,0.59765621 0.585937,1.12499996 1.371093,1.12499996 0.773438,0 1.359375,-0.52734375 1.359375,-1.12499996 z m -1.359375,0.93749996 c -0.878906,0 -0.878906,-0.73828125 -0.878906,-0.98437496 0,-0.2226563 0,-0.9492188 0.878906,-0.9492188 0.867188,0 0.867188,0.7265625 0.867188,0.9492188 0,0.24609371 0,0.98437496 -0.867188,0.98437496 z m 4.286133,-1.34765626 c 0,-0.4804687 -0.503906,-0.75 -1.113281,-0.75 -0.304688,0 -0.890625,0.011719 -0.890625,0.4335938 0,0.1875 0.140625,0.2695312 0.269531,0.2695312 0.128906,0 0.257813,-0.09375 0.257813,-0.2695312 0,-0.1171875 -0.05859,-0.1875 -0.105469,-0.2226563 0.164062,-0.046875 0.398437,-0.046875 0.457031,-0.046875 0.421875,0 0.679688,0.234375 0.679688,0.5859375 v 0.1289063 c -0.480469,0.023437 -0.75,0.046875 -1.125,0.1757812 -0.328125,0.1171875 -0.621094,0.32812501 -0.621094,0.64453126 0,0.46875 0.574219,0.5859375 0.972656,0.5859375 0.386719,0 0.679688,-0.1640625 0.84375,-0.41015625 0.01172,0.17578125 0.128906,0.38671875 0.386719,0.38671875 0.03516,0 0.597656,0 0.597656,-0.48046875 v -0.28125 h -0.210937 v 0.26953125 c 0,0.046875 0,0.26953125 -0.199219,0.26953125 -0.199219,0 -0.199219,-0.22265625 -0.199219,-0.26953125 z m -0.445312,0.77343751 c 0,0.5390625 -0.597657,0.59765625 -0.714844,0.59765625 -0.292969,0 -0.574219,-0.1640625 -0.574219,-0.421875 0,-0.1640625 0.105469,-0.62109376 1.289063,-0.66796876 z m 3.331054,-2.69531251 v 0.2109375 c 0.375,0 0.421875,0.035156 0.421875,0.28125 v 0.9726563 c -0.117187,-0.09375 -0.386718,-0.2695313 -0.796875,-0.2695313 -0.75,0 -1.359375,0.5039063 -1.359375,1.1367188 0,0.59765621 0.5625,1.12499996 1.300782,1.12499996 0.410156,0 0.691406,-0.1875 0.832031,-0.3046875 v 0.3046875 L 28.795305,-4.296875e-4 V -0.22308594 c -0.363282,0 -0.410157,-0.0351562 -0.410157,-0.28125 V -3.4574609 Z m 0.398438,2.85937501 c -0.234375,0.36328125 -0.609375,0.43359375 -0.796875,0.43359375 -0.257813,0 -0.503906,-0.10546875 -0.667969,-0.328125 -0.164062,-0.19921875 -0.175781,-0.48046875 -0.175781,-0.63281246 0,-0.140625 0.01172,-0.46875 0.222656,-0.6914063 0.175781,-0.1875 0.433594,-0.28125 0.679688,-0.28125 0.140625,0 0.503906,0.035156 0.738281,0.375 z m 0,0"
       style="fill:#000000;fill-opacity:1;fill-rule:nonzero;stroke:none"
       aria-label="Peakload"
       transform="matrix(1.3333333,0,0,1.3333333,75.422667,71.746667)" />
  </g>
</svg>
