<?xml version="1.0" encoding="UTF-8" standalone="no"?>
<!-- Created with Inkscape (http://www.inkscape.org/) -->

<svg
   version="1.1"
   id="svg1"
   width="272.73868"
   height="143.46533"
   viewBox="0 0 272.73868 143.46533"
   sodipodi:docname="scarcity_aug.svg"
   inkscape:version="1.4 (86a8ad7, 2024-10-11)"
   xmlns:inkscape="http://www.inkscape.org/namespaces/inkscape"
   xmlns:sodipodi="http://sodipodi.sourceforge.net/DTD/sodipodi-0.dtd"
   xmlns="http://www.w3.org/2000/svg"
   xmlns:svg="http://www.w3.org/2000/svg">
  <defs
     id="defs1">
    <clipPath
       clipPathUnits="userSpaceOnUse"
       id="clipPath34">
      <path
         d="M 0,0 H 181.94214 V 68.55484 H 0 Z"
         id="path34" />
    </clipPath>
    <clipPath
       clipPathUnits="userSpaceOnUse"
       id="clipPath36">
      <path
         d="M 0,0 H 181.94214 V 68.55484 H 0 Z"
         id="path36" />
    </clipPath>
    <clipPath
       clipPathUnits="userSpaceOnUse"
       id="clipPath38">
      <path
         d="M 0,0 H 181.94214 V 68.55484 H 0 Z"
         id="path38" />
    </clipPath>
    <clipPath
       clipPathUnits="userSpaceOnUse"
       id="clipPath40">
      <path
         d="M 0,0 H 181.94214 V 68.55484 H 0 Z"
         id="path40" />
    </clipPath>
    <clipPath
       clipPathUnits="userSpaceOnUse"
       id="clipPath42">
      <path
         d="M 0,0 H 181.94214 V 68.55484 H 0 Z"
         id="path42" />
    </clipPath>
  </defs>
  <sodipodi:namedview
     id="namedview1"
     pagecolor="#505050"
     bordercolor="#eeeeee"
     borderopacity="1"
     inkscape:showpageshadow="0"
     inkscape:pageopacity="0"
     inkscape:pagecheckerboard="0"
     inkscape:deskcolor="#505050"
     inkscape:zoom="5.7783994"
     inkscape:cx="136.36994"
     inkscape:cy="71.732667"
     inkscape:window-width="1920"
     inkscape:window-height="1009"
     inkscape:window-x="1912"
     inkscape:window-y="586"
     inkscape:window-maximized="1"
     inkscape:current-layer="g1">
    <inkscape:page
       x="0"
       y="0"
       inkscape:label="1"
       id="page1"
       width="272.73868"
       height="143.46533"
       margin="0"
       bleed="0" />
  </sodipodi:namedview>
  <g
     id="g1"
     inkscape:groupmode="layer"
     inkscape:label="1">
    <path
       id="path1"
       d="M 0,0 V 68.55484 M 15.16183,0 V 68.55484 M 30.32368,0 V 68.55484 M 45.48553,0 V 68.55484 M 60.64737,0 V 68.55484 M 75.80922,0 V 68.55484 M 90.97107,0 V 68.55484 M 106.1329,0 V 68.55484 M 121.29475,0 V 68.55484 M 136.4566,0 V 68.55484 M 151.61844,0 V 68.55484 M 166.78029,0 V 68.55484 M 181.94214,0 v 68.55484"
       style="fill:none;stroke:#bfbfbf;stroke-width:0.3985;stroke-linecap:butt;stroke-linejoin:miter;stroke-miterlimit:10;stroke-dasharray:none;stroke-opacity:1"
       transform="matrix(1.3333333,0,0,-1.3333333,21.205333,114.30267)" />
    <path
       id="path2"
       d="M 0,0 H 181.94214 M 0,13.71097 H 181.94214 M 0,27.42194 H 181.94214 M 0,41.1329 H 181.94214 M 0,54.84387 H 181.94214 M 0,68.55484 h 181.94214"
       style="fill:none;stroke:#bfbfbf;stroke-width:0.3985;stroke-linecap:butt;stroke-linejoin:miter;stroke-miterlimit:10;stroke-dasharray:none;stroke-opacity:1"
       transform="matrix(1.3333333,0,0,-1.3333333,21.205333,114.30267)" />
    <path
       id="path3"
       d="M 0,0 V 4.25197 M 15.16183,0 V 4.25197 M 30.32368,0 V 4.25197 M 45.48553,0 V 4.25197 M 60.64737,0 V 4.25197 M 75.80922,0 V 4.25197 M 90.97107,0 V 4.25197 M 106.1329,0 V 4.25197 M 121.29475,0 V 4.25197 M 136.4566,0 V 4.25197 M 151.61844,0 V 4.25197 M 166.78029,0 V 4.25197 M 181.94214,0 V 4.25197 M 0,68.55484 v -4.252 m 15.16183,4.252 v -4.252 m 15.16185,4.252 v -4.252 m 15.16185,4.252 v -4.252 m 15.16184,4.252 v -4.252 m 15.16185,4.252 v -4.252 m 15.16185,4.252 v -4.252 m 15.16183,4.252 v -4.252 m 15.16185,4.252 v -4.252 m 15.16185,4.252 v -4.252 m 15.16184,4.252 v -4.252 m 15.16185,4.252 v -4.252 m 15.16185,4.252 v -4.252"
       style="fill:none;stroke:#808080;stroke-width:0.19925;stroke-linecap:butt;stroke-linejoin:miter;stroke-miterlimit:10;stroke-dasharray:none;stroke-opacity:1"
       transform="matrix(1.3333333,0,0,-1.3333333,21.205333,114.30267)" />
    <path
       id="path4"
       d="M 0,0 H 4.25174 M 0,13.71097 H 4.25174 M 0,27.42194 H 4.25174 M 0,41.1329 H 4.25174 M 0,54.84387 H 4.25174 M 0,68.55484 H 4.25174 M 181.94214,0 h -4.25177 m 4.25177,13.71097 h -4.25177 m 4.25177,13.71097 h -4.25177 m 4.25177,13.71096 h -4.25177 m 4.25177,13.71097 h -4.25177 m 4.25177,13.71097 h -4.25177"
       style="fill:none;stroke:#808080;stroke-width:0.19925;stroke-linecap:butt;stroke-linejoin:miter;stroke-miterlimit:10;stroke-dasharray:none;stroke-opacity:1"
       transform="matrix(1.3333333,0,0,-1.3333333,21.205333,114.30267)" />
    <path
       id="path5"
       d="M 0,0 V 68.55484 H 181.94214 V 0 Z"
       style="fill:none;stroke:#000000;stroke-width:0.3985;stroke-linecap:butt;stroke-linejoin:miter;stroke-miterlimit:10;stroke-dasharray:none;stroke-opacity:1"
       transform="matrix(1.3333333,0,0,-1.3333333,21.205333,114.30267)" />
    <path
       id="path6"
       d="m 2.9882656,-1.5927422 c 0,-0.3632812 0,-1.7226562 -1.2890625,-1.7226562 -1.30078122,0 -1.30078122,1.359375 -1.30078122,1.7226562 0,0.3632813 0,1.69921876 1.30078122,1.69921876 1.2890625,0 1.2890625,-1.33593746 1.2890625,-1.69921876 z m -1.2890625,1.53515626 c -0.1875,0 -0.609375,-0.05859375 -0.73828122,-0.5625 -0.0585938,-0.26953125 -0.0703125,-0.62109376 -0.0703125,-1.03124996 0,-0.375 0,-0.7148438 0.0820313,-0.9960938 0.12890632,-0.421875 0.50390632,-0.5039062 0.72656252,-0.5039062 0.3632813,0 0.6210938,0.1875 0.7265625,0.5390625 0.070312,0.2578125 0.070312,0.6679687 0.070312,0.9609375 0,0.3398437 0,0.73828121 -0.070312,1.04296871 -0.1289062,0.48046875 -0.5273437,0.55078125 -0.7265626,0.55078125 z m 0,0"
       style="fill:#000000;fill-opacity:1;fill-rule:nonzero;stroke:none"
       aria-label="0"
       transform="matrix(1.3333333,0,0,1.3333333,18.945333,123.276)" />
    <path
       id="path7"
       d="M 2.9298047,-0.95992969 H 2.7188672 c -0.011719,0.09375 -0.058594,0.3984375 -0.140625,0.45703125 -0.035156,0.0234375 -0.4570313,0.0234375 -0.5273438,0.0234375 h -0.984375 c 0.328125,-0.24609375 0.703125,-0.515625 0.9960938,-0.71484376 0.4570312,-0.3164062 0.8671875,-0.5976562 0.8671875,-1.125 0,-0.6445312 -0.5976563,-0.9960937 -1.3125,-0.9960937 -0.66796876,0 -1.16015626,0.3867187 -1.16015626,0.8789062 0,0.2578125 0.2109375,0.3046875 0.28125,0.3046875 0.140625,0 0.29296876,-0.09375 0.29296876,-0.2929687 0,-0.1875 -0.12890626,-0.28125 -0.28125001,-0.2929688 0.140625,-0.234375 0.43359371,-0.375 0.76171871,-0.375 0.4804688,0 0.890625,0.28125 0.890625,0.7734375 0,0.421875 -0.2929687,0.7382813 -0.6796875,1.0546875 l -1.20703121,1.03125001 c -0.046875,0.046875 -0.0585938,0.046875 -0.0585938,0.0820313 v 0.1523437 H 2.7657422 Z m 0,0"
       style="fill:#000000;fill-opacity:1;fill-rule:nonzero;stroke:none"
       aria-label="2"
       transform="matrix(1.3333333,0,0,1.3333333,39.16,123.276)" />
    <path
       id="path8"
       d="M 3.0695625,-0.80758594 V -1.0302422 H 2.4484688 v -2.1914062 c 0,-0.1171875 0,-0.1523438 -0.1289063,-0.1523438 -0.1054687,0 -0.1054687,0.011719 -0.1640625,0.082031 l -1.83984375,2.2617187 v 0.22265626 H 1.968 v 0.38671875 c 0,0.15234375 0,0.19921875 -0.4335937,0.19921875 H 1.358625 v 0.22265625 c 0.234375,-0.01171875 0.5625,-0.0234375 0.8554688,-0.0234375 0.28125,0 0.609375,0.01171875 0.84375,0.0234375 V -0.22164844 H 2.8820625 c -0.4335937,0 -0.4335937,-0.046875 -0.4335937,-0.19921875 V -0.80758594 Z M 2.014875,-2.8349297 v 1.8046875 H 0.55003125 Z m 0,0"
       style="fill:#000000;fill-opacity:1;fill-rule:nonzero;stroke:none"
       aria-label="4"
       transform="matrix(1.3333333,0,0,1.3333333,59.376,123.276)" />
    <path
       id="path9"
       d="m 0.92709375,-1.6278984 c 0,-0.234375 0.0117188,-0.6328125 0.18749995,-0.9492188 0.1523438,-0.2695312 0.46875,-0.5507812 0.9375,-0.5507812 0.09375,0 0.3164063,0.011719 0.46875,0.1289062 -0.082031,0.023437 -0.2109375,0.09375 -0.2109375,0.2695313 0,0.1523437 0.1171875,0.2578125 0.2578125,0.2578125 0.09375,0 0.2695313,-0.046875 0.2695313,-0.28125 0,-0.2695313 -0.1875,-0.5625 -0.796875,-0.5625 -0.8554688,0 -1.640625,0.703125 -1.640625,1.734375 0,1.18359371 0.5859375,1.68749996 1.3125,1.68749996 0.4921875,0 0.7265625,-0.17578125 0.890625,-0.31640625 0.3164062,-0.26953125 0.3867187,-0.5625 0.3867187,-0.80859371 0,-0.3046875 -0.09375,-0.5507813 -0.3632812,-0.7734375 C 2.415375,-1.9911797 2.181,-2.1318047 1.7474062,-2.1318047 c -0.28125,0 -0.609375,0.140625 -0.82031245,0.5039063 z M 1.71225,-0.09274219 c -0.7734375,0 -0.7734375,-0.83203125 -0.7734375,-1.03125001 0,-0.3867187 0.28125,-0.8320312 0.796875,-0.8320312 0.2578125,0 0.421875,0.058594 0.5742187,0.2578125 0.1523438,0.1875 0.1523438,0.3984375 0.1523438,0.6679687 0,0.29296876 0,0.48046876 -0.1640625,0.67968751 -0.140625,0.1640625 -0.3046875,0.2578125 -0.5859375,0.2578125 z m 0,0"
       style="fill:#000000;fill-opacity:1;fill-rule:nonzero;stroke:none"
       aria-label="6"
       transform="matrix(1.3333333,0,0,1.3333333,79.592,123.276)" />
    <path
       id="path10"
       d="m 2.1342578,-1.7919609 c 0.515625,-0.2226563 0.6796875,-0.4804688 0.6796875,-0.7617188 0,-0.5273437 -0.5742187,-0.7617187 -1.1132812,-0.7617187 -0.6210938,0 -1.12500004,0.3515625 -1.12500004,0.84375 0,0.4570312 0.38671875,0.6679687 0.65625004,0.796875 -0.52734379,0.2109375 -0.83203129,0.5039062 -0.83203129,0.91406246 0,0.59765625 0.66796879,0.8671875 1.28906249,0.8671875 0.703125,0 1.3007813,-0.375 1.3007813,-0.9609375 0,-0.53906246 -0.515625,-0.79687496 -0.8554688,-0.93749996 z m -0.9726562,-0.515625 c -0.21093754,-0.1054688 -0.28125004,-0.234375 -0.28125004,-0.3515625 0,-0.328125 0.41015624,-0.46875 0.80859374,-0.46875 0.3984375,0 0.8203125,0.1992187 0.8203125,0.5742187 0,0.4335938 -0.5742187,0.6445313 -0.5742187,0.6445313 -0.011719,0 -0.011719,0 -0.058594,-0.023437 z m 0.28125,0.75 0.7734375,0.3867187 c 0.1757812,0.09375 0.4335937,0.23437501 0.4335937,0.50390626 0,0.3984375 -0.5039062,0.57421875 -0.9492187,0.57421875 -0.4570313,0 -0.96093754,-0.22265625 -0.96093754,-0.6796875 0,-0.49218751 0.53906254,-0.72656251 0.70312504,-0.78515621 z m 0,0"
       style="fill:#000000;fill-opacity:1;fill-rule:nonzero;stroke:none"
       aria-label="8"
       transform="matrix(1.3333333,0,0,1.3333333,99.806667,123.276)" />
    <path
       id="path11"
       d="m 1.9797578,-3.1630547 c 0,-0.1523437 -0.011719,-0.1523437 -0.1757812,-0.1523437 -0.3515625,0.3164062 -0.90234379,0.3164062 -1.00781254,0.3164062 h -0.0820313 v 0.2226563 h 0.0820313 c 0.1171875,0 0.43359374,-0.011719 0.72656254,-0.140625 v 2.48437496 c 0,0.1640625 0,0.2109375 -0.52734379,0.2109375 H 0.74928906 v 0.22265625 c 0.26953124,-0.0234375 0.71484374,-0.0234375 1.00781254,-0.0234375 0.28125,0 0.7265625,0 0.9960937,0.0234375 V -0.22164844 H 2.5071016 c -0.5273438,0 -0.5273438,-0.046875 -0.5273438,-0.2109375 z m 4.3974609,1.5703125 c 0,-0.3632812 0,-1.7226562 -1.2890625,-1.7226562 -1.3007812,0 -1.3007812,1.359375 -1.3007812,1.7226562 0,0.3632813 0,1.69921876 1.3007812,1.69921876 1.2890625,0 1.2890625,-1.33593746 1.2890625,-1.69921876 z m -1.2890625,1.53515626 c -0.1875,0 -0.609375,-0.05859375 -0.7382812,-0.5625 C 4.291281,-0.88961719 4.279563,-1.2411797 4.279563,-1.6513359 c 0,-0.375 0,-0.7148438 0.082031,-0.9960938 0.128906,-0.421875 0.503906,-0.5039062 0.7265622,-0.5039062 0.3632813,0 0.6210938,0.1875 0.7265625,0.5390625 0.070312,0.2578125 0.070312,0.6679687 0.070312,0.9609375 0,0.3398437 0,0.73828121 -0.070312,1.04296871 -0.1289062,0.48046875 -0.5273437,0.55078125 -0.7265625,0.55078125 z m 0,0"
       style="fill:#000000;fill-opacity:1;fill-rule:nonzero;stroke:none"
       aria-label="10"
       transform="matrix(1.3333333,0,0,1.3333333,117.76267,123.276)" />
    <path
       id="path12"
       d="m 1.9798906,-3.1630547 c 0,-0.1523437 -0.011719,-0.1523437 -0.1757812,-0.1523437 -0.3515625,0.3164062 -0.90234377,0.3164062 -1.00781252,0.3164062 h -0.0820313 v 0.2226563 h 0.0820313 c 0.1171875,0 0.43359372,-0.011719 0.72656252,-0.140625 v 2.48437496 c 0,0.1640625 0,0.2109375 -0.52734377,0.2109375 H 0.74942188 v 0.22265625 c 0.26953122,-0.0234375 0.71484372,-0.0234375 1.00781252,-0.0234375 0.28125,0 0.7265625,0 0.9960937,0.0234375 V -0.22164844 H 2.5072344 c -0.5273438,0 -0.5273438,-0.046875 -0.5273438,-0.2109375 z m 4.3388672,2.20312501 H 6.1078203 c -0.011719,0.09375 -0.058594,0.3984375 -0.140625,0.45703125 -0.035156,0.0234375 -0.4570312,0.0234375 -0.5273437,0.0234375 h -0.984375 c 0.328125,-0.24609375 0.703125,-0.515625 0.9960937,-0.71484376 0.4570313,-0.3164062 0.8671875,-0.5976562 0.8671875,-1.125 0,-0.6445312 -0.5976562,-0.9960937 -1.3125,-0.9960937 -0.6679687,0 -1.1601562,0.3867187 -1.1601562,0.8789062 0,0.2578125 0.2109375,0.3046875 0.28125,0.3046875 0.140625,0 0.2929687,-0.09375 0.2929687,-0.2929687 0,-0.1875 -0.1289062,-0.28125 -0.28125,-0.2929688 0.140625,-0.234375 0.4335938,-0.375 0.7617188,-0.375 0.4804687,0 0.890625,0.28125 0.890625,0.7734375 0,0.421875 -0.2929688,0.7382813 -0.6796875,1.0546875 l -1.2070313,1.03125001 c -0.046875,0.046875 -0.058594,0.046875 -0.058594,0.0820313 V 0.00100786 H 6.154695 Z m 0,0"
       style="fill:#000000;fill-opacity:1;fill-rule:nonzero;stroke:none"
       aria-label="12"
       transform="matrix(1.3333333,0,0,1.3333333,137.97733,123.276)" />
    <path
       id="path13"
       d="m 1.9790234,-3.1630547 c 0,-0.1523437 -0.011719,-0.1523437 -0.1757812,-0.1523437 -0.3515625,0.3164062 -0.90234376,0.3164062 -1.00781251,0.3164062 h -0.0820313 v 0.2226563 h 0.0820313 c 0.1171875,0 0.43359371,-0.011719 0.72656251,-0.140625 v 2.48437496 c 0,0.1640625 0,0.2109375 -0.52734376,0.2109375 H 0.74855469 v 0.22265625 c 0.26953121,-0.0234375 0.71484371,-0.0234375 1.00781251,-0.0234375 0.28125,0 0.7265625,0 0.9960937,0.0234375 V -0.22164844 H 2.5063672 c -0.5273438,0 -0.5273438,-0.046875 -0.5273438,-0.2109375 z m 4.4824219,2.35546876 V -1.0302422 H 5.8403516 v -2.1914062 c 0,-0.1171875 0,-0.1523438 -0.1289063,-0.1523438 -0.1054687,0 -0.1054687,0.011719 -0.1640625,0.082031 l -1.8398437,2.2617187 v 0.22265626 h 1.6523437 v 0.38671875 c 0,0.15234375 0,0.19921875 -0.4335937,0.19921875 H 4.7505078 v 0.22265625 c 0.234375,-0.01171875 0.5625,-0.0234375 0.8554688,-0.0234375 0.28125,0 0.609375,0.01171875 0.84375,0.0234375 V -0.22164844 H 6.2739453 c -0.4335937,0 -0.4335937,-0.046875 -0.4335937,-0.19921875 V -0.80758594 Z M 5.4067578,-2.8349297 v 1.8046875 H 3.9419141 Z m 0,0"
       style="fill:#000000;fill-opacity:1;fill-rule:nonzero;stroke:none"
       aria-label="14"
       transform="matrix(1.3333333,0,0,1.3333333,158.19333,123.276)" />
    <path
       id="path14"
       d="m 1.9810859,-3.1630547 c 0,-0.1523437 -0.011719,-0.1523437 -0.1757812,-0.1523437 -0.3515625,0.3164062 -0.90234376,0.3164062 -1.00781251,0.3164062 h -0.0820313 v 0.2226563 h 0.0820313 c 0.1171875,0 0.43359371,-0.011719 0.72656251,-0.140625 v 2.48437496 c 0,0.1640625 0,0.2109375 -0.52734376,0.2109375 H 0.75061719 v 0.22265625 c 0.26953121,-0.0234375 0.71484371,-0.0234375 1.00781251,-0.0234375 0.28125,0 0.7265625,0 0.9960937,0.0234375 V -0.22164844 H 2.5084297 c -0.5273438,0 -0.5273438,-0.046875 -0.5273438,-0.2109375 z m 2.334961,1.5351563 c 0,-0.234375 0.011719,-0.6328125 0.1875,-0.9492188 0.1523437,-0.2695312 0.46875,-0.5507812 0.9375,-0.5507812 0.09375,0 0.3164062,0.011719 0.46875,0.1289062 -0.082031,0.023437 -0.2109375,0.09375 -0.2109375,0.2695313 0,0.1523437 0.1171875,0.2578125 0.2578125,0.2578125 0.09375,0 0.2695312,-0.046875 0.2695312,-0.28125 0,-0.2695313 -0.1875,-0.5625 -0.796875,-0.5625 -0.8554687,0 -1.640625,0.703125 -1.640625,1.734375 0,1.18359371 0.5859375,1.68749996 1.3125,1.68749996 0.4921875,0 0.7265625,-0.17578125 0.890625,-0.31640625 0.3164063,-0.26953125 0.3867188,-0.5625 0.3867188,-0.80859371 0,-0.3046875 -0.09375,-0.5507813 -0.3632813,-0.7734375 -0.2109375,-0.1992188 -0.4453125,-0.3398438 -0.8789062,-0.3398438 -0.28125,0 -0.609375,0.140625 -0.8203125,0.5039063 z m 0.7851562,1.53515621 c -0.7734375,0 -0.7734375,-0.83203125 -0.7734375,-1.03125001 0,-0.3867187 0.28125,-0.8320312 0.796875,-0.8320312 0.2578125,0 0.421875,0.058594 0.5742188,0.2578125 0.1523437,0.1875 0.1523437,0.3984375 0.1523437,0.6679687 0,0.29296876 0,0.48046876 -0.1640625,0.67968751 -0.140625,0.1640625 -0.3046875,0.2578125 -0.5859375,0.2578125 z m 0,0"
       style="fill:#000000;fill-opacity:1;fill-rule:nonzero;stroke:none"
       aria-label="16"
       transform="matrix(1.3333333,0,0,1.3333333,178.40933,123.276)" />
    <path
       id="path15"
       d="m 1.9812188,-3.1630547 c 0,-0.1523437 -0.011719,-0.1523437 -0.1757813,-0.1523437 C 1.453875,-2.9989922 0.90309375,-2.9989922 0.797625,-2.9989922 H 0.7155937 v 0.2226563 H 0.797625 c 0.1171875,0 0.4335938,-0.011719 0.7265625,-0.140625 v 2.48437496 c 0,0.1640625 0,0.2109375 -0.52734375,0.2109375 H 0.75075 v 0.22265625 c 0.2695313,-0.0234375 0.7148438,-0.0234375 1.0078125,-0.0234375 0.28125,0 0.7265625,0 0.9960938,0.0234375 V -0.22164844 H 2.5085625 c -0.5273437,0 -0.5273437,-0.046875 -0.5273437,-0.2109375 z m 3.5419921,1.3710938 c 0.515625,-0.2226563 0.6796875,-0.4804688 0.6796875,-0.7617188 0,-0.5273437 -0.5742187,-0.7617187 -1.1132812,-0.7617187 -0.6210938,0 -1.125,0.3515625 -1.125,0.84375 0,0.4570312 0.3867187,0.6679687 0.65625,0.796875 -0.5273438,0.2109375 -0.8320313,0.5039062 -0.8320313,0.91406246 0,0.59765625 0.6679688,0.8671875 1.2890625,0.8671875 0.703125,0 1.3007813,-0.375 1.3007813,-0.9609375 0,-0.53906246 -0.515625,-0.79687496 -0.8554688,-0.93749996 z m -0.9726562,-0.515625 c -0.2109375,-0.1054688 -0.28125,-0.234375 -0.28125,-0.3515625 0,-0.328125 0.4101562,-0.46875 0.8085937,-0.46875 0.3984375,0 0.8203125,0.1992187 0.8203125,0.5742187 0,0.4335938 -0.5742187,0.6445313 -0.5742187,0.6445313 -0.011719,0 -0.011719,0 -0.058594,-0.023437 z m 0.28125,0.75 0.7734375,0.3867187 c 0.1757812,0.09375 0.4335937,0.23437501 0.4335937,0.50390626 0,0.3984375 -0.5039062,0.57421875 -0.9492187,0.57421875 -0.4570313,0 -0.9609375,-0.22265625 -0.9609375,-0.6796875 0,-0.49218751 0.5390625,-0.72656251 0.703125,-0.78515621 z m 0,0"
       style="fill:#000000;fill-opacity:1;fill-rule:nonzero;stroke:none"
       aria-label="18"
       transform="matrix(1.3333333,0,0,1.3333333,198.624,123.276)" />
    <path
       id="path16"
       d="M 2.9295703,-0.95992969 H 2.7186328 c -0.011719,0.09375 -0.058594,0.3984375 -0.140625,0.45703125 -0.035156,0.0234375 -0.4570312,0.0234375 -0.5273437,0.0234375 h -0.984375 c 0.328125,-0.24609375 0.703125,-0.515625 0.9960937,-0.71484376 0.4570313,-0.3164062 0.8671875,-0.5976562 0.8671875,-1.125 0,-0.6445312 -0.5976562,-0.9960937 -1.3125,-0.9960937 -0.66796874,0 -1.16015624,0.3867187 -1.16015624,0.8789062 0,0.2578125 0.2109375,0.3046875 0.28125,0.3046875 0.140625,0 0.29296874,-0.09375 0.29296874,-0.2929687 0,-0.1875 -0.12890624,-0.28125 -0.28124999,-0.2929688 0.140625,-0.234375 0.43359379,-0.375 0.76171879,-0.375 0.4804687,0 0.890625,0.28125 0.890625,0.7734375 0,0.421875 -0.2929688,0.7382813 -0.6796875,1.0546875 l -1.20703129,1.03125001 c -0.046875,0.046875 -0.0585938,0.046875 -0.0585938,0.0820313 v 0.1523437 H 2.7655078 Z M 6.3778125,-1.5927422 c 0,-0.3632812 0,-1.7226562 -1.2890625,-1.7226562 -1.3007812,0 -1.3007812,1.359375 -1.3007812,1.7226562 0,0.3632813 0,1.69921876 1.3007812,1.69921876 1.2890625,0 1.2890625,-1.33593746 1.2890625,-1.69921876 z M 5.08875,-0.05758594 c -0.1875,0 -0.609375,-0.05859375 -0.7382812,-0.5625 -0.058594,-0.26953125 -0.070312,-0.62109376 -0.070312,-1.03124996 0,-0.375 0,-0.7148438 0.082031,-0.9960938 0.1289063,-0.421875 0.5039063,-0.5039062 0.7265625,-0.5039062 0.3632813,0 0.6210938,0.1875 0.7265625,0.5390625 0.070312,0.2578125 0.070312,0.6679687 0.070312,0.9609375 0,0.3398437 0,0.73828121 -0.070312,1.04296871 -0.1289062,0.48046875 -0.5273437,0.55078125 -0.7265628,0.55078125 z m 0,0"
       style="fill:#000000;fill-opacity:1;fill-rule:nonzero;stroke:none"
       aria-label="20"
       transform="matrix(1.3333333,0,0,1.3333333,218.84,123.276)" />
    <path
       id="path17"
       d="M 2.9287031,-0.95992969 H 2.7177656 c -0.011719,0.09375 -0.058594,0.3984375 -0.140625,0.45703125 -0.035156,0.0234375 -0.4570312,0.0234375 -0.5273437,0.0234375 h -0.984375 c 0.328125,-0.24609375 0.703125,-0.515625 0.9960937,-0.71484376 0.4570313,-0.3164062 0.8671875,-0.5976562 0.8671875,-1.125 0,-0.6445312 -0.5976562,-0.9960937 -1.3125,-0.9960937 -0.66796873,0 -1.16015623,0.3867187 -1.16015623,0.8789062 0,0.2578125 0.2109375,0.3046875 0.28125,0.3046875 0.140625,0 0.29296873,-0.09375 0.29296873,-0.2929687 0,-0.1875 -0.12890623,-0.28125 -0.28124998,-0.2929688 0.140625,-0.234375 0.43359378,-0.375 0.76171878,-0.375 0.4804687,0 0.890625,0.28125 0.890625,0.7734375 0,0.421875 -0.2929688,0.7382813 -0.6796875,1.0546875 l -1.20703128,1.03125001 c -0.046875,0.046875 -0.0585938,0.046875 -0.0585938,0.0820313 v 0.1523437 H 2.7646406 Z m 3.3925781,0 H 6.1103437 c -0.011719,0.09375 -0.058594,0.3984375 -0.140625,0.45703125 -0.035156,0.0234375 -0.4570312,0.0234375 -0.5273437,0.0234375 H 4.458 c 0.328125,-0.24609375 0.703125,-0.515625 0.9960937,-0.71484376 0.4570313,-0.3164062 0.8671875,-0.5976562 0.8671875,-1.125 0,-0.6445312 -0.5976562,-0.9960937 -1.3125,-0.9960937 -0.6679687,0 -1.1601562,0.3867187 -1.1601562,0.8789062 0,0.2578125 0.2109375,0.3046875 0.28125,0.3046875 0.140625,0 0.2929687,-0.09375 0.2929687,-0.2929687 0,-0.1875 -0.1289062,-0.28125 -0.28125,-0.2929688 0.140625,-0.234375 0.4335938,-0.375 0.7617188,-0.375 0.4804687,0 0.890625,0.28125 0.890625,0.7734375 0,0.421875 -0.2929688,0.7382813 -0.6796875,1.0546875 l -1.2070313,1.03125001 c -0.046875,0.046875 -0.058594,0.046875 -0.058594,0.0820313 v 0.15234375 h 2.3085937 z m 0,0"
       style="fill:#000000;fill-opacity:1;fill-rule:nonzero;stroke:none"
       aria-label="22"
       transform="matrix(1.3333333,0,0,1.3333333,239.056,123.276)" />
    <path
       id="path18"
       d="M 2.9288359,-0.95992969 H 2.7178984 c -0.011719,0.09375 -0.058594,0.3984375 -0.140625,0.45703125 -0.035156,0.0234375 -0.4570312,0.0234375 -0.5273437,0.0234375 h -0.984375 c 0.328125,-0.24609375 0.703125,-0.515625 0.9960937,-0.71484376 0.4570313,-0.3164062 0.8671875,-0.5976562 0.8671875,-1.125 0,-0.6445312 -0.5976562,-0.9960937 -1.3125,-0.9960937 -0.66796871,0 -1.16015621,0.3867187 -1.16015621,0.8789062 0,0.2578125 0.2109375,0.3046875 0.28125,0.3046875 0.140625,0 0.29296871,-0.09375 0.29296871,-0.2929687 0,-0.1875 -0.12890621,-0.28125 -0.28124996,-0.2929688 0.140625,-0.234375 0.43359376,-0.375 0.76171876,-0.375 0.4804687,0 0.890625,0.28125 0.890625,0.7734375 0,0.421875 -0.2929688,0.7382813 -0.6796875,1.0546875 l -1.20703126,1.03125001 c -0.046875,0.046875 -0.0585938,0.046875 -0.0585938,0.0820313 v 0.1523437 H 2.7647734 Z m 3.5332032,0.15234375 V -1.0302422 H 5.8409453 v -2.1914062 c 0,-0.1171875 0,-0.1523438 -0.1289062,-0.1523438 -0.1054688,0 -0.1054688,0.011719 -0.1640625,0.082031 l -1.8398438,2.2617187 v 0.22265626 h 1.6523438 v 0.38671875 c 0,0.15234375 0,0.19921875 -0.4335938,0.19921875 H 4.7511016 v 0.22265625 c 0.234375,-0.01171875 0.5625,-0.0234375 0.8554687,-0.0234375 0.28125,0 0.609375,0.01171875 0.84375,0.0234375 V -0.22164844 H 6.2745391 c -0.4335938,0 -0.4335938,-0.046875 -0.4335938,-0.19921875 V -0.80758594 Z M 5.4073516,-2.8349297 v 1.8046875 H 3.9425078 Z m 0,0"
       style="fill:#000000;fill-opacity:1;fill-rule:nonzero;stroke:none"
       aria-label="24"
       transform="matrix(1.3333333,0,0,1.3333333,259.27067,123.276)" />
    <path
       id="path19"
       d="m 2.9884219,-1.5946953 c 0,-0.3632813 0,-1.7226563 -1.2890625,-1.7226563 -1.30078127,0 -1.30078127,1.359375 -1.30078127,1.7226563 0,0.3632812 0,1.69921874 1.30078127,1.69921874 1.2890625,0 1.2890625,-1.33593754 1.2890625,-1.69921874 z m -1.2890625,1.53515624 c -0.1875,0 -0.609375,-0.05859375 -0.73828127,-0.5625 -0.0585938,-0.26953125 -0.0703125,-0.62109374 -0.0703125,-1.03125004 0,-0.375 0,-0.7148437 0.0820313,-0.9960937 0.12890617,-0.421875 0.50390627,-0.5039063 0.72656257,-0.5039063 0.3632812,0 0.6210937,0.1875 0.7265625,0.5390625 0.070312,0.2578125 0.070312,0.6679688 0.070312,0.9609375 0,0.3398438 0,0.73828129 -0.070312,1.04296879 -0.1289063,0.48046875 -0.5273438,0.55078125 -0.7265626,0.55078125 z m 0,0"
       style="fill:#000000;fill-opacity:1;fill-rule:nonzero;stroke:none"
       aria-label="0"
       transform="matrix(1.3333333,0,0,1.3333333,11.992,116.44267)" />
    <g
       id="g19"
       aria-label="0.2"
       transform="matrix(1.3333333,0,0,1.3333333,4.428,98.161333)">
      <path
         id="path20"
         d="m 2.9895469,-1.5946328 c 0,-0.3632813 0,-1.7226563 -1.2890625,-1.7226563 -1.30078128,0 -1.30078128,1.359375 -1.30078128,1.7226563 0,0.3632812 0,1.69921874 1.30078128,1.69921874 1.2890625,0 1.2890625,-1.33593754 1.2890625,-1.69921874 z m -1.2890625,1.53515624 c -0.1875,0 -0.609375,-0.05859375 -0.73828128,-0.5625 -0.0585938,-0.26953125 -0.0703125,-0.62109374 -0.0703125,-1.03125004 0,-0.375 0,-0.7148437 0.0820313,-0.9960937 0.12890628,-0.421875 0.50390628,-0.5039063 0.72656258,-0.5039063 0.3632812,0 0.6210937,0.1875 0.7265625,0.5390625 0.070312,0.2578125 0.070312,0.6679688 0.070312,0.9609375 0,0.3398438 0,0.73828129 -0.070312,1.04296879 -0.1289063,0.48046875 -0.5273438,0.55078125 -0.7265626,0.55078125 z m 0,0"
         style="fill:#000000;fill-opacity:1;fill-rule:nonzero;stroke:none" />
      <path
         id="path21"
         d="m 4.8323203,-0.30557031 c 0,-0.1640625 -0.140625,-0.3046875 -0.3046875,-0.3046875 -0.1640625,0 -0.3046875,0.140625 -0.3046875,0.3046875 0,0.1640625 0.140625,0.3046874975 0.3046875,0.3046874975 0.1640625,0 0.3046875,-0.1406249975 0.3046875,-0.3046874975 z m 0,0"
         style="fill:#000000;fill-opacity:1;fill-rule:nonzero;stroke:none" />
      <path
         id="path22"
         d="M 8.6028281,-0.96182031 H 8.3918906 c -0.011719,0.09375 -0.058594,0.3984375 -0.140625,0.45703125 -0.035156,0.0234375 -0.4570312,0.0234375 -0.5273437,0.0234375 h -0.984375 c 0.328125,-0.24609375 0.703125,-0.515625 0.9960937,-0.71484374 0.4570313,-0.3164063 0.8671875,-0.5976563 0.8671875,-1.125 0,-0.6445313 -0.5976562,-0.9960938 -1.3125,-0.9960938 -0.6679687,0 -1.1601562,0.3867188 -1.1601562,0.8789063 0,0.2578125 0.2109375,0.3046875 0.28125,0.3046875 0.140625,0 0.2929687,-0.09375 0.2929687,-0.2929688 0,-0.1875 -0.1289062,-0.28125 -0.28125,-0.2929687 0.140625,-0.234375 0.4335938,-0.375 0.7617188,-0.375 0.4804687,0 0.890625,0.28125 0.890625,0.7734375 0,0.421875 -0.2929688,0.7382812 -0.6796875,1.0546875 l -1.2070313,1.03124999 c -0.046875,0.046875 -0.058594,0.046875 -0.058594,0.0820313 v 0.1523437475 h 2.3085937 z m 0,0"
         style="fill:#000000;fill-opacity:1;fill-rule:nonzero;stroke:none" />
    </g>
    <g
       id="g22"
       aria-label="0.4"
       transform="matrix(1.3333333,0,0,1.3333333,4.428,79.88)">
      <path
         id="path23"
         d="m 2.9895469,-1.5945703 c 0,-0.3632813 0,-1.7226563 -1.2890625,-1.7226563 -1.30078128,0 -1.30078128,1.359375 -1.30078128,1.7226563 0,0.3632812 0,1.69921874 1.30078128,1.69921874 1.2890625,0 1.2890625,-1.33593754 1.2890625,-1.69921874 z m -1.2890625,1.53515624 c -0.1875,0 -0.609375,-0.05859375 -0.73828128,-0.5625 -0.0585938,-0.26953125 -0.0703125,-0.62109374 -0.0703125,-1.03125004 0,-0.375 0,-0.7148437 0.0820313,-0.9960937 0.12890628,-0.421875 0.50390628,-0.5039063 0.72656258,-0.5039063 0.3632812,0 0.6210937,0.1875 0.7265625,0.5390625 0.070312,0.2578125 0.070312,0.6679688 0.070312,0.9609375 0,0.3398438 0,0.73828129 -0.070312,1.04296879 -0.1289063,0.48046875 -0.5273438,0.55078125 -0.7265626,0.55078125 z m 0,0"
         style="fill:#000000;fill-opacity:1;fill-rule:nonzero;stroke:none" />
      <path
         id="path24"
         d="m 4.8323203,-0.30550781 c 0,-0.1640625 -0.140625,-0.3046875 -0.3046875,-0.3046875 -0.1640625,0 -0.3046875,0.140625 -0.3046875,0.3046875 0,0.1640625 0.140625,0.3046874975 0.3046875,0.3046874975 0.1640625,0 0.3046875,-0.1406249975 0.3046875,-0.3046874975 z m 0,0"
         style="fill:#000000;fill-opacity:1;fill-rule:nonzero;stroke:none" />
      <path
         id="path25"
         d="M 8.7434531,-0.80941406 V -1.0320703 H 8.1223594 v -2.1914063 c 0,-0.1171875 0,-0.1523437 -0.1289063,-0.1523437 -0.1054687,0 -0.1054687,0.011719 -0.1640625,0.082031 l -1.8398437,2.2617188 v 0.22265624 h 1.6523437 v 0.38671875 c 0,0.15234375 0,0.19921875 -0.4335937,0.19921875 H 7.0325156 v 0.2226562475 c 0.234375,-0.0117187475 0.5625,-0.0234374975 0.8554688,-0.0234374975 0.28125,0 0.609375,0.01171875 0.84375,0.0234374975 V -0.22347656 H 8.5559531 c -0.4335937,0 -0.4335937,-0.046875 -0.4335937,-0.19921875 V -0.80941406 Z M 7.6887656,-2.8367578 v 1.8046875 H 6.2239219 Z m 0,0"
         style="fill:#000000;fill-opacity:1;fill-rule:nonzero;stroke:none" />
    </g>
    <g
       id="g25"
       aria-label="0.6"
       transform="matrix(1.3333333,0,0,1.3333333,4.428,61.6)">
      <path
         id="path26"
         d="m 2.9895469,-1.5925781 c 0,-0.3632813 0,-1.7226563 -1.2890625,-1.7226563 -1.30078128,0 -1.30078128,1.359375 -1.30078128,1.7226563 0,0.3632812 0,1.69921873 1.30078128,1.69921873 1.2890625,0 1.2890625,-1.33593753 1.2890625,-1.69921873 z m -1.2890625,1.53515623 c -0.1875,0 -0.609375,-0.05859375 -0.73828128,-0.5625 -0.0585938,-0.26953125 -0.0703125,-0.62109373 -0.0703125,-1.03125003 0,-0.375 0,-0.7148437 0.0820313,-0.9960937 0.12890628,-0.421875 0.50390628,-0.5039063 0.72656258,-0.5039063 0.3632812,0 0.6210937,0.1875 0.7265625,0.5390625 0.070312,0.2578125 0.070312,0.6679688 0.070312,0.9609375 0,0.3398438 0,0.73828128 -0.070312,1.04296878 -0.1289063,0.48046875 -0.5273438,0.55078125 -0.7265626,0.55078125 z m 0,0"
         style="fill:#000000;fill-opacity:1;fill-rule:nonzero;stroke:none" />
      <path
         id="path27"
         d="m 4.8323203,-0.30351562 c 0,-0.1640625 -0.140625,-0.3046875 -0.3046875,-0.3046875 -0.1640625,0 -0.3046875,0.140625 -0.3046875,0.3046875 0,0.1640625 0.140625,0.3046875 0.3046875,0.3046875 0.1640625,0 0.3046875,-0.140625 0.3046875,-0.3046875 z m 0,0"
         style="fill:#000000;fill-opacity:1;fill-rule:nonzero;stroke:none" />
      <path
         id="path28"
         d="m 6.5989219,-1.6277344 c 0,-0.234375 0.011719,-0.6328125 0.1875,-0.9492187 0.1523437,-0.2695313 0.46875,-0.5507813 0.9375,-0.5507813 0.09375,0 0.3164062,0.011719 0.46875,0.1289063 -0.082031,0.023437 -0.2109375,0.09375 -0.2109375,0.2695312 0,0.1523438 0.1171875,0.2578125 0.2578125,0.2578125 0.09375,0 0.2695312,-0.046875 0.2695312,-0.28125 0,-0.2695312 -0.1875,-0.5625 -0.796875,-0.5625 -0.8554687,0 -1.640625,0.703125 -1.640625,1.734375 0,1.18359378 0.5859375,1.68750003 1.3125,1.68750003 0.4921875,0 0.7265625,-0.17578125 0.890625,-0.31640625 0.3164063,-0.26953125 0.3867188,-0.5625 0.3867188,-0.80859378 0,-0.3046875 -0.09375,-0.5507812 -0.3632813,-0.7734375 -0.2109375,-0.1992187 -0.4453125,-0.3398437 -0.8789062,-0.3398437 -0.28125,0 -0.609375,0.140625 -0.8203125,0.5039062 z m 0.7851562,1.53515628 c -0.7734375,0 -0.7734375,-0.83203125 -0.7734375,-1.03124998 0,-0.3867188 0.28125,-0.8320313 0.796875,-0.8320313 0.2578125,0 0.421875,0.058594 0.5742188,0.2578125 0.1523437,0.1875 0.1523437,0.3984375 0.1523437,0.6679688 0,0.29296873 0,0.48046873 -0.1640625,0.67968748 -0.140625,0.1640625 -0.3046875,0.2578125 -0.5859375,0.2578125 z m 0,0"
         style="fill:#000000;fill-opacity:1;fill-rule:nonzero;stroke:none" />
    </g>
    <g
       id="g28"
       aria-label="0.8"
       transform="matrix(1.3333333,0,0,1.3333333,4.428,43.318667)">
      <path
         id="path29"
         d="m 2.9895469,-1.5925156 c 0,-0.3632813 0,-1.7226563 -1.2890625,-1.7226563 -1.30078128,0 -1.30078128,1.359375 -1.30078128,1.7226563 0,0.3632812 0,1.69921873 1.30078128,1.69921873 1.2890625,0 1.2890625,-1.33593753 1.2890625,-1.69921873 z m -1.2890625,1.53515623 c -0.1875,0 -0.609375,-0.05859375 -0.73828128,-0.5625 -0.0585938,-0.26953125 -0.0703125,-0.62109373 -0.0703125,-1.03125003 0,-0.375 0,-0.7148437 0.0820313,-0.9960937 0.12890628,-0.421875 0.50390628,-0.5039063 0.72656258,-0.5039063 0.3632812,0 0.6210937,0.1875 0.7265625,0.5390625 0.070312,0.2578125 0.070312,0.6679688 0.070312,0.9609375 0,0.3398438 0,0.73828128 -0.070312,1.04296878 -0.1289063,0.48046875 -0.5273438,0.55078125 -0.7265626,0.55078125 z m 0,0"
         style="fill:#000000;fill-opacity:1;fill-rule:nonzero;stroke:none" />
      <path
         id="path30"
         d="m 4.8323203,-0.30345312 c 0,-0.1640625 -0.140625,-0.3046875 -0.3046875,-0.3046875 -0.1640625,0 -0.3046875,0.140625 -0.3046875,0.3046875 0,0.1640625 0.140625,0.3046875 0.3046875,0.3046875 0.1640625,0 0.3046875,-0.140625 0.3046875,-0.3046875 z m 0,0"
         style="fill:#000000;fill-opacity:1;fill-rule:nonzero;stroke:none" />
      <path
         id="path31"
         d="m 7.8059531,-1.7917344 c 0.515625,-0.2226562 0.6796875,-0.4804687 0.6796875,-0.7617187 0,-0.5273438 -0.5742187,-0.7617188 -1.1132812,-0.7617188 -0.6210938,0 -1.125,0.3515625 -1.125,0.84375 0,0.4570313 0.3867187,0.6679688 0.65625,0.796875 -0.5273438,0.2109375 -0.8320313,0.5039063 -0.8320313,0.91406253 0,0.59765625 0.6679688,0.8671875 1.2890625,0.8671875 0.703125,0 1.3007813,-0.375 1.3007813,-0.9609375 0,-0.53906253 -0.515625,-0.79687503 -0.8554688,-0.93750003 z m -0.9726562,-0.515625 c -0.2109375,-0.1054687 -0.28125,-0.234375 -0.28125,-0.3515625 0,-0.328125 0.4101562,-0.46875 0.8085937,-0.46875 0.3984375,0 0.8203125,0.1992188 0.8203125,0.5742188 0,0.4335937 -0.5742187,0.6445312 -0.5742187,0.6445312 -0.011719,0 -0.011719,0 -0.058594,-0.023437 z m 0.28125,0.75 0.7734375,0.3867188 c 0.1757812,0.09375 0.4335937,0.23437498 0.4335937,0.50390623 0,0.3984375 -0.5039062,0.57421875 -0.9492187,0.57421875 -0.4570313,0 -0.9609375,-0.22265625 -0.9609375,-0.6796875 0,-0.49218748 0.5390625,-0.72656248 0.703125,-0.78515628 z m 0,0"
         style="fill:#000000;fill-opacity:1;fill-rule:nonzero;stroke:none" />
    </g>
    <path
       id="path32"
       d="m 1.9806094,-3.1627656 c 0,-0.1523438 -0.011719,-0.1523438 -0.1757813,-0.1523438 -0.3515625,0.3164063 -0.90234372,0.3164063 -1.00781247,0.3164063 h -0.0820313 v 0.2226562 h 0.0820313 c 0.1171875,0 0.43359377,-0.011719 0.72656247,-0.140625 v 2.48437503 c 0,0.1640625 0,0.2109375 -0.52734372,0.2109375 H 0.75014063 v 0.22265625 c 0.26953127,-0.0234375 0.71484377,-0.0234375 1.00781247,-0.0234375 0.28125,0 0.7265625,0 0.9960938,0.0234375 V -0.22135937 H 2.5079531 c -0.5273437,0 -0.5273437,-0.046875 -0.5273437,-0.2109375 z m 0,0"
       style="fill:#000000;fill-opacity:1;fill-rule:nonzero;stroke:none"
       aria-label="1"
       transform="matrix(1.3333333,0,0,1.3333333,11.992,25.037333)" />
    <path
       id="path33"
       d="m 128.23888,0 h 1.266 v 68.55484 h -1.266"
       style="fill:#808080;fill-opacity:0.3;fill-rule:nonzero;stroke:none"
       transform="matrix(1.3333333,0,0,-1.3333333,21.205333,114.30267)"
       clip-path="url(#clipPath34)" />
    <path
       id="path35"
       d="m 134.56137,0 h 12.63739 v 68.55484 h -12.63739"
       style="fill:#808080;fill-opacity:0.3;fill-rule:nonzero;stroke:none"
       transform="matrix(1.3333333,0,0,-1.3333333,21.205333,114.30267)"
       clip-path="url(#clipPath36)" />
    <path
       id="path37"
       d="M 0,1.71387 H 7.58092 V 1.02832 h 7.58091 V 0.95975 h 7.58094 v 0.06857 h 7.58091 V 1.09686 H 37.9046 V 0.95975 h 7.58093 v 0.34277 h 7.58092 v 0.41135 h 7.58092 V 1.43964 H 68.2283 V 1.5082 h 7.58092 V 1.23396 h 7.58092 v 0.61701 h 7.58093 v 1.57676 h 7.58092 V 2.39941 h 7.58091 v 0.20565 h 7.58094 V 3.0164 h 7.58091 v 5.21018 h 7.58092 v 27.69615 h 7.58093 v 32.63211 h 7.58092 V 21.59477 h 7.58092 V 9.66621 h 7.58093 V 6.30704 h 7.58092 V 3.0164 h 7.58091 V 1.3711 h 7.58094 v 0"
       style="fill:none;stroke:#266bbd;stroke-width:1.19553;stroke-linecap:butt;stroke-linejoin:miter;stroke-miterlimit:10;stroke-dasharray:none;stroke-opacity:1"
       transform="matrix(1.3333333,0,0,-1.3333333,21.205333,114.30267)"
       clip-path="url(#clipPath38)" />
    <path
       id="path39"
       d="m 0,40.85867 h 7.58092 v -2.39943 h 7.58091 v -1.16542 h 7.58094 v -1.23399 h 7.58091 v 0 H 37.9046 V 34.8944 h 7.58093 v 2.39942 h 7.58092 v 4.79885 h 7.58092 v 2.39941 h 7.58093 v 4.79884 h 7.58092 v 2.39942 h 7.58092 v 2.39941 h 7.58093 v 1.234 h 7.58092 v 0 h 7.58091 v 1.23399 h 7.58094 v 2.39941 h 7.58091 v 2.39943 h 7.58092 V 63.756 h 7.58093 v 1.16542 h 7.58092 V 63.756 h 7.58092 v -4.79885 h 7.58093 v -1.23399 h 7.58092 v -3.63341 h 7.58091 v -5.96426 h 7.58094 v 0"
       style="fill:none;stroke:#f46e2b;stroke-width:1.19553;stroke-linecap:butt;stroke-linejoin:miter;stroke-miterlimit:10;stroke-dasharray:1.19553, 0.99628;stroke-dashoffset:0;stroke-opacity:1"
       transform="matrix(1.3333333,0,0,-1.3333333,21.205333,114.30267)"
       clip-path="url(#clipPath40)" />
    <path
       id="path41"
       d="m 0,45.72607 h 7.58092 v 0 h 7.58091 v -3.6334 h 7.58094 v -2.39943 h 7.58091 v -1.234 h 7.58092 v 0 h 7.58093 v 0 h 7.58092 v 4.8674 h 7.58092 v 5.96428 h 7.58093 v 4.79883 h 7.58092 v 1.234 h 7.58092 v 1.23399 h 7.58093 v 2.39941 h 7.58092 v 1.16544 h 7.58091 v 1.23399 h 7.58094 V 63.756 h 7.58091 v 1.16542 h 7.58092 v 3.63342 h 7.58093 v 0 h 7.58092 v -2.39943 h 7.58092 V 63.756 h 7.58093 v -2.39942 h 7.58092 v -3.63342 h 7.58091 v -3.63341 h 7.58094 v 0"
       style="fill:none;stroke:#b5251c;stroke-width:1.19553;stroke-linecap:butt;stroke-linejoin:miter;stroke-miterlimit:10;stroke-dasharray:2.98883, 1.99255;stroke-dashoffset:0;stroke-opacity:1"
       transform="matrix(1.3333333,0,0,-1.3333333,21.205333,114.30267)"
       clip-path="url(#clipPath42)" />
    <path
       id="path43"
       d="m 3.9143047,-2.9753828 c 0,-0.1523438 0,-0.2109375 0.3984375,-0.2109375 h 0.1523437 v -0.2109375 c -0.2226562,0.011719 -0.5273437,0.011719 -0.8085937,0.011719 -0.2929688,0 -0.5976563,0 -0.8203125,-0.011719 v 0.2109375 h 0.1523437 c 0.3984375,0 0.3984375,0.058594 0.3984375,0.2109375 v 1.1015625 H 1.5002422 v -1.1015625 c 0,-0.1523438 0,-0.2109375 0.3984375,-0.2109375 h 0.1523437 v -0.2109375 c -0.2226562,0.011719 -0.5390625,0.011719 -0.8203125,0.011719 -0.28124996,0 -0.59765621,0 -0.82031246,-0.011719 v 0.2109375 h 0.15234375 c 0.3984375,0 0.3984375,0.058594 0.3984375,0.2109375 v 2.55468749 c 0,0.15234375 0,0.19921875 -0.3984375,0.19921875 H 0.41039844 v 0.22265625 c 0.22265625,-0.01171875 0.5390625,-0.0234375 0.82031246,-0.0234375 0.28125,0 0.5976563,0.01171875 0.8203125,0.0234375 V -0.22147656 H 1.8986797 c -0.3984375,0 -0.3984375,-0.046875 -0.3984375,-0.19921875 V -1.6628828 h 1.8867187 v 1.24218749 c 0,0.15234375 0,0.19921875 -0.3984375,0.19921875 H 2.8361797 v 0.22265625 c 0.2226562,-0.01171875 0.5273437,-0.0234375 0.8203125,-0.0234375 0.28125,0 0.5859375,0.01171875 0.8085937,0.0234375 V -0.22147656 H 4.3127422 c -0.3984375,0 -0.3984375,-0.046875 -0.3984375,-0.19921875 z m 4.0283203,1.9101562 c 0,-0.6210937 -0.5859375,-1.1601562 -1.359375,-1.1601562 -0.7851562,0 -1.3710937,0.5390625 -1.3710937,1.1601562 0,0.59765629 0.5859375,1.12500004 1.3710937,1.12500004 0.7734375,0 1.359375,-0.52734375 1.359375,-1.12500004 z M 6.58325,-0.12772656 c -0.8789062,0 -0.8789062,-0.73828125 -0.8789062,-0.98437504 0,-0.2226562 0,-0.9492187 0.8789062,-0.9492187 0.8671875,0 0.8671875,0.7265625 0.8671875,0.9492187 0,0.24609379 0,0.98437504 -0.8671875,0.98437504 z m 3.823242,-2.01562504 v 0.2226563 c 0.363281,0 0.410156,0.023437 0.410156,0.2695312 v 0.82031254 c 0,0.45703125 -0.339843,0.7265625 -0.75,0.7265625 -0.5039058,0 -0.5273433,-0.2109375 -0.5273433,-0.45703125 V -2.2019453 l -0.8554688,0.058594 v 0.2226563 c 0.3867188,0 0.4101563,0.035156 0.4101563,0.2929687 v 1.07812504 c 0.046875,0.5625 0.609375,0.609375 0.9374998,0.609375 0.410156,0 0.65625,-0.1875 0.808594,-0.421875 v 0.421875 l 0.832031,-0.05859375 v -0.22265625 c -0.363281,0 -0.410156,-0.0351563 -0.410156,-0.28125 V -2.2019453 Z m 2.824219,1.03125 c 0,-0.46875 0.257812,-0.9140625 0.738281,-0.9257812 -0.01172,0.011719 -0.07031,0.070313 -0.07031,0.1757812 0,0.1875 0.140625,0.2578125 0.246093,0.2578125 0.128907,0 0.257813,-0.082031 0.257813,-0.2578125 0,-0.1875 -0.1875,-0.3398437 -0.445313,-0.3398437 -0.246093,0 -0.574218,0.1289062 -0.761718,0.5507812 h -0.01172 v -0.5507812 l -0.796875,0.058594 v 0.2226563 c 0.375,0 0.421875,0.023437 0.421875,0.2695312 v 1.23046879 c 0,0.15234375 0,0.19921875 -0.328125,0.19921875 h -0.09375 v 0.22265625 c 0.210937,-0.01171875 0.433594,-0.0234375 0.644531,-0.0234375 0.257813,0 0.503906,0.01171875 0.714844,0.0234375 v -0.22265625 h -0.140625 c -0.375,0 -0.375,-0.046875 -0.375,-0.19921875 z m 6.887695,0.046875 c 0,-0.6210937 -0.585937,-1.1601562 -1.359375,-1.1601562 -0.785156,0 -1.371093,0.5390625 -1.371093,1.1601562 0,0.59765629 0.585937,1.12500004 1.371093,1.12500004 0.773438,0 1.359375,-0.52734375 1.359375,-1.12500004 z m -1.359375,0.93750004 c -0.878906,0 -0.878906,-0.73828125 -0.878906,-0.98437504 0,-0.2226562 0,-0.9492187 0.878906,-0.9492187 0.867188,0 0.867188,0.7265625 0.867188,0.9492187 0,0.24609379 0,0.98437504 -0.867188,0.98437504 z m 2.944336,-1.79296874 h 0.703125 V -2.1433516 H 21.67993 v -0.5390625 c 0,-0.46875 0.316406,-0.6679687 0.539062,-0.6679687 0.03516,0 0.140625,0.011719 0.140625,0.035156 h -0.01172 c -0.03516,0.035156 -0.08203,0.09375 -0.08203,0.1992188 0,0.140625 0.105469,0.2578125 0.257813,0.2578125 0.164062,0 0.257812,-0.1171875 0.257812,-0.2578125 0,-0.2226563 -0.210937,-0.3984375 -0.550781,-0.3984375 -0.433594,0 -0.949219,0.28125 -0.949219,0.8203125 v 0.5507812 h -0.480469 v 0.2226563 h 0.480469 v 1.49999999 c 0,0.15234375 0,0.19921875 -0.328125,0.19921875 h -0.08203 v 0.22265625 c 0.210937,-0.01171875 0.433594,-0.0234375 0.644531,-0.0234375 0.257813,0 0.492188,0.01171875 0.703125,0.0234375 v -0.22265625 h -0.128906 c -0.386719,0 -0.386719,-0.046875 -0.386719,-0.19921875 z m 5.375977,-1.4765625 v 0.2109375 c 0.375,0 0.421875,0.035156 0.421875,0.28125 v 0.9726562 c -0.117188,-0.09375 -0.386719,-0.2695312 -0.796875,-0.2695312 -0.75,0 -1.359375,0.5039062 -1.359375,1.1367187 0,0.59765629 0.5625,1.12500004 1.300781,1.12500004 0.410156,0 0.691406,-0.1875 0.832031,-0.3046875 v 0.3046875 L 28.33325,0.00117969 v -0.22265625 c -0.363281,0 -0.410156,-0.0351563 -0.410156,-0.28125 V -3.4558516 Z m 0.398437,2.85937499 c -0.234375,0.36328125 -0.609375,0.43359375 -0.796875,0.43359375 -0.257812,0 -0.503906,-0.10546875 -0.667968,-0.328125 -0.164063,-0.19921875 -0.175782,-0.48046875 -0.175782,-0.63281254 0,-0.140625 0.01172,-0.46875 0.222657,-0.6914062 0.175781,-0.1875 0.433593,-0.28125 0.679687,-0.28125 0.140625,0 0.503906,0.035156 0.738281,0.375 z m 3.840821,-0.93749999 c 0,-0.4804688 -0.503907,-0.75 -1.113282,-0.75 -0.304687,0 -0.890625,0.011719 -0.890625,0.4335937 0,0.1875 0.140625,0.2695313 0.269532,0.2695313 0.128906,0 0.257812,-0.09375 0.257812,-0.2695313 0,-0.1171875 -0.05859,-0.1875 -0.105469,-0.2226562 0.164063,-0.046875 0.398438,-0.046875 0.457032,-0.046875 0.421875,0 0.679687,0.234375 0.679687,0.5859375 v 0.1289062 c -0.480469,0.023437 -0.75,0.046875 -1.125,0.1757813 -0.328125,0.1171875 -0.621094,0.32812499 -0.621094,0.64453124 0,0.46875 0.574219,0.5859375 0.972657,0.5859375 0.386718,0 0.679687,-0.1640625 0.84375,-0.41015625 0.01172,0.17578125 0.128906,0.38671875 0.386718,0.38671875 0.03516,0 0.597657,0 0.597657,-0.48046875 v -0.28125 h -0.210938 v 0.26953125 c 0,0.046875 0,0.26953125 -0.199219,0.26953125 -0.199218,0 -0.199218,-0.22265625 -0.199218,-0.26953125 z m -0.445313,0.77343749 c 0,0.5390625 -0.597656,0.59765625 -0.714844,0.59765625 -0.292968,0 -0.574218,-0.1640625 -0.574218,-0.421875 0,-0.1640625 0.105468,-0.62109374 1.289062,-0.66796874 z m 3.805664,-0.91406249 c 0.05859,-0.1171875 0.164063,-0.3046875 0.539063,-0.3046875 v -0.2226563 c -0.105469,0.011719 -0.257813,0.023437 -0.445313,0.023437 -0.152344,0 -0.339844,-0.011719 -0.503906,-0.023437 v 0.2226563 c 0.140625,0 0.222656,0.070312 0.222656,0.1640625 0,0.046875 -0.02344,0.082031 -0.03516,0.1171875 L 33.835199,-0.45585156 33.16723,-1.7449141 c -0.03516,-0.046875 -0.03516,-0.070312 -0.03516,-0.082031 0,-0.09375 0.128906,-0.09375 0.269531,-0.09375 v -0.2226563 c -0.210937,0.011719 -0.421875,0.023437 -0.632812,0.023437 -0.199219,0 -0.328125,0 -0.550781,-0.023437 v 0.2226563 c 0.351562,0 0.375,0.011719 0.445312,0.1523437 l 0.9375,1.76953129 c -0.210937,0.43359375 -0.421875,0.85546875 -0.832031,0.85546875 -0.128906,0 -0.164063,-0.0234375 -0.222656,-0.0585938 0.03516,-0.0117188 0.140625,-0.0703125 0.140625,-0.22265625 0,-0.15234375 -0.117188,-0.24609375 -0.246094,-0.24609375 -0.117188,0 -0.246094,0.0703125 -0.246094,0.2578125 0,0.24609375 0.257813,0.43359366 0.574219,0.43359366 0.292969,0 0.621094,-0.18749991 0.855469,-0.62109366 z m 5.364258,-2.0039063 c 0,0 0.02344,-0.023437 0.02344,-0.046875 0,-0.023437 -0.01172,-0.070312 -0.09375,-0.070312 -0.09375,0 -1.371093,0.796875 -1.371093,2.4960938 0,1.68749999 1.277343,2.484375 1.371093,2.484375 0.08203,0 0.09375,-0.046875 0.09375,-0.070312 0,-0.035156 -0.02344,-0.046875 -0.04687,-0.058594 -0.878906,-0.70312496 -1.042968,-1.71093746 -1.042968,-2.3554687 0,-1.21875 0.574218,-2.0273438 1.066406,-2.3789063 z m 2.370117,2.74218754 V -1.2644453 h -1.652344 v 0.38671874 z m 2.43457,-0.36328124 c 0,-1.6875 -1.277343,-2.4960938 -1.382812,-2.4960938 -0.07031,0 -0.07031,0.058594 -0.07031,0.070312 0,0.011719 0,0.035156 0.02344,0.070312 0.75,0.5859375 1.042969,1.453125 1.042969,2.3554688 0,0.44531249 -0.08203,0.91406249 -0.246094,1.32421874 -0.246094,0.5625 -0.550781,0.84375 -0.796875,1.04296876 -0.01172,0 -0.02344,0.035156 -0.02344,0.046875 0,0.011719 0,0.070312 0.07031,0.070312 0.105469,0 1.382812,-0.79687501 1.382812,-2.484375 z m 0,0"
       style="fill:#000000;fill-opacity:1;fill-rule:nonzero;stroke:none"
       aria-label="Hourofday(-)"
       transform="matrix(1.3333333,0,0,1.3333333,112.09733,137.37733)" />
    <path
       id="path44"
       d="m 1.9795234,-3.1650078 c 0,-0.1523438 -0.011719,-0.1523438 -0.1757812,-0.1523438 -0.3515625,0.3164063 -0.90234376,0.3164063 -1.00781251,0.3164063 h -0.0820313 v 0.2226562 h 0.0820313 c 0.1171875,0 0.43359371,-0.011719 0.72656251,-0.140625 v 2.48437504 c 0,0.1640625 0,0.2109375 -0.52734376,0.2109375 H 0.74905469 V -9.453125e-4 C 1.0185859,-0.02438281 1.4638984,-0.02438281 1.7568672,-0.02438281 c 0.28125,0 0.7265625,0 0.9960937,0.0234374975 V -0.22360156 H 2.5068672 c -0.5273438,0 -0.5273438,-0.046875 -0.5273438,-0.2109375 z m 6.375,-0.2695313 c -0.035156,-0.09375 -0.058594,-0.1289062 -0.1757812,-0.1289062 -0.082031,0 -0.1289063,0.011719 -0.1757813,0.1171875 L 6.7256172,-0.51657031 C 6.6084297,-0.27047656 6.3388984,-0.22360156 6.0928047,-0.22360156 V -9.453125e-4 C 6.2803047,-0.01266406 6.4912422,-0.02438281 6.6670234,-0.02438281 c 0.070312,0 0.421875,0.01171875 0.65625,0.0234374975 V -0.22360156 c -0.28125,0 -0.3867187,-0.1171875 -0.3867187,-0.2109375 0,-0.0351563 0.011719,-0.046875 0.035156,-0.09375 L 7.2295234,-1.1142266 h 1.59375 l 0.3046875,0.70312504 c 0.035156,0.0585938 0.035156,0.0703125 0.035156,0.0703125 0,0.1171875 -0.2929688,0.1171875 -0.4335938,0.1171875 v 0.2226562475 c 0.1992188,0 0.5625,-0.0234374975 0.8085938,-0.0234374975 0.2578125,0 0.5156251,0.01171875 0.7265631,0.0234374975 V -0.22360156 h -0.128907 c -0.3046874,0 -0.3749999,-0.0234375 -0.4453124,-0.1640625 z m -0.328125,0.5039063 0.703125,1.6054687 h -1.40625 z m 4.7314456,0.7851562 v 0.2226563 c 0.363281,0 0.410156,0.023437 0.410156,0.2695312 v 0.82031254 c 0,0.45703125 -0.339844,0.7265625 -0.75,0.7265625 -0.503906,0 -0.527344,-0.2109375 -0.527344,-0.45703125 V -2.2040703 l -0.855468,0.058594 V -1.92282 c 0.386718,0 0.410156,0.035156 0.410156,0.2929687 v 1.07812504 c 0.04687,0.5625 0.609375,0.609375 0.9375,0.609375 0.410156,0 0.65625,-0.1875 0.808594,-0.421875 v 0.421875 L 14.023469,-9.453125e-4 V -0.22360156 c -0.363281,0 -0.410156,-0.0351562 -0.410156,-0.28125 V -2.2040703 Z m 3.902344,0.2109375 c 0.234375,-0.1523437 0.457031,-0.1523437 0.539062,-0.1640625 -0.01172,0.023437 -0.04687,0.058594 -0.04687,0.1289063 0,0.09375 0.07031,0.1757812 0.1875,0.1757812 0.117188,0 0.1875,-0.082031 0.1875,-0.1757812 0,-0.1289063 -0.105469,-0.2929688 -0.339844,-0.2929688 -0.128906,0 -0.386718,0.035156 -0.65625,0.234375 -0.105468,-0.070312 -0.339843,-0.1757812 -0.644531,-0.1757812 -0.585937,0 -0.996094,0.3515625 -0.996094,0.7382812 0,0.2460938 0.1875,0.4335938 0.257813,0.49218754 -0.117188,0.140625 -0.152344,0.29296875 -0.152344,0.41015625 0,0.2578125 0.175781,0.421875 0.222656,0.45703125 -0.257812,0.0703125 -0.539062,0.22265625 -0.539062,0.4921875 0,0.38671875 0.65625,0.64453126 1.382812,0.64453126 0.65625,0 1.371094,-0.22265626 1.371094,-0.65625001 0,-0.22265625 -0.128906,-0.46875 -0.375,-0.5859375 -0.328125,-0.15234375 -0.644531,-0.15234375 -1.183594,-0.15234375 -0.117187,0 -0.339843,0 -0.363281,-0.0117188 -0.246094,-0.0351563 -0.292969,-0.234375 -0.292969,-0.328125 0,-0.09375 0.04687,-0.17578125 0.05859,-0.17578125 0.01172,0 0.02344,0 0.03516,0.0117188 0.199219,0.10546875 0.398438,0.12890625 0.574219,0.12890625 0.585938,0 0.996094,-0.35156254 0.996094,-0.72656254 0,-0.2460937 -0.164063,-0.421875 -0.222656,-0.46875 z m -0.773438,1.03125004 c -0.433594,0 -0.5625,-0.29296874 -0.5625,-0.56250004 0,-0.28125 0.128906,-0.5742187 0.5625,-0.5742187 0.433594,0 0.550781,0.2929687 0.550781,0.5742187 0,0.2695313 -0.117187,0.56250004 -0.550781,0.56250004 z m 0,0.9140625 c 0.503906,0 1.207031,0 1.207031,0.375 0,0.24609375 -0.445312,0.48046875 -1.03125,0.48046875 -0.574218,0 -1.042968,-0.22265625 -1.042968,-0.4921875 0,-0.15234375 0.175781,-0.36328125 0.550781,-0.36328125 z m 3.999023,-2.15625004 v 0.2226563 c 0.363282,0 0.410157,0.023437 0.410157,0.2695312 v 0.82031254 c 0,0.45703125 -0.339844,0.7265625 -0.75,0.7265625 -0.503907,0 -0.527344,-0.2109375 -0.527344,-0.45703125 V -2.2040703 l -0.855469,0.058594 V -1.92282 c 0.386719,0 0.410156,0.035156 0.410156,0.2929687 v 1.07812504 c 0.04687,0.5625 0.609375,0.609375 0.9375,0.609375 0.410157,0 0.65625,-0.1875 0.808594,-0.421875 v 0.421875 L 21.151398,-9.453125e-4 V -0.22360156 c -0.363281,0 -0.410156,-0.0351562 -0.410156,-0.28125 V -2.2040703 Z m 3.829102,0.046875 c 0,-0.082031 0,-0.1289062 -0.08203,-0.1289062 -0.02344,0 -0.04687,0 -0.08203,0.035156 -0.02344,0.011719 -0.105469,0.09375 -0.128907,0.09375 -0.01172,0 -0.01172,0 -0.04687,-0.023437 -0.117187,-0.058594 -0.292968,-0.1054687 -0.550781,-0.1054687 -0.820312,0 -0.984375,0.375 -0.984375,0.5976562 0,0.46875 0.574219,0.5625 1.03125,0.63281254 0.292969,0.046875 0.75,0.1171875 0.75,0.45703125 0,0.17578125 -0.140625,0.43359375 -0.75,0.43359375 -0.339844,0 -0.667969,-0.12890625 -0.820312,-0.65625 -0.02344,-0.09375 -0.02344,-0.10546875 -0.105469,-0.10546875 -0.105469,0 -0.105469,0.0351563 -0.105469,0.140625 v 0.64453125 c 0,0.0820312475 0,0.140625 0.08203,0.140625 0.03516,0 0.03516,-0.01171875 0.128907,-0.10546875 l 0.140625,-0.1171875 c 0.246093,0.2109375 0.5625,0.22265625 0.679687,0.22265625 0.832031,0 0.996094,-0.43359375 0.996094,-0.69140625 0,-0.22265625 -0.117188,-0.38671879 -0.316406,-0.50390629 C 23.3516,-1.26657 23.210975,-1.2782888 22.7891,-1.3486013 c -0.316406,-0.046875 -0.703125,-0.1054687 -0.703125,-0.375 0,-0.1757812 0.199219,-0.3632812 0.738281,-0.3632812 0.410156,0 0.65625,0.1640625 0.679688,0.515625 0.01172,0.070312 0.01172,0.1054687 0.105468,0.1054687 0.105469,0 0.105469,-0.035156 0.105469,-0.140625 z m 1.737305,0.1757813 h 0.878906 V -2.1454766 H 25.45218 v -0.9140625 h -0.210938 c -0.01172,0.46875 -0.257812,0.9492188 -0.761719,0.9609375 v 0.1757813 h 0.527344 v 1.28906249 c 0,0.57421875 0.46875,0.69140625 0.773438,0.69140625 0.375,0 0.65625,-0.28125 0.65625,-0.69140625 v -0.26953125 h -0.210938 v 0.2578125 c 0,0.375 -0.222656,0.515625 -0.398437,0.515625 -0.375,0 -0.375,-0.3984375 -0.375,-0.50390625 z m 6.74707,0.96093749 h -0.210937 c -0.01172,0.09375 -0.05859,0.3984375 -0.140625,0.45703125 -0.03516,0.0234375 -0.457032,0.0234375 -0.527344,0.0234375 h -0.984375 c 0.328125,-0.24609375 0.703125,-0.515625 0.996094,-0.71484374 0.457031,-0.3164063 0.867187,-0.5976563 0.867187,-1.125 0,-0.6445313 -0.597656,-0.9960938 -1.3125,-0.9960938 -0.667969,0 -1.160156,0.3867188 -1.160156,0.8789063 0,0.2578125 0.210937,0.3046875 0.28125,0.3046875 0.140625,0 0.292969,-0.09375 0.292969,-0.2929688 0,-0.1875 -0.128907,-0.28125 -0.28125,-0.2929687 0.140625,-0.234375 0.433593,-0.375 0.761718,-0.375 0.480469,0 0.890625,0.28125 0.890625,0.7734375 0,0.421875 -0.292968,0.7382812 -0.679687,1.0546875 l -1.207031,1.03124999 c -0.04687,0.046875 -0.05859,0.046875 -0.05859,0.0820313 v 0.1523437475 h 2.308594 z m 3.451172,-0.63281249 c 0,-0.3632813 0,-1.7226563 -1.289063,-1.7226563 -1.300781,0 -1.300781,1.359375 -1.300781,1.7226563 0,0.3632812 0,1.69921874 1.300781,1.69921874 1.289063,0 1.289063,-1.33593754 1.289063,-1.69921874 z m -1.289063,1.53515624 c -0.1875,0 -0.609375,-0.05859375 -0.738281,-0.5625 -0.05859,-0.26953125 -0.07031,-0.62109374 -0.07031,-1.03125004 0,-0.375 0,-0.7148437 0.08203,-0.9960937 0.128906,-0.421875 0.503906,-0.5039063 0.726562,-0.5039063 0.363282,0 0.621094,0.1875 0.726563,0.5390625 0.07031,0.2578125 0.07031,0.6679688 0.07031,0.9609375 0,0.3398438 0,0.73828129 -0.07031,1.04296879 -0.128906,0.48046875 -0.527344,0.55078125 -0.726563,0.55078125 z m 4.620118,-0.90234375 h -0.210938 c -0.01172,0.09375 -0.05859,0.3984375 -0.140625,0.45703125 -0.03516,0.0234375 -0.457031,0.0234375 -0.527344,0.0234375 h -0.984375 c 0.328125,-0.24609375 0.703125,-0.515625 0.996094,-0.71484374 0.457031,-0.3164063 0.867188,-0.5976563 0.867188,-1.125 0,-0.6445313 -0.597657,-0.9960938 -1.3125,-0.9960938 -0.667969,0 -1.160157,0.3867188 -1.160157,0.8789063 0,0.2578125 0.210938,0.3046875 0.28125,0.3046875 0.140625,0 0.292969,-0.09375 0.292969,-0.2929688 0,-0.1875 -0.128906,-0.28125 -0.28125,-0.2929687 0.140625,-0.234375 0.433594,-0.375 0.761719,-0.375 0.480469,0 0.890625,0.28125 0.890625,0.7734375 0,0.421875 -0.292969,0.7382812 -0.679688,1.0546875 l -1.207031,1.03124999 c -0.04687,0.046875 -0.05859,0.046875 -0.05859,0.0820313 v 0.1523437475 h 2.308594 z m 3.530273,0.15234375 V -1.0321953 h -0.621094 v -2.1914063 c 0,-0.1171875 0,-0.1523437 -0.128906,-0.1523437 -0.105469,0 -0.105469,0.011719 -0.164062,0.082031 l -1.839844,2.2617188 v 0.22265624 h 1.652344 v 0.38671875 c 0,0.15234375 0,0.19921875 -0.433594,0.19921875 h -0.175781 v 0.2226562475 c 0.234375,-0.0117187475 0.5625,-0.0234374975 0.855468,-0.0234374975 0.28125,0 0.609375,0.01171875 0.84375,0.0234374975 V -0.22360156 H 42.32425 c -0.433594,0 -0.433594,-0.046875 -0.433594,-0.19921875 V -0.80953906 Z M 41.457063,-2.8368828 v 1.8046875 h -1.464844 z m 0,0"
       style="fill:#000000;fill-opacity:1;fill-rule:nonzero;stroke:none"
       aria-label="1August2024"
       transform="matrix(1.3333333,0,0,1.3333333,113.94267,8.9426667)" />
  </g>
</svg>
